<ttFont>
    <TTGlyph name=".notdef" xMin="0" yMin="0" xMax="502" yMax="701">
      <contour>
        <pt x="251" y="302" on="1"/>
        <pt x="247" y="302" on="1"/>
        <pt x="147" y="93" on="1"/>
        <pt x="87" y="93" on="1"/>
        <pt x="221" y="353" on="1"/>
        <pt x="87" y="608" on="1"/>
        <pt x="147" y="608" on="1"/>
        <pt x="252" y="402" on="1"/>
        <pt x="256" y="402" on="1"/>
        <pt x="356" y="608" on="1"/>
        <pt x="416" y="608" on="1"/>
        <pt x="281" y="347" on="1"/>
        <pt x="416" y="93" on="1"/>
        <pt x="356" y="93" on="1"/>
      </contour>
      <contour>
        <pt x="51" y="652" on="1"/>
        <pt x="51" y="49" on="1"/>
        <pt x="451" y="49" on="1"/>
        <pt x="451" y="652" on="1"/>
      </contour>
      <contour>
        <pt x="0" y="0" on="1"/>
        <pt x="0" y="701" on="1"/>
        <pt x="502" y="701" on="1"/>
        <pt x="502" y="0" on="1"/>
      </contour>
    </TTGlyph>
    <TTGlyph name="A" xMin="8" yMin="0" xMax="423" yMax="631">
      <contour>
        <pt x="307" y="0" on="1"/>
        <pt x="283" y="131" on="1"/>
        <pt x="145" y="131" on="1"/>
        <pt x="123" y="0" on="1"/>
        <pt x="8" y="0" on="1"/>
        <pt x="135" y="631" on="1"/>
        <pt x="290" y="631" on="1"/>
        <pt x="423" y="0" on="1"/>
      </contour>
      <contour>
        <pt x="160" y="218" on="1"/>
        <pt x="267" y="218" on="1"/>
        <pt x="212" y="520" on="1"/>
      </contour>
    </TTGlyph>
    <TTGlyph name="AE" xMin="8" yMin="0" xMax="614" yMax="631">
      <contour>
        <pt x="421" y="88" on="1"/>
        <pt x="614" y="88" on="1"/>
        <pt x="614" y="0" on="1"/>
        <pt x="310" y="0" on="1"/>
        <pt x="310" y="139" on="1"/>
        <pt x="172" y="139" on="1"/>
        <pt x="122" y="0" on="1"/>
        <pt x="8" y="0" on="1"/>
        <pt x="247" y="631" on="1"/>
        <pt x="606" y="631" on="1"/>
        <pt x="606" y="543" on="1"/>
        <pt x="421" y="543" on="1"/>
        <pt x="421" y="368" on="1"/>
        <pt x="576" y="368" on="1"/>
        <pt x="576" y="279" on="1"/>
        <pt x="421" y="279" on="1"/>
      </contour>
      <contour>
        <pt x="310" y="225" on="1"/>
        <pt x="310" y="518" on="1"/>
        <pt x="204" y="225" on="1"/>
      </contour>
    </TTGlyph>
    <TTGlyph name="Aacute" xMin="8" yMin="0" xMax="423" yMax="800">
      <contour>
        <pt x="307" y="0" on="1"/>
        <pt x="283" y="131" on="1"/>
        <pt x="145" y="131" on="1"/>
        <pt x="123" y="0" on="1"/>
        <pt x="8" y="0" on="1"/>
        <pt x="135" y="631" on="1"/>
        <pt x="290" y="631" on="1"/>
        <pt x="423" y="0" on="1"/>
      </contour>
      <contour>
        <pt x="160" y="218" on="1"/>
        <pt x="267" y="218" on="1"/>
        <pt x="212" y="520" on="1"/>
      </contour>
      <contour>
        <pt x="374" y="800" on="1"/>
        <pt x="261" y="663" on="1"/>
        <pt x="167" y="663" on="1"/>
        <pt x="253" y="800" on="1"/>
      </contour>
    </TTGlyph>
    <TTGlyph name="Abreve" xMin="8" yMin="0" xMax="423" yMax="800">
      <contour>
        <pt x="307" y="0" on="1"/>
        <pt x="283" y="131" on="1"/>
        <pt x="145" y="131" on="1"/>
        <pt x="123" y="0" on="1"/>
        <pt x="8" y="0" on="1"/>
        <pt x="135" y="631" on="1"/>
        <pt x="290" y="631" on="1"/>
        <pt x="423" y="0" on="1"/>
      </contour>
      <contour>
        <pt x="160" y="218" on="1"/>
        <pt x="267" y="218" on="1"/>
        <pt x="212" y="520" on="1"/>
      </contour>
      <contour>
        <pt x="263" y="663" on="1"/>
        <pt x="161" y="663" on="1"/>
        <pt x="53" y="663" on="0"/>
        <pt x="53" y="762" on="1"/>
        <pt x="53" y="800" on="1"/>
        <pt x="155" y="800" on="1"/>
        <pt x="155" y="763" on="1"/>
        <pt x="155" y="747" on="0"/>
        <pt x="167" y="736" on="0"/>
        <pt x="184" y="736" on="1"/>
        <pt x="240" y="736" on="1"/>
        <pt x="257" y="736" on="0"/>
        <pt x="269" y="747" on="0"/>
        <pt x="269" y="763" on="1"/>
        <pt x="269" y="800" on="1"/>
        <pt x="371" y="800" on="1"/>
        <pt x="371" y="762" on="1"/>
        <pt x="371" y="663" on="0"/>
      </contour>
    </TTGlyph>
    <TTGlyph name="Acircumflex" xMin="8" yMin="0" xMax="423" yMax="800">
      <contour>
        <pt x="307" y="0" on="1"/>
        <pt x="283" y="131" on="1"/>
        <pt x="145" y="131" on="1"/>
        <pt x="123" y="0" on="1"/>
        <pt x="8" y="0" on="1"/>
        <pt x="135" y="631" on="1"/>
        <pt x="290" y="631" on="1"/>
        <pt x="423" y="0" on="1"/>
      </contour>
      <contour>
        <pt x="160" y="218" on="1"/>
        <pt x="267" y="218" on="1"/>
        <pt x="212" y="520" on="1"/>
      </contour>
      <contour>
        <pt x="212" y="740" on="1"/>
        <pt x="160" y="663" on="1"/>
        <pt x="48" y="663" on="1"/>
        <pt x="154" y="800" on="1"/>
        <pt x="271" y="800" on="1"/>
        <pt x="377" y="663" on="1"/>
        <pt x="265" y="663" on="1"/>
      </contour>
    </TTGlyph>
    <TTGlyph name="Adieresis" xMin="8" yMin="0" xMax="423" yMax="767">
      <contour>
        <pt x="307" y="0" on="1"/>
        <pt x="283" y="131" on="1"/>
        <pt x="145" y="131" on="1"/>
        <pt x="123" y="0" on="1"/>
        <pt x="8" y="0" on="1"/>
        <pt x="135" y="631" on="1"/>
        <pt x="290" y="631" on="1"/>
        <pt x="423" y="0" on="1"/>
      </contour>
      <contour>
        <pt x="160" y="218" on="1"/>
        <pt x="267" y="218" on="1"/>
        <pt x="212" y="520" on="1"/>
      </contour>
      <contour>
        <pt x="168" y="767" on="1"/>
        <pt x="168" y="662" on="1"/>
        <pt x="52" y="662" on="1"/>
        <pt x="52" y="767" on="1"/>
      </contour>
      <contour>
        <pt x="372" y="767" on="1"/>
        <pt x="372" y="662" on="1"/>
        <pt x="256" y="662" on="1"/>
        <pt x="256" y="767" on="1"/>
      </contour>
    </TTGlyph>
    <TTGlyph name="Agrave" xMin="8" yMin="0" xMax="423" yMax="800">
      <contour>
        <pt x="307" y="0" on="1"/>
        <pt x="283" y="131" on="1"/>
        <pt x="145" y="131" on="1"/>
        <pt x="123" y="0" on="1"/>
        <pt x="8" y="0" on="1"/>
        <pt x="135" y="631" on="1"/>
        <pt x="290" y="631" on="1"/>
        <pt x="423" y="0" on="1"/>
      </contour>
      <contour>
        <pt x="160" y="218" on="1"/>
        <pt x="267" y="218" on="1"/>
        <pt x="212" y="520" on="1"/>
      </contour>
      <contour>
        <pt x="253" y="663" on="1"/>
        <pt x="159" y="663" on="1"/>
        <pt x="46" y="800" on="1"/>
        <pt x="167" y="800" on="1"/>
      </contour>
    </TTGlyph>
    <TTGlyph name="Amacron" xMin="8" yMin="0" xMax="423" yMax="741">
      <contour>
        <pt x="307" y="0" on="1"/>
        <pt x="283" y="131" on="1"/>
        <pt x="145" y="131" on="1"/>
        <pt x="123" y="0" on="1"/>
        <pt x="8" y="0" on="1"/>
        <pt x="135" y="631" on="1"/>
        <pt x="290" y="631" on="1"/>
        <pt x="423" y="0" on="1"/>
      </contour>
      <contour>
        <pt x="160" y="218" on="1"/>
        <pt x="267" y="218" on="1"/>
        <pt x="212" y="520" on="1"/>
      </contour>
      <contour>
        <pt x="364" y="741" on="1"/>
        <pt x="364" y="662" on="1"/>
        <pt x="61" y="662" on="1"/>
        <pt x="61" y="741" on="1"/>
      </contour>
    </TTGlyph>
    <TTGlyph name="Aogonek" xMin="8" yMin="-239" xMax="441" yMax="631">
      <contour>
        <pt x="357" y="-166" on="1"/>
        <pt x="441" y="-166" on="1"/>
        <pt x="441" y="-239" on="1"/>
        <pt x="339" y="-239" on="1"/>
        <pt x="289" y="-239" on="0"/>
        <pt x="244" y="-194" on="0"/>
        <pt x="244" y="-149" on="1"/>
        <pt x="244" y="-111" on="1"/>
        <pt x="244" y="-21" on="0"/>
        <pt x="339" y="-21" on="1"/>
        <pt x="346" y="-21" on="1"/>
        <pt x="346" y="0" on="1"/>
        <pt x="307" y="0" on="1"/>
        <pt x="283" y="131" on="1"/>
        <pt x="145" y="131" on="1"/>
        <pt x="123" y="0" on="1"/>
        <pt x="8" y="0" on="1"/>
        <pt x="135" y="631" on="1"/>
        <pt x="290" y="631" on="1"/>
        <pt x="420" y="12" on="1"/>
        <pt x="423" y="12" on="1"/>
        <pt x="423" y="-94" on="1"/>
        <pt x="357" y="-94" on="1"/>
        <pt x="341" y="-94" on="0"/>
        <pt x="330" y="-104" on="0"/>
        <pt x="330" y="-119" on="1"/>
        <pt x="330" y="-142" on="1"/>
        <pt x="330" y="-156" on="0"/>
        <pt x="341" y="-166" on="0"/>
      </contour>
      <contour>
        <pt x="160" y="218" on="1"/>
        <pt x="267" y="218" on="1"/>
        <pt x="212" y="520" on="1"/>
      </contour>
    </TTGlyph>
    <TTGlyph name="Aring" xMin="8" yMin="0" xMax="423" yMax="830">
      <contour>
        <pt x="307" y="0" on="1"/>
        <pt x="283" y="131" on="1"/>
        <pt x="145" y="131" on="1"/>
        <pt x="123" y="0" on="1"/>
        <pt x="8" y="0" on="1"/>
        <pt x="135" y="631" on="1"/>
        <pt x="290" y="631" on="1"/>
        <pt x="423" y="0" on="1"/>
      </contour>
      <contour>
        <pt x="160" y="218" on="1"/>
        <pt x="267" y="218" on="1"/>
        <pt x="212" y="520" on="1"/>
      </contour>
      <contour>
        <pt x="249" y="662" on="1"/>
        <pt x="177" y="662" on="1"/>
        <pt x="96" y="662" on="0"/>
        <pt x="96" y="737" on="1"/>
        <pt x="96" y="754" on="1"/>
        <pt x="96" y="830" on="0"/>
        <pt x="177" y="830" on="1"/>
        <pt x="249" y="830" on="1"/>
        <pt x="330" y="830" on="0"/>
        <pt x="330" y="754" on="1"/>
        <pt x="330" y="737" on="1"/>
        <pt x="330" y="662" on="0"/>
      </contour>
      <contour>
        <pt x="171" y="750" on="1"/>
        <pt x="171" y="741" on="1"/>
        <pt x="171" y="727" on="0"/>
        <pt x="181" y="718" on="0"/>
        <pt x="196" y="718" on="1"/>
        <pt x="230" y="718" on="1"/>
        <pt x="245" y="718" on="0"/>
        <pt x="255" y="727" on="0"/>
        <pt x="255" y="741" on="1"/>
        <pt x="255" y="750" on="1"/>
        <pt x="255" y="764" on="0"/>
        <pt x="245" y="774" on="0"/>
        <pt x="230" y="774" on="1"/>
        <pt x="196" y="774" on="1"/>
        <pt x="181" y="774" on="0"/>
        <pt x="171" y="764" on="0"/>
      </contour>
    </TTGlyph>
    <TTGlyph name="Atilde" xMin="8" yMin="0" xMax="423" yMax="780">
      <contour>
        <pt x="307" y="0" on="1"/>
        <pt x="283" y="131" on="1"/>
        <pt x="145" y="131" on="1"/>
        <pt x="123" y="0" on="1"/>
        <pt x="8" y="0" on="1"/>
        <pt x="135" y="631" on="1"/>
        <pt x="290" y="631" on="1"/>
        <pt x="423" y="0" on="1"/>
      </contour>
      <contour>
        <pt x="160" y="218" on="1"/>
        <pt x="267" y="218" on="1"/>
        <pt x="212" y="520" on="1"/>
      </contour>
      <contour>
        <pt x="144" y="683" on="1"/>
        <pt x="144" y="663" on="1"/>
        <pt x="50" y="663" on="1"/>
        <pt x="50" y="695" on="1"/>
        <pt x="50" y="737" on="0"/>
        <pt x="88" y="780" on="0"/>
        <pt x="134" y="780" on="1"/>
        <pt x="146" y="780" on="1"/>
        <pt x="174" y="780" on="0"/>
        <pt x="243" y="737" on="0"/>
        <pt x="251" y="737" on="1"/>
        <pt x="269" y="737" on="0"/>
        <pt x="269" y="760" on="1"/>
        <pt x="269" y="780" on="1"/>
        <pt x="363" y="780" on="1"/>
        <pt x="363" y="745" on="1"/>
        <pt x="363" y="704" on="0"/>
        <pt x="325" y="663" on="0"/>
        <pt x="279" y="663" on="1"/>
        <pt x="269" y="663" on="1"/>
        <pt x="241" y="663" on="0"/>
        <pt x="170" y="706" on="0"/>
        <pt x="162" y="706" on="1"/>
        <pt x="144" y="706" on="0"/>
      </contour>
    </TTGlyph>
    <TTGlyph name="B" xMin="48" yMin="0" xMax="397" yMax="631">
      <contour>
        <pt x="283" y="388" on="1"/>
        <pt x="283" y="520" on="1"/>
        <pt x="283" y="536" on="0"/>
        <pt x="271" y="547" on="0"/>
        <pt x="254" y="547" on="1"/>
        <pt x="163" y="547" on="1"/>
        <pt x="163" y="361" on="1"/>
        <pt x="254" y="361" on="1"/>
        <pt x="271" y="361" on="0"/>
        <pt x="283" y="372" on="0"/>
      </contour>
      <contour>
        <pt x="283" y="111" on="1"/>
        <pt x="283" y="250" on="1"/>
        <pt x="283" y="266" on="0"/>
        <pt x="271" y="277" on="0"/>
        <pt x="254" y="277" on="1"/>
        <pt x="163" y="277" on="1"/>
        <pt x="163" y="84" on="1"/>
        <pt x="254" y="84" on="1"/>
        <pt x="271" y="84" on="0"/>
        <pt x="283" y="95" on="0"/>
      </contour>
      <contour>
        <pt x="48" y="631" on="1"/>
        <pt x="288" y="631" on="1"/>
        <pt x="397" y="631" on="0"/>
        <pt x="397" y="532" on="1"/>
        <pt x="397" y="396" on="1"/>
        <pt x="397" y="333" on="0"/>
        <pt x="355" y="319" on="1"/>
        <pt x="397" y="305" on="0"/>
        <pt x="397" y="247" on="1"/>
        <pt x="397" y="99" on="1"/>
        <pt x="397" y="0" on="0"/>
        <pt x="288" y="0" on="1"/>
        <pt x="48" y="0" on="1"/>
      </contour>
    </TTGlyph>
    <TTGlyph name="C" xMin="43" yMin="-1" xMax="378" yMax="631">
      <contour>
        <pt x="378" y="422" on="1"/>
        <pt x="262" y="422" on="1"/>
        <pt x="262" y="520" on="1"/>
        <pt x="262" y="536" on="0"/>
        <pt x="250" y="547" on="0"/>
        <pt x="234" y="547" on="1"/>
        <pt x="187" y="547" on="1"/>
        <pt x="171" y="547" on="0"/>
        <pt x="159" y="536" on="0"/>
        <pt x="159" y="520" on="1"/>
        <pt x="159" y="110" on="1"/>
        <pt x="159" y="94" on="0"/>
        <pt x="171" y="83" on="0"/>
        <pt x="187" y="83" on="1"/>
        <pt x="234" y="83" on="1"/>
        <pt x="250" y="83" on="0"/>
        <pt x="262" y="94" on="0"/>
        <pt x="262" y="110" on="1"/>
        <pt x="262" y="206" on="1"/>
        <pt x="378" y="206" on="1"/>
        <pt x="378" y="98" on="1"/>
        <pt x="378" y="-1" on="0"/>
        <pt x="269" y="-1" on="1"/>
        <pt x="152" y="-1" on="1"/>
        <pt x="43" y="-1" on="0"/>
        <pt x="43" y="98" on="1"/>
        <pt x="43" y="532" on="1"/>
        <pt x="43" y="631" on="0"/>
        <pt x="152" y="631" on="1"/>
        <pt x="269" y="631" on="1"/>
        <pt x="378" y="631" on="0"/>
        <pt x="378" y="532" on="1"/>
      </contour>
    </TTGlyph>
    <TTGlyph name="Cacute" xMin="43" yMin="-1" xMax="378" yMax="800">
      <contour>
        <pt x="378" y="422" on="1"/>
        <pt x="262" y="422" on="1"/>
        <pt x="262" y="520" on="1"/>
        <pt x="262" y="536" on="0"/>
        <pt x="250" y="547" on="0"/>
        <pt x="234" y="547" on="1"/>
        <pt x="187" y="547" on="1"/>
        <pt x="171" y="547" on="0"/>
        <pt x="159" y="536" on="0"/>
        <pt x="159" y="520" on="1"/>
        <pt x="159" y="110" on="1"/>
        <pt x="159" y="94" on="0"/>
        <pt x="171" y="83" on="0"/>
        <pt x="187" y="83" on="1"/>
        <pt x="234" y="83" on="1"/>
        <pt x="250" y="83" on="0"/>
        <pt x="262" y="94" on="0"/>
        <pt x="262" y="110" on="1"/>
        <pt x="262" y="206" on="1"/>
        <pt x="378" y="206" on="1"/>
        <pt x="378" y="98" on="1"/>
        <pt x="378" y="-1" on="0"/>
        <pt x="269" y="-1" on="1"/>
        <pt x="152" y="-1" on="1"/>
        <pt x="43" y="-1" on="0"/>
        <pt x="43" y="98" on="1"/>
        <pt x="43" y="532" on="1"/>
        <pt x="43" y="631" on="0"/>
        <pt x="152" y="631" on="1"/>
        <pt x="269" y="631" on="1"/>
        <pt x="378" y="631" on="0"/>
        <pt x="378" y="532" on="1"/>
      </contour>
      <contour>
        <pt x="369" y="800" on="1"/>
        <pt x="256" y="663" on="1"/>
        <pt x="162" y="663" on="1"/>
        <pt x="248" y="800" on="1"/>
      </contour>
    </TTGlyph>
    <TTGlyph name="Ccaron" xMin="43" yMin="-1" xMax="378" yMax="800">
      <contour>
        <pt x="378" y="422" on="1"/>
        <pt x="262" y="422" on="1"/>
        <pt x="262" y="520" on="1"/>
        <pt x="262" y="536" on="0"/>
        <pt x="250" y="547" on="0"/>
        <pt x="234" y="547" on="1"/>
        <pt x="187" y="547" on="1"/>
        <pt x="171" y="547" on="0"/>
        <pt x="159" y="536" on="0"/>
        <pt x="159" y="520" on="1"/>
        <pt x="159" y="110" on="1"/>
        <pt x="159" y="94" on="0"/>
        <pt x="171" y="83" on="0"/>
        <pt x="187" y="83" on="1"/>
        <pt x="234" y="83" on="1"/>
        <pt x="250" y="83" on="0"/>
        <pt x="262" y="94" on="0"/>
        <pt x="262" y="110" on="1"/>
        <pt x="262" y="206" on="1"/>
        <pt x="378" y="206" on="1"/>
        <pt x="378" y="98" on="1"/>
        <pt x="378" y="-1" on="0"/>
        <pt x="269" y="-1" on="1"/>
        <pt x="152" y="-1" on="1"/>
        <pt x="43" y="-1" on="0"/>
        <pt x="43" y="98" on="1"/>
        <pt x="43" y="532" on="1"/>
        <pt x="43" y="631" on="0"/>
        <pt x="152" y="631" on="1"/>
        <pt x="269" y="631" on="1"/>
        <pt x="378" y="631" on="0"/>
        <pt x="378" y="532" on="1"/>
      </contour>
      <contour>
        <pt x="268" y="663" on="1"/>
        <pt x="151" y="663" on="1"/>
        <pt x="45" y="800" on="1"/>
        <pt x="157" y="800" on="1"/>
        <pt x="209" y="723" on="1"/>
        <pt x="262" y="800" on="1"/>
        <pt x="374" y="800" on="1"/>
      </contour>
    </TTGlyph>
    <TTGlyph name="Ccedilla" xMin="43" yMin="-208" xMax="378" yMax="631">
      <contour>
        <pt x="378" y="422" on="1"/>
        <pt x="262" y="422" on="1"/>
        <pt x="262" y="520" on="1"/>
        <pt x="262" y="536" on="0"/>
        <pt x="250" y="547" on="0"/>
        <pt x="234" y="547" on="1"/>
        <pt x="187" y="547" on="1"/>
        <pt x="171" y="547" on="0"/>
        <pt x="159" y="536" on="0"/>
        <pt x="159" y="520" on="1"/>
        <pt x="159" y="110" on="1"/>
        <pt x="159" y="94" on="0"/>
        <pt x="171" y="83" on="0"/>
        <pt x="187" y="83" on="1"/>
        <pt x="234" y="83" on="1"/>
        <pt x="250" y="83" on="0"/>
        <pt x="262" y="94" on="0"/>
        <pt x="262" y="110" on="1"/>
        <pt x="262" y="206" on="1"/>
        <pt x="378" y="206" on="1"/>
        <pt x="378" y="98" on="1"/>
        <pt x="378" y="-1" on="0"/>
        <pt x="269" y="-1" on="1"/>
        <pt x="152" y="-1" on="1"/>
        <pt x="43" y="-1" on="0"/>
        <pt x="43" y="98" on="1"/>
        <pt x="43" y="532" on="1"/>
        <pt x="43" y="631" on="0"/>
        <pt x="152" y="631" on="1"/>
        <pt x="269" y="631" on="1"/>
        <pt x="378" y="631" on="0"/>
        <pt x="378" y="532" on="1"/>
      </contour>
      <contour>
        <pt x="158" y="-95" on="1"/>
        <pt x="158" y="-49" on="1"/>
        <pt x="265" y="-49" on="1"/>
        <pt x="265" y="-104" on="1"/>
        <pt x="265" y="-208" on="0"/>
        <pt x="150" y="-208" on="1"/>
        <pt x="83" y="-208" on="1"/>
        <pt x="83" y="-125" on="1"/>
        <pt x="127" y="-125" on="1"/>
        <pt x="158" y="-125" on="0"/>
      </contour>
    </TTGlyph>
    <TTGlyph name="D" xMin="53" yMin="0" xMax="402" yMax="631">
      <contour>
        <pt x="53" y="631" on="1"/>
        <pt x="293" y="631" on="1"/>
        <pt x="402" y="631" on="0"/>
        <pt x="402" y="532" on="1"/>
        <pt x="402" y="99" on="1"/>
        <pt x="402" y="0" on="0"/>
        <pt x="293" y="0" on="1"/>
        <pt x="53" y="0" on="1"/>
      </contour>
      <contour>
        <pt x="286" y="111" on="1"/>
        <pt x="286" y="520" on="1"/>
        <pt x="286" y="536" on="0"/>
        <pt x="274" y="547" on="0"/>
        <pt x="258" y="547" on="1"/>
        <pt x="168" y="547" on="1"/>
        <pt x="168" y="84" on="1"/>
        <pt x="258" y="84" on="1"/>
        <pt x="274" y="84" on="0"/>
        <pt x="286" y="95" on="0"/>
      </contour>
    </TTGlyph>
    <TTGlyph name="Dcaron" xMin="53" yMin="0" xMax="402" yMax="800">
      <contour>
        <pt x="53" y="631" on="1"/>
        <pt x="293" y="631" on="1"/>
        <pt x="402" y="631" on="0"/>
        <pt x="402" y="532" on="1"/>
        <pt x="402" y="99" on="1"/>
        <pt x="402" y="0" on="0"/>
        <pt x="293" y="0" on="1"/>
        <pt x="53" y="0" on="1"/>
      </contour>
      <contour>
        <pt x="286" y="111" on="1"/>
        <pt x="286" y="520" on="1"/>
        <pt x="286" y="536" on="0"/>
        <pt x="274" y="547" on="0"/>
        <pt x="258" y="547" on="1"/>
        <pt x="168" y="547" on="1"/>
        <pt x="168" y="84" on="1"/>
        <pt x="258" y="84" on="1"/>
        <pt x="274" y="84" on="0"/>
        <pt x="286" y="95" on="0"/>
      </contour>
      <contour>
        <pt x="278" y="663" on="1"/>
        <pt x="161" y="663" on="1"/>
        <pt x="55" y="800" on="1"/>
        <pt x="167" y="800" on="1"/>
        <pt x="219" y="723" on="1"/>
        <pt x="272" y="800" on="1"/>
        <pt x="384" y="800" on="1"/>
      </contour>
    </TTGlyph>
    <TTGlyph name="Dcroat" xMin="1" yMin="0" xMax="402" yMax="631">
      <contour>
        <pt x="53" y="631" on="1"/>
        <pt x="293" y="631" on="1"/>
        <pt x="402" y="631" on="0"/>
        <pt x="402" y="532" on="1"/>
        <pt x="402" y="99" on="1"/>
        <pt x="402" y="0" on="0"/>
        <pt x="293" y="0" on="1"/>
        <pt x="53" y="0" on="1"/>
        <pt x="53" y="277" on="1"/>
        <pt x="1" y="277" on="1"/>
        <pt x="1" y="360" on="1"/>
        <pt x="53" y="360" on="1"/>
      </contour>
      <contour>
        <pt x="286" y="115" on="1"/>
        <pt x="286" y="516" on="1"/>
        <pt x="286" y="532" on="0"/>
        <pt x="274" y="543" on="0"/>
        <pt x="258" y="543" on="1"/>
        <pt x="168" y="543" on="1"/>
        <pt x="168" y="360" on="1"/>
        <pt x="237" y="360" on="1"/>
        <pt x="237" y="277" on="1"/>
        <pt x="168" y="277" on="1"/>
        <pt x="168" y="88" on="1"/>
        <pt x="258" y="88" on="1"/>
        <pt x="274" y="88" on="0"/>
        <pt x="286" y="99" on="0"/>
      </contour>
    </TTGlyph>
    <TTGlyph name="E" xMin="48" yMin="0" xMax="356" yMax="631">
      <contour>
        <pt x="164" y="88" on="1"/>
        <pt x="356" y="88" on="1"/>
        <pt x="356" y="0" on="1"/>
        <pt x="48" y="0" on="1"/>
        <pt x="48" y="631" on="1"/>
        <pt x="348" y="631" on="1"/>
        <pt x="348" y="543" on="1"/>
        <pt x="164" y="543" on="1"/>
        <pt x="164" y="368" on="1"/>
        <pt x="319" y="368" on="1"/>
        <pt x="319" y="279" on="1"/>
        <pt x="164" y="279" on="1"/>
      </contour>
    </TTGlyph>
    <TTGlyph name="Eacute" xMin="48" yMin="0" xMax="356" yMax="800">
      <contour>
        <pt x="164" y="279" on="1"/>
        <pt x="164" y="88" on="1"/>
        <pt x="356" y="88" on="1"/>
        <pt x="356" y="0" on="1"/>
        <pt x="48" y="0" on="1"/>
        <pt x="48" y="631" on="1"/>
        <pt x="348" y="631" on="1"/>
        <pt x="348" y="543" on="1"/>
        <pt x="164" y="543" on="1"/>
        <pt x="164" y="368" on="1"/>
        <pt x="319" y="368" on="1"/>
        <pt x="319" y="279" on="1"/>
      </contour>
      <contour>
        <pt x="356" y="800" on="1"/>
        <pt x="243" y="663" on="1"/>
        <pt x="149" y="663" on="1"/>
        <pt x="235" y="800" on="1"/>
      </contour>
    </TTGlyph>
    <TTGlyph name="Ecaron" xMin="35" yMin="0" xMax="364" yMax="800">
      <contour>
        <pt x="164" y="279" on="1"/>
        <pt x="164" y="88" on="1"/>
        <pt x="356" y="88" on="1"/>
        <pt x="356" y="0" on="1"/>
        <pt x="48" y="0" on="1"/>
        <pt x="48" y="631" on="1"/>
        <pt x="348" y="631" on="1"/>
        <pt x="348" y="543" on="1"/>
        <pt x="164" y="543" on="1"/>
        <pt x="164" y="368" on="1"/>
        <pt x="319" y="368" on="1"/>
        <pt x="319" y="279" on="1"/>
      </contour>
      <contour>
        <pt x="258" y="663" on="1"/>
        <pt x="141" y="663" on="1"/>
        <pt x="35" y="800" on="1"/>
        <pt x="147" y="800" on="1"/>
        <pt x="199" y="723" on="1"/>
        <pt x="252" y="800" on="1"/>
        <pt x="364" y="800" on="1"/>
      </contour>
    </TTGlyph>
    <TTGlyph name="Ecircumflex" xMin="36" yMin="0" xMax="365" yMax="800">
      <contour>
        <pt x="164" y="279" on="1"/>
        <pt x="164" y="88" on="1"/>
        <pt x="356" y="88" on="1"/>
        <pt x="356" y="0" on="1"/>
        <pt x="48" y="0" on="1"/>
        <pt x="48" y="631" on="1"/>
        <pt x="348" y="631" on="1"/>
        <pt x="348" y="543" on="1"/>
        <pt x="164" y="543" on="1"/>
        <pt x="164" y="368" on="1"/>
        <pt x="319" y="368" on="1"/>
        <pt x="319" y="279" on="1"/>
      </contour>
      <contour>
        <pt x="200" y="740" on="1"/>
        <pt x="148" y="663" on="1"/>
        <pt x="36" y="663" on="1"/>
        <pt x="142" y="800" on="1"/>
        <pt x="259" y="800" on="1"/>
        <pt x="365" y="663" on="1"/>
        <pt x="253" y="663" on="1"/>
      </contour>
    </TTGlyph>
    <TTGlyph name="Edieresis" xMin="38" yMin="0" xMax="358" yMax="767">
      <contour>
        <pt x="242" y="767" on="1"/>
        <pt x="358" y="767" on="1"/>
        <pt x="358" y="662" on="1"/>
        <pt x="242" y="662" on="1"/>
      </contour>
      <contour>
        <pt x="164" y="279" on="1"/>
        <pt x="164" y="88" on="1"/>
        <pt x="356" y="88" on="1"/>
        <pt x="356" y="0" on="1"/>
        <pt x="48" y="0" on="1"/>
        <pt x="48" y="631" on="1"/>
        <pt x="348" y="631" on="1"/>
        <pt x="348" y="543" on="1"/>
        <pt x="164" y="543" on="1"/>
        <pt x="164" y="368" on="1"/>
        <pt x="319" y="368" on="1"/>
        <pt x="319" y="279" on="1"/>
      </contour>
      <contour>
        <pt x="154" y="767" on="1"/>
        <pt x="154" y="662" on="1"/>
        <pt x="38" y="662" on="1"/>
        <pt x="38" y="767" on="1"/>
      </contour>
    </TTGlyph>
    <TTGlyph name="Edotaccent" xMin="48" yMin="0" xMax="356" yMax="768">
      <contour>
        <pt x="164" y="88" on="1"/>
        <pt x="356" y="88" on="1"/>
        <pt x="356" y="0" on="1"/>
        <pt x="48" y="0" on="1"/>
        <pt x="48" y="631" on="1"/>
        <pt x="348" y="631" on="1"/>
        <pt x="348" y="543" on="1"/>
        <pt x="164" y="543" on="1"/>
        <pt x="164" y="368" on="1"/>
        <pt x="319" y="368" on="1"/>
        <pt x="319" y="279" on="1"/>
        <pt x="164" y="279" on="1"/>
      </contour>
      <contour>
        <pt x="267" y="768" on="1"/>
        <pt x="267" y="663" on="1"/>
        <pt x="145" y="663" on="1"/>
        <pt x="145" y="768" on="1"/>
      </contour>
    </TTGlyph>
    <TTGlyph name="Egrave" xMin="39" yMin="0" xMax="356" yMax="800">
      <contour>
        <pt x="164" y="88" on="1"/>
        <pt x="356" y="88" on="1"/>
        <pt x="356" y="0" on="1"/>
        <pt x="48" y="0" on="1"/>
        <pt x="48" y="631" on="1"/>
        <pt x="348" y="631" on="1"/>
        <pt x="348" y="543" on="1"/>
        <pt x="164" y="543" on="1"/>
        <pt x="164" y="368" on="1"/>
        <pt x="319" y="368" on="1"/>
        <pt x="319" y="279" on="1"/>
        <pt x="164" y="279" on="1"/>
      </contour>
      <contour>
        <pt x="246" y="663" on="1"/>
        <pt x="152" y="663" on="1"/>
        <pt x="39" y="800" on="1"/>
        <pt x="160" y="800" on="1"/>
      </contour>
    </TTGlyph>
    <TTGlyph name="Emacron" xMin="45" yMin="0" xMax="356" yMax="751">
      <contour>
        <pt x="164" y="88" on="1"/>
        <pt x="356" y="88" on="1"/>
        <pt x="356" y="0" on="1"/>
        <pt x="48" y="0" on="1"/>
        <pt x="48" y="631" on="1"/>
        <pt x="348" y="631" on="1"/>
        <pt x="348" y="543" on="1"/>
        <pt x="164" y="543" on="1"/>
        <pt x="164" y="368" on="1"/>
        <pt x="319" y="368" on="1"/>
        <pt x="319" y="279" on="1"/>
        <pt x="164" y="279" on="1"/>
      </contour>
      <contour>
        <pt x="348" y="751" on="1"/>
        <pt x="348" y="672" on="1"/>
        <pt x="45" y="672" on="1"/>
        <pt x="45" y="751" on="1"/>
      </contour>
    </TTGlyph>
    <TTGlyph name="Eogonek" xMin="48" yMin="-239" xMax="375" yMax="631">
      <contour>
        <pt x="291" y="-166" on="1"/>
        <pt x="375" y="-166" on="1"/>
        <pt x="375" y="-239" on="1"/>
        <pt x="273" y="-239" on="1"/>
        <pt x="223" y="-239" on="0"/>
        <pt x="178" y="-194" on="0"/>
        <pt x="178" y="-149" on="1"/>
        <pt x="178" y="-111" on="1"/>
        <pt x="178" y="-21" on="0"/>
        <pt x="273" y="-21" on="1"/>
        <pt x="280" y="-21" on="1"/>
        <pt x="280" y="0" on="1"/>
        <pt x="48" y="0" on="1"/>
        <pt x="48" y="631" on="1"/>
        <pt x="348" y="631" on="1"/>
        <pt x="348" y="543" on="1"/>
        <pt x="164" y="543" on="1"/>
        <pt x="164" y="368" on="1"/>
        <pt x="319" y="368" on="1"/>
        <pt x="319" y="279" on="1"/>
        <pt x="164" y="279" on="1"/>
        <pt x="164" y="88" on="1"/>
        <pt x="356" y="88" on="1"/>
        <pt x="356" y="12" on="1"/>
        <pt x="357" y="12" on="1"/>
        <pt x="357" y="-94" on="1"/>
        <pt x="291" y="-94" on="1"/>
        <pt x="275" y="-94" on="0"/>
        <pt x="264" y="-104" on="0"/>
        <pt x="264" y="-119" on="1"/>
        <pt x="264" y="-142" on="1"/>
        <pt x="264" y="-156" on="0"/>
        <pt x="275" y="-166" on="0"/>
      </contour>
    </TTGlyph>
    <TTGlyph name="Eth" xMin="1" yMin="0" xMax="402" yMax="631">
      <contour>
        <pt x="53" y="631" on="1"/>
        <pt x="293" y="631" on="1"/>
        <pt x="402" y="631" on="0"/>
        <pt x="402" y="532" on="1"/>
        <pt x="402" y="99" on="1"/>
        <pt x="402" y="0" on="0"/>
        <pt x="293" y="0" on="1"/>
        <pt x="53" y="0" on="1"/>
        <pt x="53" y="277" on="1"/>
        <pt x="1" y="277" on="1"/>
        <pt x="1" y="360" on="1"/>
        <pt x="53" y="360" on="1"/>
      </contour>
      <contour>
        <pt x="286" y="111" on="1"/>
        <pt x="286" y="520" on="1"/>
        <pt x="286" y="536" on="0"/>
        <pt x="274" y="547" on="0"/>
        <pt x="258" y="547" on="1"/>
        <pt x="168" y="547" on="1"/>
        <pt x="168" y="360" on="1"/>
        <pt x="237" y="360" on="1"/>
        <pt x="237" y="277" on="1"/>
        <pt x="168" y="277" on="1"/>
        <pt x="168" y="84" on="1"/>
        <pt x="258" y="84" on="1"/>
        <pt x="274" y="84" on="0"/>
        <pt x="286" y="95" on="0"/>
      </contour>
    </TTGlyph>
    <TTGlyph name="Euro" xMin="21" yMin="-1" xMax="400" yMax="631">
      <contour>
        <pt x="400" y="422" on="1"/>
        <pt x="284" y="422" on="1"/>
        <pt x="284" y="520" on="1"/>
        <pt x="284" y="536" on="0"/>
        <pt x="272" y="547" on="0"/>
        <pt x="256" y="547" on="1"/>
        <pt x="210" y="547" on="1"/>
        <pt x="193" y="547" on="0"/>
        <pt x="181" y="536" on="0"/>
        <pt x="181" y="520" on="1"/>
        <pt x="181" y="413" on="1"/>
        <pt x="260" y="413" on="1"/>
        <pt x="260" y="339" on="1"/>
        <pt x="181" y="339" on="1"/>
        <pt x="181" y="293" on="1"/>
        <pt x="260" y="293" on="1"/>
        <pt x="260" y="217" on="1"/>
        <pt x="181" y="217" on="1"/>
        <pt x="181" y="110" on="1"/>
        <pt x="181" y="94" on="0"/>
        <pt x="193" y="83" on="0"/>
        <pt x="210" y="83" on="1"/>
        <pt x="256" y="83" on="1"/>
        <pt x="272" y="83" on="0"/>
        <pt x="284" y="94" on="0"/>
        <pt x="284" y="110" on="1"/>
        <pt x="284" y="206" on="1"/>
        <pt x="400" y="206" on="1"/>
        <pt x="400" y="98" on="1"/>
        <pt x="400" y="-1" on="0"/>
        <pt x="291" y="-1" on="1"/>
        <pt x="174" y="-1" on="1"/>
        <pt x="66" y="-1" on="0"/>
        <pt x="66" y="98" on="1"/>
        <pt x="66" y="217" on="1"/>
        <pt x="21" y="217" on="1"/>
        <pt x="21" y="293" on="1"/>
        <pt x="66" y="293" on="1"/>
        <pt x="66" y="339" on="1"/>
        <pt x="21" y="339" on="1"/>
        <pt x="21" y="413" on="1"/>
        <pt x="66" y="413" on="1"/>
        <pt x="66" y="532" on="1"/>
        <pt x="66" y="631" on="0"/>
        <pt x="174" y="631" on="1"/>
        <pt x="291" y="631" on="1"/>
        <pt x="400" y="631" on="0"/>
        <pt x="400" y="532" on="1"/>
      </contour>
    </TTGlyph>
    <TTGlyph name="F" xMin="48" yMin="0" xMax="354" yMax="631">
      <contour>
        <pt x="354" y="543" on="1"/>
        <pt x="164" y="543" on="1"/>
        <pt x="164" y="351" on="1"/>
        <pt x="319" y="351" on="1"/>
        <pt x="319" y="267" on="1"/>
        <pt x="164" y="267" on="1"/>
        <pt x="164" y="0" on="1"/>
        <pt x="48" y="0" on="1"/>
        <pt x="48" y="631" on="1"/>
        <pt x="354" y="631" on="1"/>
      </contour>
    </TTGlyph>
    <TTGlyph name="G" xMin="43" yMin="-1" xMax="378" yMax="631">
      <contour>
        <pt x="378" y="437" on="1"/>
        <pt x="262" y="437" on="1"/>
        <pt x="262" y="520" on="1"/>
        <pt x="262" y="536" on="0"/>
        <pt x="250" y="547" on="0"/>
        <pt x="234" y="547" on="1"/>
        <pt x="187" y="547" on="1"/>
        <pt x="171" y="547" on="0"/>
        <pt x="159" y="536" on="0"/>
        <pt x="159" y="520" on="1"/>
        <pt x="159" y="110" on="1"/>
        <pt x="159" y="94" on="0"/>
        <pt x="171" y="83" on="0"/>
        <pt x="187" y="83" on="1"/>
        <pt x="234" y="83" on="1"/>
        <pt x="250" y="83" on="0"/>
        <pt x="262" y="94" on="0"/>
        <pt x="262" y="110" on="1"/>
        <pt x="262" y="250" on="1"/>
        <pt x="212" y="250" on="1"/>
        <pt x="212" y="331" on="1"/>
        <pt x="378" y="331" on="1"/>
        <pt x="378" y="98" on="1"/>
        <pt x="378" y="-1" on="0"/>
        <pt x="269" y="-1" on="1"/>
        <pt x="152" y="-1" on="1"/>
        <pt x="43" y="-1" on="0"/>
        <pt x="43" y="98" on="1"/>
        <pt x="43" y="532" on="1"/>
        <pt x="43" y="631" on="0"/>
        <pt x="152" y="631" on="1"/>
        <pt x="269" y="631" on="1"/>
        <pt x="378" y="631" on="0"/>
        <pt x="378" y="532" on="1"/>
      </contour>
    </TTGlyph>
    <TTGlyph name="Gbreve" xMin="43" yMin="-1" xMax="378" yMax="800">
      <contour>
        <pt x="378" y="437" on="1"/>
        <pt x="262" y="437" on="1"/>
        <pt x="262" y="520" on="1"/>
        <pt x="262" y="536" on="0"/>
        <pt x="250" y="547" on="0"/>
        <pt x="234" y="547" on="1"/>
        <pt x="187" y="547" on="1"/>
        <pt x="171" y="547" on="0"/>
        <pt x="159" y="536" on="0"/>
        <pt x="159" y="520" on="1"/>
        <pt x="159" y="110" on="1"/>
        <pt x="159" y="94" on="0"/>
        <pt x="171" y="83" on="0"/>
        <pt x="187" y="83" on="1"/>
        <pt x="234" y="83" on="1"/>
        <pt x="250" y="83" on="0"/>
        <pt x="262" y="94" on="0"/>
        <pt x="262" y="110" on="1"/>
        <pt x="262" y="250" on="1"/>
        <pt x="212" y="250" on="1"/>
        <pt x="212" y="331" on="1"/>
        <pt x="378" y="331" on="1"/>
        <pt x="378" y="98" on="1"/>
        <pt x="378" y="-1" on="0"/>
        <pt x="269" y="-1" on="1"/>
        <pt x="152" y="-1" on="1"/>
        <pt x="43" y="-1" on="0"/>
        <pt x="43" y="98" on="1"/>
        <pt x="43" y="532" on="1"/>
        <pt x="43" y="631" on="0"/>
        <pt x="152" y="631" on="1"/>
        <pt x="269" y="631" on="1"/>
        <pt x="378" y="631" on="0"/>
        <pt x="378" y="532" on="1"/>
      </contour>
      <contour>
        <pt x="262" y="663" on="1"/>
        <pt x="160" y="663" on="1"/>
        <pt x="52" y="663" on="0"/>
        <pt x="52" y="762" on="1"/>
        <pt x="52" y="800" on="1"/>
        <pt x="154" y="800" on="1"/>
        <pt x="154" y="763" on="1"/>
        <pt x="154" y="747" on="0"/>
        <pt x="166" y="736" on="0"/>
        <pt x="183" y="736" on="1"/>
        <pt x="239" y="736" on="1"/>
        <pt x="256" y="736" on="0"/>
        <pt x="268" y="747" on="0"/>
        <pt x="268" y="763" on="1"/>
        <pt x="268" y="800" on="1"/>
        <pt x="370" y="800" on="1"/>
        <pt x="370" y="762" on="1"/>
        <pt x="370" y="663" on="0"/>
      </contour>
    </TTGlyph>
    <TTGlyph name="H" xMin="48" yMin="0" xMax="408" yMax="631">
      <contour>
        <pt x="293" y="631" on="1"/>
        <pt x="408" y="631" on="1"/>
        <pt x="408" y="0" on="1"/>
        <pt x="293" y="0" on="1"/>
        <pt x="293" y="269" on="1"/>
        <pt x="163" y="269" on="1"/>
        <pt x="163" y="0" on="1"/>
        <pt x="48" y="0" on="1"/>
        <pt x="48" y="631" on="1"/>
        <pt x="163" y="631" on="1"/>
        <pt x="163" y="357" on="1"/>
        <pt x="293" y="357" on="1"/>
      </contour>
    </TTGlyph>
    <TTGlyph name="I" xMin="54" yMin="0" xMax="169" yMax="631">
      <contour>
        <pt x="54" y="631" on="1"/>
        <pt x="169" y="631" on="1"/>
        <pt x="169" y="0" on="1"/>
        <pt x="54" y="0" on="1"/>
      </contour>
    </TTGlyph>
    <TTGlyph name="Iacute" xMin="54" yMin="0" xMax="272" yMax="800">
      <contour>
        <pt x="65" y="663" on="1"/>
        <pt x="151" y="800" on="1"/>
        <pt x="272" y="800" on="1"/>
        <pt x="159" y="663" on="1"/>
      </contour>
      <contour>
        <pt x="54" y="631" on="1"/>
        <pt x="169" y="631" on="1"/>
        <pt x="169" y="0" on="1"/>
        <pt x="54" y="0" on="1"/>
      </contour>
    </TTGlyph>
    <TTGlyph name="Icircumflex" xMin="-53" yMin="0" xMax="276" yMax="800">
      <contour>
        <pt x="-53" y="663" on="1"/>
        <pt x="53" y="800" on="1"/>
        <pt x="170" y="800" on="1"/>
        <pt x="276" y="663" on="1"/>
        <pt x="164" y="663" on="1"/>
        <pt x="111" y="740" on="1"/>
        <pt x="59" y="663" on="1"/>
      </contour>
      <contour>
        <pt x="54" y="631" on="1"/>
        <pt x="169" y="631" on="1"/>
        <pt x="169" y="0" on="1"/>
        <pt x="54" y="0" on="1"/>
      </contour>
    </TTGlyph>
    <TTGlyph name="Idieresis" xMin="-49" yMin="0" xMax="271" yMax="767">
      <contour>
        <pt x="54" y="631" on="1"/>
        <pt x="169" y="631" on="1"/>
        <pt x="169" y="0" on="1"/>
        <pt x="54" y="0" on="1"/>
      </contour>
      <contour>
        <pt x="155" y="662" on="1"/>
        <pt x="155" y="767" on="1"/>
        <pt x="271" y="767" on="1"/>
        <pt x="271" y="662" on="1"/>
      </contour>
      <contour>
        <pt x="-49" y="662" on="1"/>
        <pt x="-49" y="767" on="1"/>
        <pt x="67" y="767" on="1"/>
        <pt x="67" y="662" on="1"/>
      </contour>
    </TTGlyph>
    <TTGlyph name="Idotaccent" xMin="50" yMin="0" xMax="172" yMax="777">
      <contour>
        <pt x="50" y="672" on="1"/>
        <pt x="50" y="777" on="1"/>
        <pt x="172" y="777" on="1"/>
        <pt x="172" y="672" on="1"/>
      </contour>
      <contour>
        <pt x="54" y="631" on="1"/>
        <pt x="169" y="631" on="1"/>
        <pt x="169" y="0" on="1"/>
        <pt x="54" y="0" on="1"/>
      </contour>
    </TTGlyph>
    <TTGlyph name="Igrave" xMin="-49" yMin="0" xMax="169" yMax="800">
      <contour>
        <pt x="72" y="800" on="1"/>
        <pt x="158" y="663" on="1"/>
        <pt x="64" y="663" on="1"/>
        <pt x="-49" y="800" on="1"/>
      </contour>
      <contour>
        <pt x="54" y="631" on="1"/>
        <pt x="169" y="631" on="1"/>
        <pt x="169" y="0" on="1"/>
        <pt x="54" y="0" on="1"/>
      </contour>
    </TTGlyph>
    <TTGlyph name="Imacron" xMin="-40" yMin="0" xMax="263" yMax="751">
      <contour>
        <pt x="-40" y="672" on="1"/>
        <pt x="-40" y="751" on="1"/>
        <pt x="263" y="751" on="1"/>
        <pt x="263" y="672" on="1"/>
      </contour>
      <contour>
        <pt x="54" y="631" on="1"/>
        <pt x="169" y="631" on="1"/>
        <pt x="169" y="0" on="1"/>
        <pt x="54" y="0" on="1"/>
      </contour>
    </TTGlyph>
    <TTGlyph name="Iogonek" xMin="-10" yMin="-239" xMax="187" yMax="631">
      <contour>
        <pt x="103" y="-166" on="1"/>
        <pt x="187" y="-166" on="1"/>
        <pt x="187" y="-239" on="1"/>
        <pt x="85" y="-239" on="1"/>
        <pt x="35" y="-239" on="0"/>
        <pt x="-10" y="-194" on="0"/>
        <pt x="-10" y="-149" on="1"/>
        <pt x="-10" y="-111" on="1"/>
        <pt x="-10" y="-21" on="0"/>
        <pt x="85" y="-21" on="1"/>
        <pt x="92" y="-21" on="1"/>
        <pt x="92" y="0" on="1"/>
        <pt x="54" y="0" on="1"/>
        <pt x="54" y="631" on="1"/>
        <pt x="169" y="631" on="1"/>
        <pt x="169" y="-94" on="1"/>
        <pt x="103" y="-94" on="1"/>
        <pt x="87" y="-94" on="0"/>
        <pt x="76" y="-104" on="0"/>
        <pt x="76" y="-119" on="1"/>
        <pt x="76" y="-142" on="1"/>
        <pt x="76" y="-156" on="0"/>
        <pt x="87" y="-166" on="0"/>
      </contour>
    </TTGlyph>
    <TTGlyph name="J" xMin="13" yMin="0" xMax="325" yMax="631">
      <contour>
        <pt x="13" y="221" on="1"/>
        <pt x="128" y="221" on="1"/>
        <pt x="128" y="115" on="1"/>
        <pt x="128" y="99" on="0"/>
        <pt x="140" y="88" on="0"/>
        <pt x="157" y="88" on="1"/>
        <pt x="181" y="88" on="1"/>
        <pt x="197" y="88" on="0"/>
        <pt x="209" y="99" on="0"/>
        <pt x="209" y="115" on="1"/>
        <pt x="209" y="631" on="1"/>
        <pt x="325" y="631" on="1"/>
        <pt x="325" y="99" on="1"/>
        <pt x="325" y="0" on="0"/>
        <pt x="216" y="0" on="1"/>
        <pt x="122" y="0" on="1"/>
        <pt x="13" y="0" on="0"/>
        <pt x="13" y="99" on="1"/>
      </contour>
    </TTGlyph>
    <TTGlyph name="K" xMin="48" yMin="0" xMax="418" yMax="631">
      <contour>
        <pt x="418" y="631" on="1"/>
        <pt x="288" y="317" on="1"/>
        <pt x="417" y="0" on="1"/>
        <pt x="293" y="0" on="1"/>
        <pt x="168" y="317" on="1"/>
        <pt x="294" y="631" on="1"/>
      </contour>
      <contour>
        <pt x="48" y="0" on="1"/>
        <pt x="48" y="631" on="1"/>
        <pt x="163" y="631" on="1"/>
        <pt x="163" y="0" on="1"/>
      </contour>
    </TTGlyph>
    <TTGlyph name="L" xMin="48" yMin="0" xMax="331" yMax="631">
      <contour>
        <pt x="163" y="88" on="1"/>
        <pt x="331" y="88" on="1"/>
        <pt x="331" y="0" on="1"/>
        <pt x="48" y="0" on="1"/>
        <pt x="48" y="631" on="1"/>
        <pt x="163" y="631" on="1"/>
      </contour>
    </TTGlyph>
    <TTGlyph name="Lacute" xMin="48" yMin="0" xMax="331" yMax="800">
      <contour>
        <pt x="163" y="88" on="1"/>
        <pt x="331" y="88" on="1"/>
        <pt x="331" y="0" on="1"/>
        <pt x="48" y="0" on="1"/>
        <pt x="48" y="631" on="1"/>
        <pt x="163" y="631" on="1"/>
      </contour>
      <contour>
        <pt x="267" y="800" on="1"/>
        <pt x="154" y="663" on="1"/>
        <pt x="60" y="663" on="1"/>
        <pt x="146" y="800" on="1"/>
      </contour>
    </TTGlyph>
    <TTGlyph name="Lcaron" xMin="-60" yMin="0" xMax="331" yMax="803">
      <contour>
        <pt x="163" y="88" on="1"/>
        <pt x="331" y="88" on="1"/>
        <pt x="331" y="0" on="1"/>
        <pt x="48" y="0" on="1"/>
        <pt x="48" y="631" on="1"/>
        <pt x="163" y="631" on="1"/>
      </contour>
      <contour>
        <pt x="269" y="803" on="1"/>
        <pt x="163" y="666" on="1"/>
        <pt x="46" y="666" on="1"/>
        <pt x="-60" y="803" on="1"/>
        <pt x="52" y="803" on="1"/>
        <pt x="104" y="726" on="1"/>
        <pt x="157" y="803" on="1"/>
      </contour>
    </TTGlyph>
    <TTGlyph name="Lslash" xMin="-27" yMin="0" xMax="335" yMax="631">
      <contour>
        <pt x="167" y="88" on="1"/>
        <pt x="335" y="88" on="1"/>
        <pt x="335" y="0" on="1"/>
        <pt x="52" y="0" on="1"/>
        <pt x="52" y="247" on="1"/>
        <pt x="-27" y="210" on="1"/>
        <pt x="-27" y="294" on="1"/>
        <pt x="52" y="331" on="1"/>
        <pt x="52" y="631" on="1"/>
        <pt x="167" y="631" on="1"/>
        <pt x="167" y="386" on="1"/>
        <pt x="271" y="435" on="1"/>
        <pt x="271" y="351" on="1"/>
        <pt x="167" y="302" on="1"/>
      </contour>
    </TTGlyph>
    <TTGlyph name="M" xMin="48" yMin="0" xMax="512" yMax="631">
      <contour>
        <pt x="150" y="0" on="1"/>
        <pt x="48" y="0" on="1"/>
        <pt x="48" y="631" on="1"/>
        <pt x="174" y="631" on="1"/>
        <pt x="280" y="256" on="1"/>
        <pt x="386" y="631" on="1"/>
        <pt x="512" y="631" on="1"/>
        <pt x="512" y="0" on="1"/>
        <pt x="411" y="0" on="1"/>
        <pt x="411" y="443" on="1"/>
        <pt x="327" y="137" on="1"/>
        <pt x="234" y="137" on="1"/>
        <pt x="150" y="442" on="1"/>
      </contour>
    </TTGlyph>
    <TTGlyph name="N" xMin="48" yMin="0" xMax="397" yMax="631">
      <contour>
        <pt x="292" y="631" on="1"/>
        <pt x="397" y="631" on="1"/>
        <pt x="397" y="0" on="1"/>
        <pt x="289" y="0" on="1"/>
        <pt x="154" y="418" on="1"/>
        <pt x="154" y="0" on="1"/>
        <pt x="48" y="0" on="1"/>
        <pt x="48" y="631" on="1"/>
        <pt x="159" y="631" on="1"/>
        <pt x="292" y="219" on="1"/>
      </contour>
    </TTGlyph>
    <TTGlyph name="Nacute" xMin="48" yMin="0" xMax="397" yMax="800">
      <contour>
        <pt x="292" y="631" on="1"/>
        <pt x="397" y="631" on="1"/>
        <pt x="397" y="0" on="1"/>
        <pt x="289" y="0" on="1"/>
        <pt x="154" y="418" on="1"/>
        <pt x="154" y="0" on="1"/>
        <pt x="48" y="0" on="1"/>
        <pt x="48" y="631" on="1"/>
        <pt x="159" y="631" on="1"/>
        <pt x="292" y="219" on="1"/>
      </contour>
      <contour>
        <pt x="173" y="663" on="1"/>
        <pt x="259" y="800" on="1"/>
        <pt x="380" y="800" on="1"/>
        <pt x="267" y="663" on="1"/>
      </contour>
    </TTGlyph>
    <TTGlyph name="Ncaron" xMin="48" yMin="0" xMax="397" yMax="799">
      <contour>
        <pt x="292" y="631" on="1"/>
        <pt x="397" y="631" on="1"/>
        <pt x="397" y="0" on="1"/>
        <pt x="289" y="0" on="1"/>
        <pt x="154" y="418" on="1"/>
        <pt x="154" y="0" on="1"/>
        <pt x="48" y="0" on="1"/>
        <pt x="48" y="631" on="1"/>
        <pt x="159" y="631" on="1"/>
        <pt x="292" y="219" on="1"/>
      </contour>
      <contour>
        <pt x="165" y="662" on="1"/>
        <pt x="59" y="799" on="1"/>
        <pt x="171" y="799" on="1"/>
        <pt x="223" y="722" on="1"/>
        <pt x="276" y="799" on="1"/>
        <pt x="388" y="799" on="1"/>
        <pt x="282" y="662" on="1"/>
      </contour>
    </TTGlyph>
    <TTGlyph name="Ntilde" xMin="48" yMin="0" xMax="397" yMax="780">
      <contour>
        <pt x="286" y="663" on="1"/>
        <pt x="258" y="663" on="0"/>
        <pt x="187" y="706" on="0"/>
        <pt x="179" y="706" on="1"/>
        <pt x="161" y="706" on="0"/>
        <pt x="161" y="683" on="1"/>
        <pt x="161" y="663" on="1"/>
        <pt x="67" y="663" on="1"/>
        <pt x="67" y="695" on="1"/>
        <pt x="67" y="737" on="0"/>
        <pt x="105" y="780" on="0"/>
        <pt x="151" y="780" on="1"/>
        <pt x="163" y="780" on="1"/>
        <pt x="191" y="780" on="0"/>
        <pt x="260" y="737" on="0"/>
        <pt x="268" y="737" on="1"/>
        <pt x="286" y="737" on="0"/>
        <pt x="286" y="760" on="1"/>
        <pt x="286" y="780" on="1"/>
        <pt x="380" y="780" on="1"/>
        <pt x="380" y="745" on="1"/>
        <pt x="380" y="704" on="0"/>
        <pt x="342" y="663" on="0"/>
        <pt x="296" y="663" on="1"/>
      </contour>
      <contour>
        <pt x="292" y="631" on="1"/>
        <pt x="397" y="631" on="1"/>
        <pt x="397" y="0" on="1"/>
        <pt x="289" y="0" on="1"/>
        <pt x="154" y="418" on="1"/>
        <pt x="154" y="0" on="1"/>
        <pt x="48" y="0" on="1"/>
        <pt x="48" y="631" on="1"/>
        <pt x="159" y="631" on="1"/>
        <pt x="292" y="219" on="1"/>
      </contour>
    </TTGlyph>
    <TTGlyph name="O" xMin="44" yMin="0" xMax="384" yMax="631">
      <contour>
        <pt x="153" y="631" on="1"/>
        <pt x="275" y="631" on="1"/>
        <pt x="384" y="631" on="0"/>
        <pt x="384" y="532" on="1"/>
        <pt x="384" y="99" on="1"/>
        <pt x="384" y="0" on="0"/>
        <pt x="275" y="0" on="1"/>
        <pt x="153" y="0" on="1"/>
        <pt x="44" y="0" on="0"/>
        <pt x="44" y="99" on="1"/>
        <pt x="44" y="532" on="1"/>
        <pt x="44" y="631" on="0"/>
      </contour>
      <contour>
        <pt x="269" y="115" on="1"/>
        <pt x="269" y="516" on="1"/>
        <pt x="269" y="532" on="0"/>
        <pt x="257" y="543" on="0"/>
        <pt x="241" y="543" on="1"/>
        <pt x="188" y="543" on="1"/>
        <pt x="171" y="543" on="0"/>
        <pt x="159" y="532" on="0"/>
        <pt x="159" y="516" on="1"/>
        <pt x="159" y="115" on="1"/>
        <pt x="159" y="99" on="0"/>
        <pt x="171" y="88" on="0"/>
        <pt x="188" y="88" on="1"/>
        <pt x="241" y="88" on="1"/>
        <pt x="257" y="88" on="0"/>
        <pt x="269" y="99" on="0"/>
      </contour>
    </TTGlyph>
    <TTGlyph name="OE" xMin="57" yMin="0" xMax="586" yMax="631">
      <contour>
        <pt x="394" y="84" on="1"/>
        <pt x="586" y="84" on="1"/>
        <pt x="586" y="0" on="1"/>
        <pt x="306" y="0" on="1"/>
        <pt x="306" y="19" on="1"/>
        <pt x="282" y="0" on="0"/>
        <pt x="243" y="0" on="1"/>
        <pt x="166" y="0" on="1"/>
        <pt x="57" y="0" on="0"/>
        <pt x="57" y="99" on="1"/>
        <pt x="57" y="532" on="1"/>
        <pt x="57" y="631" on="0"/>
        <pt x="166" y="631" on="1"/>
        <pt x="242" y="631" on="1"/>
        <pt x="283" y="631" on="0"/>
        <pt x="306" y="611" on="1"/>
        <pt x="306" y="631" on="1"/>
        <pt x="578" y="631" on="1"/>
        <pt x="578" y="547" on="1"/>
        <pt x="394" y="547" on="1"/>
        <pt x="394" y="365" on="1"/>
        <pt x="549" y="365" on="1"/>
        <pt x="549" y="282" on="1"/>
        <pt x="394" y="282" on="1"/>
      </contour>
      <contour>
        <pt x="282" y="111" on="1"/>
        <pt x="282" y="520" on="1"/>
        <pt x="282" y="536" on="0"/>
        <pt x="270" y="547" on="0"/>
        <pt x="253" y="547" on="1"/>
        <pt x="200" y="547" on="1"/>
        <pt x="184" y="547" on="0"/>
        <pt x="172" y="536" on="0"/>
        <pt x="172" y="520" on="1"/>
        <pt x="172" y="111" on="1"/>
        <pt x="172" y="95" on="0"/>
        <pt x="184" y="84" on="0"/>
        <pt x="200" y="84" on="1"/>
        <pt x="253" y="84" on="1"/>
        <pt x="270" y="84" on="0"/>
        <pt x="282" y="95" on="0"/>
      </contour>
    </TTGlyph>
    <TTGlyph name="Oacute" xMin="44" yMin="0" xMax="384" yMax="800">
      <contour>
        <pt x="153" y="631" on="1"/>
        <pt x="275" y="631" on="1"/>
        <pt x="384" y="631" on="0"/>
        <pt x="384" y="532" on="1"/>
        <pt x="384" y="99" on="1"/>
        <pt x="384" y="0" on="0"/>
        <pt x="275" y="0" on="1"/>
        <pt x="153" y="0" on="1"/>
        <pt x="44" y="0" on="0"/>
        <pt x="44" y="99" on="1"/>
        <pt x="44" y="532" on="1"/>
        <pt x="44" y="631" on="0"/>
      </contour>
      <contour>
        <pt x="269" y="115" on="1"/>
        <pt x="269" y="516" on="1"/>
        <pt x="269" y="532" on="0"/>
        <pt x="257" y="543" on="0"/>
        <pt x="241" y="543" on="1"/>
        <pt x="188" y="543" on="1"/>
        <pt x="171" y="543" on="0"/>
        <pt x="159" y="532" on="0"/>
        <pt x="159" y="516" on="1"/>
        <pt x="159" y="115" on="1"/>
        <pt x="159" y="99" on="0"/>
        <pt x="171" y="88" on="0"/>
        <pt x="188" y="88" on="1"/>
        <pt x="241" y="88" on="1"/>
        <pt x="257" y="88" on="0"/>
        <pt x="269" y="99" on="0"/>
      </contour>
      <contour>
        <pt x="371" y="800" on="1"/>
        <pt x="258" y="663" on="1"/>
        <pt x="164" y="663" on="1"/>
        <pt x="250" y="800" on="1"/>
      </contour>
    </TTGlyph>
    <TTGlyph name="Ocircumflex" xMin="44" yMin="0" xMax="384" yMax="800">
      <contour>
        <pt x="153" y="631" on="1"/>
        <pt x="275" y="631" on="1"/>
        <pt x="384" y="631" on="0"/>
        <pt x="384" y="532" on="1"/>
        <pt x="384" y="99" on="1"/>
        <pt x="384" y="0" on="0"/>
        <pt x="275" y="0" on="1"/>
        <pt x="153" y="0" on="1"/>
        <pt x="44" y="0" on="0"/>
        <pt x="44" y="99" on="1"/>
        <pt x="44" y="532" on="1"/>
        <pt x="44" y="631" on="0"/>
      </contour>
      <contour>
        <pt x="269" y="115" on="1"/>
        <pt x="269" y="516" on="1"/>
        <pt x="269" y="532" on="0"/>
        <pt x="257" y="543" on="0"/>
        <pt x="241" y="543" on="1"/>
        <pt x="188" y="543" on="1"/>
        <pt x="171" y="543" on="0"/>
        <pt x="159" y="532" on="0"/>
        <pt x="159" y="516" on="1"/>
        <pt x="159" y="115" on="1"/>
        <pt x="159" y="99" on="0"/>
        <pt x="171" y="88" on="0"/>
        <pt x="188" y="88" on="1"/>
        <pt x="241" y="88" on="1"/>
        <pt x="257" y="88" on="0"/>
        <pt x="269" y="99" on="0"/>
      </contour>
      <contour>
        <pt x="212" y="740" on="1"/>
        <pt x="160" y="663" on="1"/>
        <pt x="48" y="663" on="1"/>
        <pt x="154" y="800" on="1"/>
        <pt x="271" y="800" on="1"/>
        <pt x="377" y="663" on="1"/>
        <pt x="265" y="663" on="1"/>
      </contour>
    </TTGlyph>
    <TTGlyph name="Odieresis" xMin="44" yMin="0" xMax="384" yMax="767">
      <contour>
        <pt x="153" y="631" on="1"/>
        <pt x="275" y="631" on="1"/>
        <pt x="384" y="631" on="0"/>
        <pt x="384" y="532" on="1"/>
        <pt x="384" y="99" on="1"/>
        <pt x="384" y="0" on="0"/>
        <pt x="275" y="0" on="1"/>
        <pt x="153" y="0" on="1"/>
        <pt x="44" y="0" on="0"/>
        <pt x="44" y="99" on="1"/>
        <pt x="44" y="532" on="1"/>
        <pt x="44" y="631" on="0"/>
      </contour>
      <contour>
        <pt x="269" y="115" on="1"/>
        <pt x="269" y="516" on="1"/>
        <pt x="269" y="532" on="0"/>
        <pt x="257" y="543" on="0"/>
        <pt x="241" y="543" on="1"/>
        <pt x="188" y="543" on="1"/>
        <pt x="171" y="543" on="0"/>
        <pt x="159" y="532" on="0"/>
        <pt x="159" y="516" on="1"/>
        <pt x="159" y="115" on="1"/>
        <pt x="159" y="99" on="0"/>
        <pt x="171" y="88" on="0"/>
        <pt x="188" y="88" on="1"/>
        <pt x="241" y="88" on="1"/>
        <pt x="257" y="88" on="0"/>
        <pt x="269" y="99" on="0"/>
      </contour>
      <contour>
        <pt x="170" y="767" on="1"/>
        <pt x="170" y="662" on="1"/>
        <pt x="54" y="662" on="1"/>
        <pt x="54" y="767" on="1"/>
      </contour>
      <contour>
        <pt x="374" y="767" on="1"/>
        <pt x="374" y="662" on="1"/>
        <pt x="258" y="662" on="1"/>
        <pt x="258" y="767" on="1"/>
      </contour>
    </TTGlyph>
    <TTGlyph name="Ograve" xMin="44" yMin="0" xMax="384" yMax="800">
      <contour>
        <pt x="153" y="631" on="1"/>
        <pt x="275" y="631" on="1"/>
        <pt x="384" y="631" on="0"/>
        <pt x="384" y="532" on="1"/>
        <pt x="384" y="99" on="1"/>
        <pt x="384" y="0" on="0"/>
        <pt x="275" y="0" on="1"/>
        <pt x="153" y="0" on="1"/>
        <pt x="44" y="0" on="0"/>
        <pt x="44" y="99" on="1"/>
        <pt x="44" y="532" on="1"/>
        <pt x="44" y="631" on="0"/>
      </contour>
      <contour>
        <pt x="269" y="115" on="1"/>
        <pt x="269" y="516" on="1"/>
        <pt x="269" y="532" on="0"/>
        <pt x="257" y="543" on="0"/>
        <pt x="241" y="543" on="1"/>
        <pt x="188" y="543" on="1"/>
        <pt x="171" y="543" on="0"/>
        <pt x="159" y="532" on="0"/>
        <pt x="159" y="516" on="1"/>
        <pt x="159" y="115" on="1"/>
        <pt x="159" y="99" on="0"/>
        <pt x="171" y="88" on="0"/>
        <pt x="188" y="88" on="1"/>
        <pt x="241" y="88" on="1"/>
        <pt x="257" y="88" on="0"/>
        <pt x="269" y="99" on="0"/>
      </contour>
      <contour>
        <pt x="254" y="663" on="1"/>
        <pt x="160" y="663" on="1"/>
        <pt x="47" y="800" on="1"/>
        <pt x="168" y="800" on="1"/>
      </contour>
    </TTGlyph>
    <TTGlyph name="Ohungarumlaut" xMin="44" yMin="0" xMax="437" yMax="799">
      <contour>
        <pt x="153" y="631" on="1"/>
        <pt x="275" y="631" on="1"/>
        <pt x="384" y="631" on="0"/>
        <pt x="384" y="532" on="1"/>
        <pt x="384" y="99" on="1"/>
        <pt x="384" y="0" on="0"/>
        <pt x="275" y="0" on="1"/>
        <pt x="153" y="0" on="1"/>
        <pt x="44" y="0" on="0"/>
        <pt x="44" y="99" on="1"/>
        <pt x="44" y="532" on="1"/>
        <pt x="44" y="631" on="0"/>
      </contour>
      <contour>
        <pt x="269" y="115" on="1"/>
        <pt x="269" y="516" on="1"/>
        <pt x="269" y="532" on="0"/>
        <pt x="257" y="543" on="0"/>
        <pt x="241" y="543" on="1"/>
        <pt x="188" y="543" on="1"/>
        <pt x="171" y="543" on="0"/>
        <pt x="159" y="532" on="0"/>
        <pt x="159" y="516" on="1"/>
        <pt x="159" y="115" on="1"/>
        <pt x="159" y="99" on="0"/>
        <pt x="171" y="88" on="0"/>
        <pt x="188" y="88" on="1"/>
        <pt x="241" y="88" on="1"/>
        <pt x="257" y="88" on="0"/>
        <pt x="269" y="99" on="0"/>
      </contour>
      <contour>
        <pt x="297" y="799" on="1"/>
        <pt x="184" y="662" on="1"/>
        <pt x="105" y="662" on="1"/>
        <pt x="191" y="799" on="1"/>
      </contour>
      <contour>
        <pt x="324" y="662" on="1"/>
        <pt x="245" y="662" on="1"/>
        <pt x="331" y="799" on="1"/>
        <pt x="437" y="799" on="1"/>
      </contour>
    </TTGlyph>
    <TTGlyph name="Omacron" xMin="44" yMin="0" xMax="384" yMax="741">
      <contour>
        <pt x="153" y="631" on="1"/>
        <pt x="275" y="631" on="1"/>
        <pt x="384" y="631" on="0"/>
        <pt x="384" y="532" on="1"/>
        <pt x="384" y="99" on="1"/>
        <pt x="384" y="0" on="0"/>
        <pt x="275" y="0" on="1"/>
        <pt x="153" y="0" on="1"/>
        <pt x="44" y="0" on="0"/>
        <pt x="44" y="99" on="1"/>
        <pt x="44" y="532" on="1"/>
        <pt x="44" y="631" on="0"/>
      </contour>
      <contour>
        <pt x="269" y="115" on="1"/>
        <pt x="269" y="516" on="1"/>
        <pt x="269" y="532" on="0"/>
        <pt x="257" y="543" on="0"/>
        <pt x="241" y="543" on="1"/>
        <pt x="188" y="543" on="1"/>
        <pt x="171" y="543" on="0"/>
        <pt x="159" y="532" on="0"/>
        <pt x="159" y="516" on="1"/>
        <pt x="159" y="115" on="1"/>
        <pt x="159" y="99" on="0"/>
        <pt x="171" y="88" on="0"/>
        <pt x="188" y="88" on="1"/>
        <pt x="241" y="88" on="1"/>
        <pt x="257" y="88" on="0"/>
        <pt x="269" y="99" on="0"/>
      </contour>
      <contour>
        <pt x="365" y="741" on="1"/>
        <pt x="365" y="662" on="1"/>
        <pt x="62" y="662" on="1"/>
        <pt x="62" y="741" on="1"/>
      </contour>
    </TTGlyph>
    <TTGlyph name="Oslash" xMin="44" yMin="-20" xMax="393" yMax="651">
      <contour>
        <pt x="387" y="532" on="1"/>
        <pt x="387" y="99" on="1"/>
        <pt x="387" y="0" on="0"/>
        <pt x="278" y="0" on="1"/>
        <pt x="156" y="0" on="1"/>
        <pt x="134" y="0" on="0"/>
        <pt x="114" y="5" on="1"/>
        <pt x="103" y="-20" on="1"/>
        <pt x="44" y="-20" on="1"/>
        <pt x="67" y="32" on="1"/>
        <pt x="47" y="56" on="0"/>
        <pt x="47" y="99" on="1"/>
        <pt x="47" y="532" on="1"/>
        <pt x="47" y="631" on="0"/>
        <pt x="156" y="631" on="1"/>
        <pt x="278" y="631" on="1"/>
        <pt x="302" y="631" on="0"/>
        <pt x="322" y="626" on="1"/>
        <pt x="333" y="651" on="1"/>
        <pt x="393" y="651" on="1"/>
        <pt x="369" y="596" on="1"/>
        <pt x="387" y="572" on="0"/>
      </contour>
      <contour>
        <pt x="157" y="522" on="1"/>
        <pt x="157" y="242" on="1"/>
        <pt x="277" y="521" on="1"/>
        <pt x="277" y="522" on="1"/>
        <pt x="277" y="538" on="0"/>
        <pt x="265" y="549" on="0"/>
        <pt x="248" y="549" on="1"/>
        <pt x="186" y="549" on="1"/>
        <pt x="169" y="549" on="0"/>
        <pt x="157" y="538" on="0"/>
      </contour>
      <contour>
        <pt x="277" y="109" on="1"/>
        <pt x="277" y="383" on="1"/>
        <pt x="157" y="105" on="1"/>
        <pt x="158" y="92" on="0"/>
        <pt x="170" y="82" on="0"/>
        <pt x="186" y="82" on="1"/>
        <pt x="248" y="82" on="1"/>
        <pt x="265" y="82" on="0"/>
        <pt x="277" y="93" on="0"/>
      </contour>
    </TTGlyph>
    <TTGlyph name="Otilde" xMin="44" yMin="0" xMax="384" yMax="780">
      <contour>
        <pt x="153" y="631" on="1"/>
        <pt x="275" y="631" on="1"/>
        <pt x="384" y="631" on="0"/>
        <pt x="384" y="532" on="1"/>
        <pt x="384" y="99" on="1"/>
        <pt x="384" y="0" on="0"/>
        <pt x="275" y="0" on="1"/>
        <pt x="153" y="0" on="1"/>
        <pt x="44" y="0" on="0"/>
        <pt x="44" y="99" on="1"/>
        <pt x="44" y="532" on="1"/>
        <pt x="44" y="631" on="0"/>
      </contour>
      <contour>
        <pt x="269" y="115" on="1"/>
        <pt x="269" y="516" on="1"/>
        <pt x="269" y="532" on="0"/>
        <pt x="257" y="543" on="0"/>
        <pt x="241" y="543" on="1"/>
        <pt x="188" y="543" on="1"/>
        <pt x="171" y="543" on="0"/>
        <pt x="159" y="532" on="0"/>
        <pt x="159" y="516" on="1"/>
        <pt x="159" y="115" on="1"/>
        <pt x="159" y="99" on="0"/>
        <pt x="171" y="88" on="0"/>
        <pt x="188" y="88" on="1"/>
        <pt x="241" y="88" on="1"/>
        <pt x="257" y="88" on="0"/>
        <pt x="269" y="99" on="0"/>
      </contour>
      <contour>
        <pt x="150" y="683" on="1"/>
        <pt x="150" y="663" on="1"/>
        <pt x="56" y="663" on="1"/>
        <pt x="56" y="695" on="1"/>
        <pt x="56" y="737" on="0"/>
        <pt x="94" y="780" on="0"/>
        <pt x="140" y="780" on="1"/>
        <pt x="152" y="780" on="1"/>
        <pt x="180" y="780" on="0"/>
        <pt x="249" y="737" on="0"/>
        <pt x="257" y="737" on="1"/>
        <pt x="275" y="737" on="0"/>
        <pt x="275" y="760" on="1"/>
        <pt x="275" y="780" on="1"/>
        <pt x="369" y="780" on="1"/>
        <pt x="369" y="745" on="1"/>
        <pt x="369" y="704" on="0"/>
        <pt x="331" y="663" on="0"/>
        <pt x="285" y="663" on="1"/>
        <pt x="275" y="663" on="1"/>
        <pt x="247" y="663" on="0"/>
        <pt x="176" y="706" on="0"/>
        <pt x="168" y="706" on="1"/>
        <pt x="150" y="706" on="0"/>
      </contour>
    </TTGlyph>
    <TTGlyph name="P" xMin="48" yMin="0" xMax="389" yMax="631">
      <contour>
        <pt x="48" y="631" on="1"/>
        <pt x="280" y="631" on="1"/>
        <pt x="389" y="631" on="0"/>
        <pt x="389" y="532" on="1"/>
        <pt x="389" y="331" on="1"/>
        <pt x="389" y="232" on="0"/>
        <pt x="280" y="232" on="1"/>
        <pt x="163" y="232" on="1"/>
        <pt x="163" y="0" on="1"/>
        <pt x="48" y="0" on="1"/>
      </contour>
      <contour>
        <pt x="274" y="347" on="1"/>
        <pt x="274" y="516" on="1"/>
        <pt x="274" y="532" on="0"/>
        <pt x="262" y="543" on="0"/>
        <pt x="246" y="543" on="1"/>
        <pt x="163" y="543" on="1"/>
        <pt x="163" y="320" on="1"/>
        <pt x="246" y="320" on="1"/>
        <pt x="262" y="320" on="0"/>
        <pt x="274" y="331" on="0"/>
      </contour>
    </TTGlyph>
    <TTGlyph name="Q" xMin="44" yMin="-84" xMax="411" yMax="631">
      <contour>
        <pt x="153" y="0" on="1"/>
        <pt x="44" y="0" on="0"/>
        <pt x="44" y="99" on="1"/>
        <pt x="44" y="532" on="1"/>
        <pt x="44" y="631" on="0"/>
        <pt x="153" y="631" on="1"/>
        <pt x="275" y="631" on="1"/>
        <pt x="384" y="631" on="0"/>
        <pt x="384" y="532" on="1"/>
        <pt x="384" y="99" on="1"/>
        <pt x="384" y="31" on="0"/>
        <pt x="334" y="10" on="1"/>
        <pt x="411" y="-84" on="1"/>
        <pt x="285" y="-84" on="1"/>
        <pt x="218" y="0" on="1"/>
      </contour>
      <contour>
        <pt x="159" y="516" on="1"/>
        <pt x="159" y="115" on="1"/>
        <pt x="159" y="99" on="0"/>
        <pt x="171" y="88" on="0"/>
        <pt x="188" y="88" on="1"/>
        <pt x="241" y="88" on="1"/>
        <pt x="257" y="88" on="0"/>
        <pt x="269" y="99" on="0"/>
        <pt x="269" y="115" on="1"/>
        <pt x="269" y="516" on="1"/>
        <pt x="269" y="532" on="0"/>
        <pt x="257" y="543" on="0"/>
        <pt x="241" y="543" on="1"/>
        <pt x="188" y="543" on="1"/>
        <pt x="171" y="543" on="0"/>
        <pt x="159" y="532" on="0"/>
      </contour>
    </TTGlyph>
    <TTGlyph name="R" xMin="48" yMin="0" xMax="421" yMax="631">
      <contour>
        <pt x="163" y="246" on="1"/>
        <pt x="163" y="0" on="1"/>
        <pt x="48" y="0" on="1"/>
        <pt x="48" y="631" on="1"/>
        <pt x="280" y="631" on="1"/>
        <pt x="389" y="631" on="0"/>
        <pt x="389" y="532" on="1"/>
        <pt x="389" y="345" on="1"/>
        <pt x="389" y="263" on="0"/>
        <pt x="316" y="249" on="1"/>
        <pt x="421" y="0" on="1"/>
        <pt x="297" y="0" on="1"/>
        <pt x="201" y="246" on="1"/>
      </contour>
      <contour>
        <pt x="163" y="543" on="1"/>
        <pt x="163" y="331" on="1"/>
        <pt x="246" y="331" on="1"/>
        <pt x="262" y="331" on="0"/>
        <pt x="274" y="342" on="0"/>
        <pt x="274" y="358" on="1"/>
        <pt x="274" y="516" on="1"/>
        <pt x="274" y="532" on="0"/>
        <pt x="262" y="543" on="0"/>
        <pt x="246" y="543" on="1"/>
      </contour>
    </TTGlyph>
    <TTGlyph name="Racute" xMin="48" yMin="0" xMax="421" yMax="799">
      <contour>
        <pt x="163" y="246" on="1"/>
        <pt x="163" y="0" on="1"/>
        <pt x="48" y="0" on="1"/>
        <pt x="48" y="631" on="1"/>
        <pt x="280" y="631" on="1"/>
        <pt x="389" y="631" on="0"/>
        <pt x="389" y="532" on="1"/>
        <pt x="389" y="345" on="1"/>
        <pt x="389" y="263" on="0"/>
        <pt x="316" y="249" on="1"/>
        <pt x="421" y="0" on="1"/>
        <pt x="297" y="0" on="1"/>
        <pt x="201" y="246" on="1"/>
      </contour>
      <contour>
        <pt x="163" y="543" on="1"/>
        <pt x="163" y="331" on="1"/>
        <pt x="246" y="331" on="1"/>
        <pt x="262" y="331" on="0"/>
        <pt x="274" y="342" on="0"/>
        <pt x="274" y="358" on="1"/>
        <pt x="274" y="516" on="1"/>
        <pt x="274" y="532" on="0"/>
        <pt x="262" y="543" on="0"/>
        <pt x="246" y="543" on="1"/>
      </contour>
      <contour>
        <pt x="367" y="799" on="1"/>
        <pt x="254" y="662" on="1"/>
        <pt x="160" y="662" on="1"/>
        <pt x="246" y="799" on="1"/>
      </contour>
    </TTGlyph>
    <TTGlyph name="Rcaron" xMin="48" yMin="0" xMax="421" yMax="799">
      <contour>
        <pt x="163" y="246" on="1"/>
        <pt x="163" y="0" on="1"/>
        <pt x="48" y="0" on="1"/>
        <pt x="48" y="631" on="1"/>
        <pt x="280" y="631" on="1"/>
        <pt x="389" y="631" on="0"/>
        <pt x="389" y="532" on="1"/>
        <pt x="389" y="345" on="1"/>
        <pt x="389" y="263" on="0"/>
        <pt x="316" y="249" on="1"/>
        <pt x="421" y="0" on="1"/>
        <pt x="297" y="0" on="1"/>
        <pt x="201" y="246" on="1"/>
      </contour>
      <contour>
        <pt x="163" y="543" on="1"/>
        <pt x="163" y="331" on="1"/>
        <pt x="246" y="331" on="1"/>
        <pt x="262" y="331" on="0"/>
        <pt x="274" y="342" on="0"/>
        <pt x="274" y="358" on="1"/>
        <pt x="274" y="516" on="1"/>
        <pt x="274" y="532" on="0"/>
        <pt x="262" y="543" on="0"/>
        <pt x="246" y="543" on="1"/>
      </contour>
      <contour>
        <pt x="271" y="662" on="1"/>
        <pt x="154" y="662" on="1"/>
        <pt x="48" y="799" on="1"/>
        <pt x="160" y="799" on="1"/>
        <pt x="212" y="722" on="1"/>
        <pt x="265" y="799" on="1"/>
        <pt x="377" y="799" on="1"/>
      </contour>
    </TTGlyph>
    <TTGlyph name="S" xMin="36" yMin="0" xMax="364" yMax="631">
      <contour>
        <pt x="248" y="115" on="1"/>
        <pt x="248" y="250" on="1"/>
        <pt x="248" y="266" on="0"/>
        <pt x="236" y="277" on="0"/>
        <pt x="220" y="277" on="1"/>
        <pt x="139" y="277" on="1"/>
        <pt x="36" y="277" on="0"/>
        <pt x="36" y="377" on="1"/>
        <pt x="36" y="532" on="1"/>
        <pt x="36" y="631" on="0"/>
        <pt x="144" y="631" on="1"/>
        <pt x="254" y="631" on="1"/>
        <pt x="362" y="631" on="0"/>
        <pt x="362" y="532" on="1"/>
        <pt x="362" y="444" on="1"/>
        <pt x="246" y="444" on="1"/>
        <pt x="246" y="516" on="1"/>
        <pt x="246" y="532" on="0"/>
        <pt x="234" y="543" on="0"/>
        <pt x="218" y="543" on="1"/>
        <pt x="180" y="543" on="1"/>
        <pt x="163" y="543" on="0"/>
        <pt x="151" y="532" on="0"/>
        <pt x="151" y="516" on="1"/>
        <pt x="151" y="389" on="1"/>
        <pt x="151" y="373" on="0"/>
        <pt x="163" y="362" on="0"/>
        <pt x="180" y="362" on="1"/>
        <pt x="259" y="362" on="1"/>
        <pt x="364" y="362" on="0"/>
        <pt x="364" y="264" on="1"/>
        <pt x="364" y="99" on="1"/>
        <pt x="364" y="0" on="0"/>
        <pt x="255" y="0" on="1"/>
        <pt x="147" y="0" on="1"/>
        <pt x="38" y="0" on="0"/>
        <pt x="38" y="99" on="1"/>
        <pt x="38" y="186" on="1"/>
        <pt x="153" y="186" on="1"/>
        <pt x="153" y="115" on="1"/>
        <pt x="153" y="99" on="0"/>
        <pt x="165" y="88" on="0"/>
        <pt x="182" y="88" on="1"/>
        <pt x="220" y="88" on="1"/>
        <pt x="236" y="88" on="0"/>
        <pt x="248" y="99" on="0"/>
      </contour>
    </TTGlyph>
    <TTGlyph name="Sacute" xMin="36" yMin="0" xMax="364" yMax="800">
      <contour>
        <pt x="248" y="115" on="1"/>
        <pt x="248" y="250" on="1"/>
        <pt x="248" y="266" on="0"/>
        <pt x="236" y="277" on="0"/>
        <pt x="220" y="277" on="1"/>
        <pt x="139" y="277" on="1"/>
        <pt x="36" y="277" on="0"/>
        <pt x="36" y="377" on="1"/>
        <pt x="36" y="532" on="1"/>
        <pt x="36" y="631" on="0"/>
        <pt x="144" y="631" on="1"/>
        <pt x="254" y="631" on="1"/>
        <pt x="362" y="631" on="0"/>
        <pt x="362" y="532" on="1"/>
        <pt x="362" y="444" on="1"/>
        <pt x="246" y="444" on="1"/>
        <pt x="246" y="516" on="1"/>
        <pt x="246" y="532" on="0"/>
        <pt x="234" y="543" on="0"/>
        <pt x="218" y="543" on="1"/>
        <pt x="180" y="543" on="1"/>
        <pt x="163" y="543" on="0"/>
        <pt x="151" y="532" on="0"/>
        <pt x="151" y="516" on="1"/>
        <pt x="151" y="389" on="1"/>
        <pt x="151" y="373" on="0"/>
        <pt x="163" y="362" on="0"/>
        <pt x="180" y="362" on="1"/>
        <pt x="259" y="362" on="1"/>
        <pt x="364" y="362" on="0"/>
        <pt x="364" y="264" on="1"/>
        <pt x="364" y="99" on="1"/>
        <pt x="364" y="0" on="0"/>
        <pt x="255" y="0" on="1"/>
        <pt x="147" y="0" on="1"/>
        <pt x="38" y="0" on="0"/>
        <pt x="38" y="99" on="1"/>
        <pt x="38" y="186" on="1"/>
        <pt x="153" y="186" on="1"/>
        <pt x="153" y="115" on="1"/>
        <pt x="153" y="99" on="0"/>
        <pt x="165" y="88" on="0"/>
        <pt x="182" y="88" on="1"/>
        <pt x="220" y="88" on="1"/>
        <pt x="236" y="88" on="0"/>
        <pt x="248" y="99" on="0"/>
      </contour>
      <contour>
        <pt x="156" y="663" on="1"/>
        <pt x="242" y="800" on="1"/>
        <pt x="363" y="800" on="1"/>
        <pt x="250" y="663" on="1"/>
      </contour>
    </TTGlyph>
    <TTGlyph name="Scaron" xMin="35" yMin="0" xMax="364" yMax="800">
      <contour>
        <pt x="248" y="115" on="1"/>
        <pt x="248" y="250" on="1"/>
        <pt x="248" y="266" on="0"/>
        <pt x="236" y="277" on="0"/>
        <pt x="220" y="277" on="1"/>
        <pt x="139" y="277" on="1"/>
        <pt x="36" y="277" on="0"/>
        <pt x="36" y="377" on="1"/>
        <pt x="36" y="532" on="1"/>
        <pt x="36" y="631" on="0"/>
        <pt x="144" y="631" on="1"/>
        <pt x="254" y="631" on="1"/>
        <pt x="362" y="631" on="0"/>
        <pt x="362" y="532" on="1"/>
        <pt x="362" y="444" on="1"/>
        <pt x="246" y="444" on="1"/>
        <pt x="246" y="516" on="1"/>
        <pt x="246" y="532" on="0"/>
        <pt x="234" y="543" on="0"/>
        <pt x="218" y="543" on="1"/>
        <pt x="180" y="543" on="1"/>
        <pt x="163" y="543" on="0"/>
        <pt x="151" y="532" on="0"/>
        <pt x="151" y="516" on="1"/>
        <pt x="151" y="389" on="1"/>
        <pt x="151" y="373" on="0"/>
        <pt x="163" y="362" on="0"/>
        <pt x="180" y="362" on="1"/>
        <pt x="259" y="362" on="1"/>
        <pt x="364" y="362" on="0"/>
        <pt x="364" y="264" on="1"/>
        <pt x="364" y="99" on="1"/>
        <pt x="364" y="0" on="0"/>
        <pt x="255" y="0" on="1"/>
        <pt x="147" y="0" on="1"/>
        <pt x="38" y="0" on="0"/>
        <pt x="38" y="99" on="1"/>
        <pt x="38" y="186" on="1"/>
        <pt x="153" y="186" on="1"/>
        <pt x="153" y="115" on="1"/>
        <pt x="153" y="99" on="0"/>
        <pt x="165" y="88" on="0"/>
        <pt x="182" y="88" on="1"/>
        <pt x="220" y="88" on="1"/>
        <pt x="236" y="88" on="0"/>
        <pt x="248" y="99" on="0"/>
      </contour>
      <contour>
        <pt x="141" y="663" on="1"/>
        <pt x="35" y="800" on="1"/>
        <pt x="147" y="800" on="1"/>
        <pt x="199" y="723" on="1"/>
        <pt x="252" y="800" on="1"/>
        <pt x="364" y="800" on="1"/>
        <pt x="258" y="663" on="1"/>
      </contour>
    </TTGlyph>
    <TTGlyph name="T" xMin="5" yMin="0" xMax="341" yMax="631">
      <contour>
        <pt x="341" y="631" on="1"/>
        <pt x="341" y="543" on="1"/>
        <pt x="230" y="543" on="1"/>
        <pt x="230" y="0" on="1"/>
        <pt x="115" y="0" on="1"/>
        <pt x="115" y="543" on="1"/>
        <pt x="5" y="543" on="1"/>
        <pt x="5" y="631" on="1"/>
      </contour>
    </TTGlyph>
    <TTGlyph name="Tcaron" xMin="5" yMin="0" xMax="341" yMax="800">
      <contour>
        <pt x="341" y="631" on="1"/>
        <pt x="341" y="543" on="1"/>
        <pt x="230" y="543" on="1"/>
        <pt x="230" y="0" on="1"/>
        <pt x="115" y="0" on="1"/>
        <pt x="115" y="543" on="1"/>
        <pt x="5" y="543" on="1"/>
        <pt x="5" y="631" on="1"/>
      </contour>
      <contour>
        <pt x="230" y="663" on="1"/>
        <pt x="113" y="663" on="1"/>
        <pt x="7" y="800" on="1"/>
        <pt x="119" y="800" on="1"/>
        <pt x="171" y="723" on="1"/>
        <pt x="224" y="800" on="1"/>
        <pt x="336" y="800" on="1"/>
      </contour>
    </TTGlyph>
    <TTGlyph name="Thorn" xMin="51" yMin="0" xMax="387" yMax="631">
      <contour>
        <pt x="166" y="510" on="1"/>
        <pt x="278" y="510" on="1"/>
        <pt x="387" y="510" on="0"/>
        <pt x="387" y="411" on="1"/>
        <pt x="387" y="219" on="1"/>
        <pt x="387" y="121" on="0"/>
        <pt x="278" y="121" on="1"/>
        <pt x="166" y="121" on="1"/>
        <pt x="166" y="0" on="1"/>
        <pt x="51" y="0" on="1"/>
        <pt x="51" y="631" on="1"/>
        <pt x="166" y="631" on="1"/>
      </contour>
      <contour>
        <pt x="272" y="233" on="1"/>
        <pt x="272" y="397" on="1"/>
        <pt x="272" y="413" on="0"/>
        <pt x="260" y="424" on="0"/>
        <pt x="244" y="424" on="1"/>
        <pt x="166" y="424" on="1"/>
        <pt x="166" y="206" on="1"/>
        <pt x="244" y="206" on="1"/>
        <pt x="260" y="206" on="0"/>
        <pt x="272" y="217" on="0"/>
      </contour>
    </TTGlyph>
    <TTGlyph name="U" xMin="47" yMin="0" xMax="387" yMax="631">
      <contour>
        <pt x="272" y="631" on="1"/>
        <pt x="387" y="631" on="1"/>
        <pt x="387" y="99" on="1"/>
        <pt x="387" y="0" on="0"/>
        <pt x="278" y="0" on="1"/>
        <pt x="156" y="0" on="1"/>
        <pt x="47" y="0" on="0"/>
        <pt x="47" y="99" on="1"/>
        <pt x="47" y="631" on="1"/>
        <pt x="162" y="631" on="1"/>
        <pt x="162" y="115" on="1"/>
        <pt x="162" y="99" on="0"/>
        <pt x="174" y="88" on="0"/>
        <pt x="190" y="88" on="1"/>
        <pt x="243" y="88" on="1"/>
        <pt x="260" y="88" on="0"/>
        <pt x="272" y="99" on="0"/>
        <pt x="272" y="115" on="1"/>
      </contour>
    </TTGlyph>
    <TTGlyph name="Uacute" xMin="47" yMin="0" xMax="387" yMax="800">
      <contour>
        <pt x="272" y="631" on="1"/>
        <pt x="387" y="631" on="1"/>
        <pt x="387" y="99" on="1"/>
        <pt x="387" y="0" on="0"/>
        <pt x="278" y="0" on="1"/>
        <pt x="156" y="0" on="1"/>
        <pt x="47" y="0" on="0"/>
        <pt x="47" y="99" on="1"/>
        <pt x="47" y="631" on="1"/>
        <pt x="162" y="631" on="1"/>
        <pt x="162" y="115" on="1"/>
        <pt x="162" y="99" on="0"/>
        <pt x="174" y="88" on="0"/>
        <pt x="190" y="88" on="1"/>
        <pt x="243" y="88" on="1"/>
        <pt x="260" y="88" on="0"/>
        <pt x="272" y="99" on="0"/>
        <pt x="272" y="115" on="1"/>
      </contour>
      <contour>
        <pt x="373" y="800" on="1"/>
        <pt x="260" y="663" on="1"/>
        <pt x="166" y="663" on="1"/>
        <pt x="252" y="800" on="1"/>
      </contour>
    </TTGlyph>
    <TTGlyph name="Ucircumflex" xMin="47" yMin="0" xMax="387" yMax="800">
      <contour>
        <pt x="272" y="631" on="1"/>
        <pt x="387" y="631" on="1"/>
        <pt x="387" y="99" on="1"/>
        <pt x="387" y="0" on="0"/>
        <pt x="278" y="0" on="1"/>
        <pt x="156" y="0" on="1"/>
        <pt x="47" y="0" on="0"/>
        <pt x="47" y="99" on="1"/>
        <pt x="47" y="631" on="1"/>
        <pt x="162" y="631" on="1"/>
        <pt x="162" y="115" on="1"/>
        <pt x="162" y="99" on="0"/>
        <pt x="174" y="88" on="0"/>
        <pt x="190" y="88" on="1"/>
        <pt x="243" y="88" on="1"/>
        <pt x="260" y="88" on="0"/>
        <pt x="272" y="99" on="0"/>
        <pt x="272" y="115" on="1"/>
      </contour>
      <contour>
        <pt x="216" y="740" on="1"/>
        <pt x="164" y="663" on="1"/>
        <pt x="52" y="663" on="1"/>
        <pt x="158" y="800" on="1"/>
        <pt x="275" y="800" on="1"/>
        <pt x="381" y="663" on="1"/>
        <pt x="269" y="663" on="1"/>
      </contour>
    </TTGlyph>
    <TTGlyph name="Udieresis" xMin="47" yMin="0" xMax="387" yMax="767">
      <contour>
        <pt x="272" y="631" on="1"/>
        <pt x="387" y="631" on="1"/>
        <pt x="387" y="99" on="1"/>
        <pt x="387" y="0" on="0"/>
        <pt x="278" y="0" on="1"/>
        <pt x="156" y="0" on="1"/>
        <pt x="47" y="0" on="0"/>
        <pt x="47" y="99" on="1"/>
        <pt x="47" y="631" on="1"/>
        <pt x="162" y="631" on="1"/>
        <pt x="162" y="115" on="1"/>
        <pt x="162" y="99" on="0"/>
        <pt x="174" y="88" on="0"/>
        <pt x="190" y="88" on="1"/>
        <pt x="243" y="88" on="1"/>
        <pt x="260" y="88" on="0"/>
        <pt x="272" y="99" on="0"/>
        <pt x="272" y="115" on="1"/>
      </contour>
      <contour>
        <pt x="172" y="767" on="1"/>
        <pt x="172" y="662" on="1"/>
        <pt x="56" y="662" on="1"/>
        <pt x="56" y="767" on="1"/>
      </contour>
      <contour>
        <pt x="376" y="767" on="1"/>
        <pt x="376" y="662" on="1"/>
        <pt x="260" y="662" on="1"/>
        <pt x="260" y="767" on="1"/>
      </contour>
    </TTGlyph>
    <TTGlyph name="Ugrave" xMin="47" yMin="0" xMax="387" yMax="800">
      <contour>
        <pt x="272" y="631" on="1"/>
        <pt x="387" y="631" on="1"/>
        <pt x="387" y="99" on="1"/>
        <pt x="387" y="0" on="0"/>
        <pt x="278" y="0" on="1"/>
        <pt x="156" y="0" on="1"/>
        <pt x="47" y="0" on="0"/>
        <pt x="47" y="99" on="1"/>
        <pt x="47" y="631" on="1"/>
        <pt x="162" y="631" on="1"/>
        <pt x="162" y="115" on="1"/>
        <pt x="162" y="99" on="0"/>
        <pt x="174" y="88" on="0"/>
        <pt x="190" y="88" on="1"/>
        <pt x="243" y="88" on="1"/>
        <pt x="260" y="88" on="0"/>
        <pt x="272" y="99" on="0"/>
        <pt x="272" y="115" on="1"/>
      </contour>
      <contour>
        <pt x="263" y="663" on="1"/>
        <pt x="169" y="663" on="1"/>
        <pt x="56" y="800" on="1"/>
        <pt x="177" y="800" on="1"/>
      </contour>
    </TTGlyph>
    <TTGlyph name="Uhungarumlaut" xMin="47" yMin="0" xMax="434" yMax="800">
      <contour>
        <pt x="272" y="115" on="1"/>
        <pt x="272" y="631" on="1"/>
        <pt x="387" y="631" on="1"/>
        <pt x="387" y="99" on="1"/>
        <pt x="387" y="0" on="0"/>
        <pt x="278" y="0" on="1"/>
        <pt x="156" y="0" on="1"/>
        <pt x="47" y="0" on="0"/>
        <pt x="47" y="99" on="1"/>
        <pt x="47" y="631" on="1"/>
        <pt x="162" y="631" on="1"/>
        <pt x="162" y="115" on="1"/>
        <pt x="162" y="99" on="0"/>
        <pt x="174" y="88" on="0"/>
        <pt x="190" y="88" on="1"/>
        <pt x="243" y="88" on="1"/>
        <pt x="260" y="88" on="0"/>
        <pt x="272" y="99" on="0"/>
      </contour>
      <contour>
        <pt x="294" y="800" on="1"/>
        <pt x="181" y="663" on="1"/>
        <pt x="102" y="663" on="1"/>
        <pt x="188" y="800" on="1"/>
      </contour>
      <contour>
        <pt x="321" y="663" on="1"/>
        <pt x="242" y="663" on="1"/>
        <pt x="328" y="800" on="1"/>
        <pt x="434" y="800" on="1"/>
      </contour>
    </TTGlyph>
    <TTGlyph name="Umacron" xMin="47" yMin="0" xMax="387" yMax="741">
      <contour>
        <pt x="272" y="631" on="1"/>
        <pt x="387" y="631" on="1"/>
        <pt x="387" y="99" on="1"/>
        <pt x="387" y="0" on="0"/>
        <pt x="278" y="0" on="1"/>
        <pt x="156" y="0" on="1"/>
        <pt x="47" y="0" on="0"/>
        <pt x="47" y="99" on="1"/>
        <pt x="47" y="631" on="1"/>
        <pt x="162" y="631" on="1"/>
        <pt x="162" y="115" on="1"/>
        <pt x="162" y="99" on="0"/>
        <pt x="174" y="88" on="0"/>
        <pt x="190" y="88" on="1"/>
        <pt x="243" y="88" on="1"/>
        <pt x="260" y="88" on="0"/>
        <pt x="272" y="99" on="0"/>
        <pt x="272" y="115" on="1"/>
      </contour>
      <contour>
        <pt x="369" y="741" on="1"/>
        <pt x="369" y="662" on="1"/>
        <pt x="66" y="662" on="1"/>
        <pt x="66" y="741" on="1"/>
      </contour>
    </TTGlyph>
    <TTGlyph name="Uogonek" xMin="47" yMin="-239" xMax="387" yMax="631">
      <contour>
        <pt x="272" y="631" on="1"/>
        <pt x="387" y="631" on="1"/>
        <pt x="387" y="99" on="1"/>
        <pt x="387" y="0" on="0"/>
        <pt x="278" y="0" on="1"/>
        <pt x="264" y="0" on="1"/>
        <pt x="264" y="-94" on="1"/>
        <pt x="198" y="-94" on="1"/>
        <pt x="182" y="-94" on="0"/>
        <pt x="171" y="-104" on="0"/>
        <pt x="171" y="-119" on="1"/>
        <pt x="171" y="-142" on="1"/>
        <pt x="171" y="-156" on="0"/>
        <pt x="182" y="-166" on="0"/>
        <pt x="198" y="-166" on="1"/>
        <pt x="282" y="-166" on="1"/>
        <pt x="282" y="-239" on="1"/>
        <pt x="180" y="-239" on="1"/>
        <pt x="130" y="-239" on="0"/>
        <pt x="85" y="-194" on="0"/>
        <pt x="85" y="-149" on="1"/>
        <pt x="85" y="-111" on="1"/>
        <pt x="85" y="-21" on="0"/>
        <pt x="180" y="-21" on="1"/>
        <pt x="187" y="-21" on="1"/>
        <pt x="187" y="0" on="1"/>
        <pt x="156" y="0" on="1"/>
        <pt x="47" y="0" on="0"/>
        <pt x="47" y="99" on="1"/>
        <pt x="47" y="631" on="1"/>
        <pt x="162" y="631" on="1"/>
        <pt x="162" y="115" on="1"/>
        <pt x="162" y="99" on="0"/>
        <pt x="174" y="88" on="0"/>
        <pt x="190" y="88" on="1"/>
        <pt x="243" y="88" on="1"/>
        <pt x="260" y="88" on="0"/>
        <pt x="272" y="99" on="0"/>
        <pt x="272" y="115" on="1"/>
      </contour>
    </TTGlyph>
    <TTGlyph name="Uring" xMin="47" yMin="0" xMax="387" yMax="830">
      <contour>
        <pt x="272" y="631" on="1"/>
        <pt x="387" y="631" on="1"/>
        <pt x="387" y="99" on="1"/>
        <pt x="387" y="0" on="0"/>
        <pt x="278" y="0" on="1"/>
        <pt x="156" y="0" on="1"/>
        <pt x="47" y="0" on="0"/>
        <pt x="47" y="99" on="1"/>
        <pt x="47" y="631" on="1"/>
        <pt x="162" y="631" on="1"/>
        <pt x="162" y="115" on="1"/>
        <pt x="162" y="99" on="0"/>
        <pt x="174" y="88" on="0"/>
        <pt x="190" y="88" on="1"/>
        <pt x="243" y="88" on="1"/>
        <pt x="260" y="88" on="0"/>
        <pt x="272" y="99" on="0"/>
        <pt x="272" y="115" on="1"/>
      </contour>
      <contour>
        <pt x="252" y="662" on="1"/>
        <pt x="180" y="662" on="1"/>
        <pt x="99" y="662" on="0"/>
        <pt x="99" y="737" on="1"/>
        <pt x="99" y="754" on="1"/>
        <pt x="99" y="830" on="0"/>
        <pt x="180" y="830" on="1"/>
        <pt x="252" y="830" on="1"/>
        <pt x="333" y="830" on="0"/>
        <pt x="333" y="754" on="1"/>
        <pt x="333" y="737" on="1"/>
        <pt x="333" y="662" on="0"/>
      </contour>
      <contour>
        <pt x="174" y="750" on="1"/>
        <pt x="174" y="741" on="1"/>
        <pt x="174" y="727" on="0"/>
        <pt x="184" y="718" on="0"/>
        <pt x="199" y="718" on="1"/>
        <pt x="233" y="718" on="1"/>
        <pt x="248" y="718" on="0"/>
        <pt x="258" y="727" on="0"/>
        <pt x="258" y="741" on="1"/>
        <pt x="258" y="750" on="1"/>
        <pt x="258" y="764" on="0"/>
        <pt x="248" y="774" on="0"/>
        <pt x="233" y="774" on="1"/>
        <pt x="199" y="774" on="1"/>
        <pt x="184" y="774" on="0"/>
        <pt x="174" y="764" on="0"/>
      </contour>
    </TTGlyph>
    <TTGlyph name="V" xMin="6" yMin="0" xMax="407" yMax="631">
      <contour>
        <pt x="289" y="631" on="1"/>
        <pt x="407" y="631" on="1"/>
        <pt x="282" y="0" on="1"/>
        <pt x="131" y="0" on="1"/>
        <pt x="6" y="631" on="1"/>
        <pt x="125" y="631" on="1"/>
        <pt x="206" y="121" on="1"/>
      </contour>
    </TTGlyph>
    <TTGlyph name="W" xMin="10" yMin="0" xMax="665" yMax="631">
      <contour>
        <pt x="551" y="631" on="1"/>
        <pt x="665" y="631" on="1"/>
        <pt x="554" y="0" on="1"/>
        <pt x="408" y="0" on="1"/>
        <pt x="337" y="445" on="1"/>
        <pt x="267" y="0" on="1"/>
        <pt x="121" y="0" on="1"/>
        <pt x="10" y="631" on="1"/>
        <pt x="129" y="631" on="1"/>
        <pt x="194" y="119" on="1"/>
        <pt x="277" y="631" on="1"/>
        <pt x="398" y="631" on="1"/>
        <pt x="480" y="119" on="1"/>
      </contour>
    </TTGlyph>
    <TTGlyph name="X" xMin="3" yMin="0" xMax="413" yMax="631">
      <contour>
        <pt x="269" y="322" on="1"/>
        <pt x="413" y="0" on="1"/>
        <pt x="285" y="0" on="1"/>
        <pt x="206" y="221" on="1"/>
        <pt x="126" y="0" on="1"/>
        <pt x="3" y="0" on="1"/>
        <pt x="142" y="322" on="1"/>
        <pt x="10" y="631" on="1"/>
        <pt x="139" y="631" on="1"/>
        <pt x="206" y="423" on="1"/>
        <pt x="273" y="631" on="1"/>
        <pt x="397" y="631" on="1"/>
      </contour>
    </TTGlyph>
    <TTGlyph name="Y" xMin="3" yMin="0" xMax="404" yMax="631">
      <contour>
        <pt x="265" y="0" on="1"/>
        <pt x="150" y="0" on="1"/>
        <pt x="150" y="200" on="1"/>
        <pt x="3" y="631" on="1"/>
        <pt x="120" y="631" on="1"/>
        <pt x="206" y="307" on="1"/>
        <pt x="287" y="631" on="1"/>
        <pt x="404" y="631" on="1"/>
        <pt x="265" y="203" on="1"/>
      </contour>
    </TTGlyph>
    <TTGlyph name="Yacute" xMin="3" yMin="0" xMax="404" yMax="800">
      <contour>
        <pt x="265" y="0" on="1"/>
        <pt x="150" y="0" on="1"/>
        <pt x="150" y="200" on="1"/>
        <pt x="3" y="631" on="1"/>
        <pt x="120" y="631" on="1"/>
        <pt x="206" y="307" on="1"/>
        <pt x="287" y="631" on="1"/>
        <pt x="404" y="631" on="1"/>
        <pt x="265" y="203" on="1"/>
      </contour>
      <contour>
        <pt x="362" y="800" on="1"/>
        <pt x="249" y="663" on="1"/>
        <pt x="155" y="663" on="1"/>
        <pt x="241" y="800" on="1"/>
      </contour>
    </TTGlyph>
    <TTGlyph name="Ydieresis" xMin="3" yMin="0" xMax="404" yMax="775">
      <contour>
        <pt x="265" y="0" on="1"/>
        <pt x="150" y="0" on="1"/>
        <pt x="150" y="200" on="1"/>
        <pt x="3" y="631" on="1"/>
        <pt x="120" y="631" on="1"/>
        <pt x="206" y="307" on="1"/>
        <pt x="287" y="631" on="1"/>
        <pt x="404" y="631" on="1"/>
        <pt x="265" y="203" on="1"/>
      </contour>
      <contour>
        <pt x="157" y="775" on="1"/>
        <pt x="157" y="670" on="1"/>
        <pt x="41" y="670" on="1"/>
        <pt x="41" y="775" on="1"/>
      </contour>
      <contour>
        <pt x="361" y="775" on="1"/>
        <pt x="361" y="670" on="1"/>
        <pt x="245" y="670" on="1"/>
        <pt x="245" y="775" on="1"/>
      </contour>
    </TTGlyph>
    <TTGlyph name="Z" xMin="12" yMin="0" xMax="345" yMax="631">
      <contour>
        <pt x="345" y="631" on="1"/>
        <pt x="345" y="543" on="1"/>
        <pt x="130" y="88" on="1"/>
        <pt x="340" y="88" on="1"/>
        <pt x="340" y="0" on="1"/>
        <pt x="12" y="0" on="1"/>
        <pt x="12" y="88" on="1"/>
        <pt x="227" y="543" on="1"/>
        <pt x="23" y="543" on="1"/>
        <pt x="23" y="631" on="1"/>
      </contour>
    </TTGlyph>
    <TTGlyph name="Zacute" xMin="12" yMin="0" xMax="345" yMax="800">
      <contour>
        <pt x="345" y="631" on="1"/>
        <pt x="345" y="543" on="1"/>
        <pt x="130" y="88" on="1"/>
        <pt x="340" y="88" on="1"/>
        <pt x="340" y="0" on="1"/>
        <pt x="12" y="0" on="1"/>
        <pt x="12" y="88" on="1"/>
        <pt x="227" y="543" on="1"/>
        <pt x="23" y="543" on="1"/>
        <pt x="23" y="631" on="1"/>
      </contour>
      <contour>
        <pt x="344" y="800" on="1"/>
        <pt x="231" y="663" on="1"/>
        <pt x="137" y="663" on="1"/>
        <pt x="223" y="800" on="1"/>
      </contour>
    </TTGlyph>
    <TTGlyph name="Zcaron" xMin="12" yMin="0" xMax="351" yMax="800">
      <contour>
        <pt x="23" y="543" on="1"/>
        <pt x="23" y="631" on="1"/>
        <pt x="345" y="631" on="1"/>
        <pt x="345" y="543" on="1"/>
        <pt x="130" y="88" on="1"/>
        <pt x="340" y="88" on="1"/>
        <pt x="340" y="0" on="1"/>
        <pt x="12" y="0" on="1"/>
        <pt x="12" y="88" on="1"/>
        <pt x="227" y="543" on="1"/>
      </contour>
      <contour>
        <pt x="245" y="663" on="1"/>
        <pt x="128" y="663" on="1"/>
        <pt x="22" y="800" on="1"/>
        <pt x="134" y="800" on="1"/>
        <pt x="186" y="723" on="1"/>
        <pt x="239" y="800" on="1"/>
        <pt x="351" y="800" on="1"/>
      </contour>
    </TTGlyph>
    <TTGlyph name="Zdotaccent" xMin="12" yMin="0" xMax="345" yMax="768">
      <contour>
        <pt x="345" y="631" on="1"/>
        <pt x="345" y="543" on="1"/>
        <pt x="130" y="88" on="1"/>
        <pt x="340" y="88" on="1"/>
        <pt x="340" y="0" on="1"/>
        <pt x="12" y="0" on="1"/>
        <pt x="12" y="88" on="1"/>
        <pt x="227" y="543" on="1"/>
        <pt x="23" y="543" on="1"/>
        <pt x="23" y="631" on="1"/>
      </contour>
      <contour>
        <pt x="249" y="768" on="1"/>
        <pt x="249" y="663" on="1"/>
        <pt x="127" y="663" on="1"/>
        <pt x="127" y="768" on="1"/>
      </contour>
    </TTGlyph>
    <TTGlyph name="a" xMin="36" yMin="0" xMax="352" yMax="491">
      <contour>
        <pt x="240" y="491" on="1"/>
        <pt x="352" y="491" on="1"/>
        <pt x="352" y="0" on="1"/>
        <pt x="238" y="0" on="1"/>
        <pt x="238" y="42" on="1"/>
        <pt x="223" y="0" on="0"/>
        <pt x="169" y="0" on="1"/>
        <pt x="138" y="0" on="1"/>
        <pt x="36" y="0" on="0"/>
        <pt x="36" y="99" on="1"/>
        <pt x="36" y="392" on="1"/>
        <pt x="36" y="491" on="0"/>
        <pt x="138" y="491" on="1"/>
        <pt x="169" y="491" on="1"/>
        <pt x="228" y="491" on="0"/>
        <pt x="240" y="443" on="1"/>
      </contour>
      <contour>
        <pt x="177" y="88" on="1"/>
        <pt x="207" y="88" on="1"/>
        <pt x="238" y="88" on="0"/>
        <pt x="238" y="121" on="1"/>
        <pt x="238" y="370" on="1"/>
        <pt x="238" y="403" on="0"/>
        <pt x="207" y="403" on="1"/>
        <pt x="177" y="403" on="1"/>
        <pt x="161" y="403" on="0"/>
        <pt x="149" y="392" on="0"/>
        <pt x="149" y="376" on="1"/>
        <pt x="149" y="115" on="1"/>
        <pt x="149" y="99" on="0"/>
        <pt x="161" y="88" on="0"/>
      </contour>
    </TTGlyph>
    <TTGlyph name="aacute" xMin="36" yMin="0" xMax="362" yMax="660">
      <contour>
        <pt x="240" y="491" on="1"/>
        <pt x="352" y="491" on="1"/>
        <pt x="352" y="0" on="1"/>
        <pt x="238" y="0" on="1"/>
        <pt x="238" y="42" on="1"/>
        <pt x="223" y="0" on="0"/>
        <pt x="169" y="0" on="1"/>
        <pt x="138" y="0" on="1"/>
        <pt x="36" y="0" on="0"/>
        <pt x="36" y="99" on="1"/>
        <pt x="36" y="392" on="1"/>
        <pt x="36" y="491" on="0"/>
        <pt x="138" y="491" on="1"/>
        <pt x="169" y="491" on="1"/>
        <pt x="228" y="491" on="0"/>
        <pt x="240" y="443" on="1"/>
      </contour>
      <contour>
        <pt x="177" y="88" on="1"/>
        <pt x="207" y="88" on="1"/>
        <pt x="238" y="88" on="0"/>
        <pt x="238" y="121" on="1"/>
        <pt x="238" y="370" on="1"/>
        <pt x="238" y="403" on="0"/>
        <pt x="207" y="403" on="1"/>
        <pt x="177" y="403" on="1"/>
        <pt x="161" y="403" on="0"/>
        <pt x="149" y="392" on="0"/>
        <pt x="149" y="376" on="1"/>
        <pt x="149" y="115" on="1"/>
        <pt x="149" y="99" on="0"/>
        <pt x="161" y="88" on="0"/>
      </contour>
      <contour>
        <pt x="362" y="660" on="1"/>
        <pt x="249" y="523" on="1"/>
        <pt x="155" y="523" on="1"/>
        <pt x="241" y="660" on="1"/>
      </contour>
    </TTGlyph>
    <TTGlyph name="abreve" xMin="36" yMin="0" xMax="364" yMax="660">
      <contour>
        <pt x="262" y="660" on="1"/>
        <pt x="364" y="660" on="1"/>
        <pt x="364" y="622" on="1"/>
        <pt x="364" y="523" on="0"/>
        <pt x="256" y="523" on="1"/>
        <pt x="154" y="523" on="1"/>
        <pt x="46" y="523" on="0"/>
        <pt x="46" y="622" on="1"/>
        <pt x="46" y="660" on="1"/>
        <pt x="148" y="660" on="1"/>
        <pt x="148" y="623" on="1"/>
        <pt x="148" y="607" on="0"/>
        <pt x="160" y="596" on="0"/>
        <pt x="177" y="596" on="1"/>
        <pt x="233" y="596" on="1"/>
        <pt x="250" y="596" on="0"/>
        <pt x="262" y="607" on="0"/>
        <pt x="262" y="623" on="1"/>
      </contour>
      <contour>
        <pt x="240" y="491" on="1"/>
        <pt x="352" y="491" on="1"/>
        <pt x="352" y="0" on="1"/>
        <pt x="238" y="0" on="1"/>
        <pt x="238" y="42" on="1"/>
        <pt x="223" y="0" on="0"/>
        <pt x="169" y="0" on="1"/>
        <pt x="138" y="0" on="1"/>
        <pt x="36" y="0" on="0"/>
        <pt x="36" y="99" on="1"/>
        <pt x="36" y="392" on="1"/>
        <pt x="36" y="491" on="0"/>
        <pt x="138" y="491" on="1"/>
        <pt x="169" y="491" on="1"/>
        <pt x="228" y="491" on="0"/>
        <pt x="240" y="443" on="1"/>
      </contour>
      <contour>
        <pt x="177" y="88" on="1"/>
        <pt x="207" y="88" on="1"/>
        <pt x="238" y="88" on="0"/>
        <pt x="238" y="121" on="1"/>
        <pt x="238" y="370" on="1"/>
        <pt x="238" y="403" on="0"/>
        <pt x="207" y="403" on="1"/>
        <pt x="177" y="403" on="1"/>
        <pt x="161" y="403" on="0"/>
        <pt x="149" y="392" on="0"/>
        <pt x="149" y="376" on="1"/>
        <pt x="149" y="115" on="1"/>
        <pt x="149" y="99" on="0"/>
        <pt x="161" y="88" on="0"/>
      </contour>
    </TTGlyph>
    <TTGlyph name="acircumflex" xMin="35" yMin="0" xMax="364" yMax="660">
      <contour>
        <pt x="240" y="491" on="1"/>
        <pt x="352" y="491" on="1"/>
        <pt x="352" y="0" on="1"/>
        <pt x="238" y="0" on="1"/>
        <pt x="238" y="42" on="1"/>
        <pt x="223" y="0" on="0"/>
        <pt x="169" y="0" on="1"/>
        <pt x="138" y="0" on="1"/>
        <pt x="36" y="0" on="0"/>
        <pt x="36" y="99" on="1"/>
        <pt x="36" y="392" on="1"/>
        <pt x="36" y="491" on="0"/>
        <pt x="138" y="491" on="1"/>
        <pt x="169" y="491" on="1"/>
        <pt x="228" y="491" on="0"/>
        <pt x="240" y="443" on="1"/>
      </contour>
      <contour>
        <pt x="177" y="88" on="1"/>
        <pt x="207" y="88" on="1"/>
        <pt x="238" y="88" on="0"/>
        <pt x="238" y="121" on="1"/>
        <pt x="238" y="370" on="1"/>
        <pt x="238" y="403" on="0"/>
        <pt x="207" y="403" on="1"/>
        <pt x="177" y="403" on="1"/>
        <pt x="161" y="403" on="0"/>
        <pt x="149" y="392" on="0"/>
        <pt x="149" y="376" on="1"/>
        <pt x="149" y="115" on="1"/>
        <pt x="149" y="99" on="0"/>
        <pt x="161" y="88" on="0"/>
      </contour>
      <contour>
        <pt x="199" y="600" on="1"/>
        <pt x="147" y="523" on="1"/>
        <pt x="35" y="523" on="1"/>
        <pt x="141" y="660" on="1"/>
        <pt x="258" y="660" on="1"/>
        <pt x="364" y="523" on="1"/>
        <pt x="252" y="523" on="1"/>
      </contour>
    </TTGlyph>
    <TTGlyph name="acute" xMin="117" yMin="523" xMax="324" yMax="660">
      <contour>
        <pt x="117" y="523" on="1"/>
        <pt x="203" y="660" on="1"/>
        <pt x="324" y="660" on="1"/>
        <pt x="211" y="523" on="1"/>
      </contour>
    </TTGlyph>
    <TTGlyph name="adieresis" xMin="36" yMin="0" xMax="360" yMax="646">
      <contour>
        <pt x="244" y="646" on="1"/>
        <pt x="360" y="646" on="1"/>
        <pt x="360" y="541" on="1"/>
        <pt x="244" y="541" on="1"/>
      </contour>
      <contour>
        <pt x="240" y="491" on="1"/>
        <pt x="352" y="491" on="1"/>
        <pt x="352" y="0" on="1"/>
        <pt x="238" y="0" on="1"/>
        <pt x="238" y="42" on="1"/>
        <pt x="223" y="0" on="0"/>
        <pt x="169" y="0" on="1"/>
        <pt x="138" y="0" on="1"/>
        <pt x="36" y="0" on="0"/>
        <pt x="36" y="99" on="1"/>
        <pt x="36" y="392" on="1"/>
        <pt x="36" y="491" on="0"/>
        <pt x="138" y="491" on="1"/>
        <pt x="169" y="491" on="1"/>
        <pt x="228" y="491" on="0"/>
        <pt x="240" y="443" on="1"/>
      </contour>
      <contour>
        <pt x="177" y="88" on="1"/>
        <pt x="207" y="88" on="1"/>
        <pt x="238" y="88" on="0"/>
        <pt x="238" y="121" on="1"/>
        <pt x="238" y="370" on="1"/>
        <pt x="238" y="403" on="0"/>
        <pt x="207" y="403" on="1"/>
        <pt x="177" y="403" on="1"/>
        <pt x="161" y="403" on="0"/>
        <pt x="149" y="392" on="0"/>
        <pt x="149" y="376" on="1"/>
        <pt x="149" y="115" on="1"/>
        <pt x="149" y="99" on="0"/>
        <pt x="161" y="88" on="0"/>
      </contour>
      <contour>
        <pt x="156" y="646" on="1"/>
        <pt x="156" y="541" on="1"/>
        <pt x="40" y="541" on="1"/>
        <pt x="40" y="646" on="1"/>
      </contour>
    </TTGlyph>
    <TTGlyph name="ae" xMin="41" yMin="0" xMax="566" yMax="491">
      <contour>
        <pt x="559" y="211" on="1"/>
        <pt x="354" y="211" on="1"/>
        <pt x="354" y="113" on="1"/>
        <pt x="354" y="97" on="0"/>
        <pt x="366" y="86" on="0"/>
        <pt x="383" y="86" on="1"/>
        <pt x="425" y="86" on="1"/>
        <pt x="441" y="86" on="0"/>
        <pt x="453" y="97" on="0"/>
        <pt x="453" y="113" on="1"/>
        <pt x="453" y="149" on="1"/>
        <pt x="565" y="149" on="1"/>
        <pt x="565" y="99" on="1"/>
        <pt x="565" y="0" on="0"/>
        <pt x="456" y="0" on="1"/>
        <pt x="383" y="0" on="1"/>
        <pt x="316" y="0" on="0"/>
        <pt x="295" y="46" on="1"/>
        <pt x="287" y="26" on="0"/>
        <pt x="242" y="0" on="0"/>
        <pt x="213" y="0" on="1"/>
        <pt x="143" y="0" on="1"/>
        <pt x="41" y="0" on="0"/>
        <pt x="41" y="99" on="1"/>
        <pt x="41" y="204" on="1"/>
        <pt x="243" y="287" on="1"/>
        <pt x="243" y="373" on="1"/>
        <pt x="242" y="403" on="0"/>
        <pt x="212" y="403" on="1"/>
        <pt x="182" y="403" on="1"/>
        <pt x="166" y="403" on="0"/>
        <pt x="154" y="392" on="0"/>
        <pt x="154" y="376" on="1"/>
        <pt x="154" y="311" on="1"/>
        <pt x="41" y="311" on="1"/>
        <pt x="41" y="392" on="1"/>
        <pt x="41" y="491" on="0"/>
        <pt x="143" y="491" on="1"/>
        <pt x="213" y="491" on="1"/>
        <pt x="242" y="491" on="0"/>
        <pt x="287" y="465" on="0"/>
        <pt x="295" y="445" on="1"/>
        <pt x="316" y="491" on="0"/>
        <pt x="384" y="491" on="1"/>
        <pt x="457" y="491" on="1"/>
        <pt x="566" y="491" on="0"/>
        <pt x="566" y="392" on="1"/>
        <pt x="566" y="221" on="1"/>
        <pt x="559" y="221" on="1"/>
      </contour>
      <contour>
        <pt x="427" y="405" on="1"/>
        <pt x="383" y="405" on="1"/>
        <pt x="366" y="405" on="0"/>
        <pt x="354" y="394" on="0"/>
        <pt x="354" y="378" on="1"/>
        <pt x="354" y="288" on="1"/>
        <pt x="455" y="288" on="1"/>
        <pt x="455" y="378" on="1"/>
        <pt x="455" y="394" on="0"/>
        <pt x="443" y="405" on="0"/>
      </contour>
      <contour>
        <pt x="182" y="88" on="1"/>
        <pt x="212" y="88" on="1"/>
        <pt x="242" y="88" on="0"/>
        <pt x="243" y="118" on="1"/>
        <pt x="243" y="206" on="1"/>
        <pt x="154" y="170" on="1"/>
        <pt x="154" y="115" on="1"/>
        <pt x="154" y="99" on="0"/>
        <pt x="166" y="88" on="0"/>
      </contour>
    </TTGlyph>
    <TTGlyph name="agrave" xMin="36" yMin="0" xMax="352" yMax="660">
      <contour>
        <pt x="240" y="491" on="1"/>
        <pt x="352" y="491" on="1"/>
        <pt x="352" y="0" on="1"/>
        <pt x="238" y="0" on="1"/>
        <pt x="238" y="42" on="1"/>
        <pt x="223" y="0" on="0"/>
        <pt x="169" y="0" on="1"/>
        <pt x="138" y="0" on="1"/>
        <pt x="36" y="0" on="0"/>
        <pt x="36" y="99" on="1"/>
        <pt x="36" y="392" on="1"/>
        <pt x="36" y="491" on="0"/>
        <pt x="138" y="491" on="1"/>
        <pt x="169" y="491" on="1"/>
        <pt x="228" y="491" on="0"/>
        <pt x="240" y="443" on="1"/>
      </contour>
      <contour>
        <pt x="177" y="88" on="1"/>
        <pt x="207" y="88" on="1"/>
        <pt x="238" y="88" on="0"/>
        <pt x="238" y="121" on="1"/>
        <pt x="238" y="370" on="1"/>
        <pt x="238" y="403" on="0"/>
        <pt x="207" y="403" on="1"/>
        <pt x="177" y="403" on="1"/>
        <pt x="161" y="403" on="0"/>
        <pt x="149" y="392" on="0"/>
        <pt x="149" y="376" on="1"/>
        <pt x="149" y="115" on="1"/>
        <pt x="149" y="99" on="0"/>
        <pt x="161" y="88" on="0"/>
      </contour>
      <contour>
        <pt x="271" y="523" on="1"/>
        <pt x="177" y="523" on="1"/>
        <pt x="64" y="660" on="1"/>
        <pt x="185" y="660" on="1"/>
      </contour>
    </TTGlyph>
    <TTGlyph name="amacron" xMin="36" yMin="0" xMax="352" yMax="631">
      <contour>
        <pt x="240" y="491" on="1"/>
        <pt x="352" y="491" on="1"/>
        <pt x="352" y="0" on="1"/>
        <pt x="238" y="0" on="1"/>
        <pt x="238" y="42" on="1"/>
        <pt x="223" y="0" on="0"/>
        <pt x="169" y="0" on="1"/>
        <pt x="138" y="0" on="1"/>
        <pt x="36" y="0" on="0"/>
        <pt x="36" y="99" on="1"/>
        <pt x="36" y="392" on="1"/>
        <pt x="36" y="491" on="0"/>
        <pt x="138" y="491" on="1"/>
        <pt x="169" y="491" on="1"/>
        <pt x="228" y="491" on="0"/>
        <pt x="240" y="443" on="1"/>
      </contour>
      <contour>
        <pt x="177" y="88" on="1"/>
        <pt x="207" y="88" on="1"/>
        <pt x="238" y="88" on="0"/>
        <pt x="238" y="121" on="1"/>
        <pt x="238" y="370" on="1"/>
        <pt x="238" y="403" on="0"/>
        <pt x="207" y="403" on="1"/>
        <pt x="177" y="403" on="1"/>
        <pt x="161" y="403" on="0"/>
        <pt x="149" y="392" on="0"/>
        <pt x="149" y="376" on="1"/>
        <pt x="149" y="115" on="1"/>
        <pt x="149" y="99" on="0"/>
        <pt x="161" y="88" on="0"/>
      </contour>
      <contour>
        <pt x="346" y="631" on="1"/>
        <pt x="346" y="552" on="1"/>
        <pt x="43" y="552" on="1"/>
        <pt x="43" y="631" on="1"/>
      </contour>
    </TTGlyph>
    <TTGlyph name="ampersand" xMin="36" yMin="-35" xMax="557" yMax="631">
      <contour>
        <pt x="369" y="0" on="1"/>
        <pt x="145" y="0" on="1"/>
        <pt x="36" y="0" on="0"/>
        <pt x="36" y="99" on="1"/>
        <pt x="36" y="189" on="1"/>
        <pt x="36" y="227" on="0"/>
        <pt x="66" y="272" on="0"/>
        <pt x="106" y="296" on="1"/>
        <pt x="132" y="314" on="1"/>
        <pt x="108" y="343" on="0"/>
        <pt x="96" y="360" on="1"/>
        <pt x="63" y="405" on="0"/>
        <pt x="63" y="444" on="1"/>
        <pt x="63" y="532" on="1"/>
        <pt x="63" y="631" on="0"/>
        <pt x="172" y="631" on="1"/>
        <pt x="275" y="631" on="1"/>
        <pt x="382" y="631" on="0"/>
        <pt x="382" y="532" on="1"/>
        <pt x="382" y="447" on="1"/>
        <pt x="382" y="395" on="0"/>
        <pt x="362" y="366" on="1"/>
        <pt x="341" y="334" on="0"/>
        <pt x="276" y="294" on="1"/>
        <pt x="389" y="161" on="1"/>
        <pt x="389" y="236" on="1"/>
        <pt x="481" y="236" on="1"/>
        <pt x="481" y="99" on="1"/>
        <pt x="481" y="78" on="0"/>
        <pt x="475" y="60" on="1"/>
        <pt x="557" y="-35" on="1"/>
        <pt x="439" y="-35" on="1"/>
        <pt x="405" y="3" on="1"/>
        <pt x="388" y="0" on="0"/>
      </contour>
      <contour>
        <pt x="176" y="521" on="1"/>
        <pt x="176" y="438" on="1"/>
        <pt x="176" y="408" on="0"/>
        <pt x="212" y="367" on="1"/>
        <pt x="248" y="391" on="0"/>
        <pt x="271" y="420" on="0"/>
        <pt x="271" y="445" on="1"/>
        <pt x="271" y="521" on="1"/>
        <pt x="271" y="537" on="0"/>
        <pt x="260" y="548" on="0"/>
        <pt x="243" y="548" on="1"/>
        <pt x="204" y="548" on="1"/>
        <pt x="187" y="548" on="0"/>
        <pt x="176" y="537" on="0"/>
      </contour>
      <contour>
        <pt x="175" y="84" on="1"/>
        <pt x="334" y="84" on="1"/>
        <pt x="195" y="242" on="1"/>
        <pt x="159" y="220" on="0"/>
        <pt x="146" y="198" on="0"/>
        <pt x="146" y="178" on="1"/>
        <pt x="146" y="111" on="1"/>
        <pt x="146" y="95" on="0"/>
        <pt x="158" y="84" on="0"/>
      </contour>
    </TTGlyph>
    <TTGlyph name="aogonek" xMin="36" yMin="-239" xMax="370" yMax="491">
      <contour>
        <pt x="286" y="-166" on="1"/>
        <pt x="370" y="-166" on="1"/>
        <pt x="370" y="-239" on="1"/>
        <pt x="268" y="-239" on="1"/>
        <pt x="218" y="-239" on="0"/>
        <pt x="173" y="-194" on="0"/>
        <pt x="173" y="-149" on="1"/>
        <pt x="173" y="-111" on="1"/>
        <pt x="173" y="-21" on="0"/>
        <pt x="268" y="-21" on="1"/>
        <pt x="275" y="-21" on="1"/>
        <pt x="275" y="0" on="1"/>
        <pt x="238" y="0" on="1"/>
        <pt x="238" y="42" on="1"/>
        <pt x="223" y="0" on="0"/>
        <pt x="169" y="0" on="1"/>
        <pt x="138" y="0" on="1"/>
        <pt x="36" y="0" on="0"/>
        <pt x="36" y="99" on="1"/>
        <pt x="36" y="392" on="1"/>
        <pt x="36" y="491" on="0"/>
        <pt x="138" y="491" on="1"/>
        <pt x="169" y="491" on="1"/>
        <pt x="228" y="491" on="0"/>
        <pt x="240" y="443" on="1"/>
        <pt x="240" y="491" on="1"/>
        <pt x="352" y="491" on="1"/>
        <pt x="352" y="-94" on="1"/>
        <pt x="286" y="-94" on="1"/>
        <pt x="270" y="-94" on="0"/>
        <pt x="259" y="-104" on="0"/>
        <pt x="259" y="-119" on="1"/>
        <pt x="259" y="-142" on="1"/>
        <pt x="259" y="-156" on="0"/>
        <pt x="270" y="-166" on="0"/>
      </contour>
      <contour>
        <pt x="177" y="88" on="1"/>
        <pt x="207" y="88" on="1"/>
        <pt x="238" y="88" on="0"/>
        <pt x="238" y="121" on="1"/>
        <pt x="238" y="370" on="1"/>
        <pt x="238" y="403" on="0"/>
        <pt x="207" y="403" on="1"/>
        <pt x="177" y="403" on="1"/>
        <pt x="161" y="403" on="0"/>
        <pt x="149" y="392" on="0"/>
        <pt x="149" y="376" on="1"/>
        <pt x="149" y="115" on="1"/>
        <pt x="149" y="99" on="0"/>
        <pt x="161" y="88" on="0"/>
      </contour>
    </TTGlyph>
    <TTGlyph name="approxequal" xMin="40" yMin="182" xMax="472" yMax="513">
      <contour>
        <pt x="336" y="182" on="1"/>
        <pt x="300" y="182" on="0"/>
        <pt x="244" y="218" on="0"/>
        <pt x="197" y="253" on="0"/>
        <pt x="156" y="253" on="0"/>
        <pt x="144" y="238" on="0"/>
        <pt x="144" y="220" on="1"/>
        <pt x="144" y="183" on="1"/>
        <pt x="40" y="183" on="1"/>
        <pt x="40" y="245" on="1"/>
        <pt x="40" y="289" on="0"/>
        <pt x="83" y="331" on="0"/>
        <pt x="132" y="331" on="1"/>
        <pt x="177" y="331" on="1"/>
        <pt x="205" y="331" on="0"/>
        <pt x="254" y="309" on="0"/>
        <pt x="268" y="296" on="1"/>
        <pt x="305" y="260" on="0"/>
        <pt x="341" y="260" on="1"/>
        <pt x="358" y="260" on="0"/>
        <pt x="368" y="275" on="0"/>
        <pt x="368" y="294" on="1"/>
        <pt x="368" y="331" on="1"/>
        <pt x="472" y="331" on="1"/>
        <pt x="472" y="269" on="1"/>
        <pt x="472" y="226" on="0"/>
        <pt x="429" y="182" on="0"/>
        <pt x="380" y="182" on="1"/>
      </contour>
      <contour>
        <pt x="336" y="364" on="1"/>
        <pt x="300" y="364" on="0"/>
        <pt x="244" y="400" on="0"/>
        <pt x="197" y="435" on="0"/>
        <pt x="156" y="435" on="0"/>
        <pt x="144" y="419" on="0"/>
        <pt x="144" y="401" on="1"/>
        <pt x="144" y="364" on="1"/>
        <pt x="40" y="364" on="1"/>
        <pt x="40" y="426" on="1"/>
        <pt x="40" y="470" on="0"/>
        <pt x="84" y="513" on="0"/>
        <pt x="132" y="513" on="1"/>
        <pt x="177" y="513" on="1"/>
        <pt x="205" y="513" on="0"/>
        <pt x="254" y="491" on="0"/>
        <pt x="268" y="478" on="1"/>
        <pt x="305" y="442" on="0"/>
        <pt x="341" y="442" on="1"/>
        <pt x="358" y="442" on="0"/>
        <pt x="368" y="457" on="0"/>
        <pt x="368" y="476" on="1"/>
        <pt x="368" y="512" on="1"/>
        <pt x="472" y="512" on="1"/>
        <pt x="472" y="450" on="1"/>
        <pt x="472" y="407" on="0"/>
        <pt x="429" y="364" on="0"/>
        <pt x="380" y="364" on="1"/>
      </contour>
    </TTGlyph>
    <TTGlyph name="aring" xMin="36" yMin="0" xMax="352" yMax="697">
      <contour>
        <pt x="240" y="491" on="1"/>
        <pt x="352" y="491" on="1"/>
        <pt x="352" y="0" on="1"/>
        <pt x="238" y="0" on="1"/>
        <pt x="238" y="42" on="1"/>
        <pt x="223" y="0" on="0"/>
        <pt x="169" y="0" on="1"/>
        <pt x="138" y="0" on="1"/>
        <pt x="36" y="0" on="0"/>
        <pt x="36" y="99" on="1"/>
        <pt x="36" y="392" on="1"/>
        <pt x="36" y="491" on="0"/>
        <pt x="138" y="491" on="1"/>
        <pt x="169" y="491" on="1"/>
        <pt x="228" y="491" on="0"/>
        <pt x="240" y="443" on="1"/>
      </contour>
      <contour>
        <pt x="177" y="88" on="1"/>
        <pt x="207" y="88" on="1"/>
        <pt x="238" y="88" on="0"/>
        <pt x="238" y="121" on="1"/>
        <pt x="238" y="370" on="1"/>
        <pt x="238" y="403" on="0"/>
        <pt x="207" y="403" on="1"/>
        <pt x="177" y="403" on="1"/>
        <pt x="161" y="403" on="0"/>
        <pt x="149" y="392" on="0"/>
        <pt x="149" y="376" on="1"/>
        <pt x="149" y="115" on="1"/>
        <pt x="149" y="99" on="0"/>
        <pt x="161" y="88" on="0"/>
      </contour>
      <contour>
        <pt x="236" y="529" on="1"/>
        <pt x="164" y="529" on="1"/>
        <pt x="83" y="529" on="0"/>
        <pt x="83" y="604" on="1"/>
        <pt x="83" y="621" on="1"/>
        <pt x="83" y="697" on="0"/>
        <pt x="164" y="697" on="1"/>
        <pt x="236" y="697" on="1"/>
        <pt x="317" y="697" on="0"/>
        <pt x="317" y="621" on="1"/>
        <pt x="317" y="604" on="1"/>
        <pt x="317" y="529" on="0"/>
      </contour>
      <contour>
        <pt x="158" y="617" on="1"/>
        <pt x="158" y="608" on="1"/>
        <pt x="158" y="594" on="0"/>
        <pt x="168" y="585" on="0"/>
        <pt x="183" y="585" on="1"/>
        <pt x="217" y="585" on="1"/>
        <pt x="232" y="585" on="0"/>
        <pt x="242" y="594" on="0"/>
        <pt x="242" y="608" on="1"/>
        <pt x="242" y="617" on="1"/>
        <pt x="242" y="631" on="0"/>
        <pt x="232" y="641" on="0"/>
        <pt x="217" y="641" on="1"/>
        <pt x="183" y="641" on="1"/>
        <pt x="168" y="641" on="0"/>
        <pt x="158" y="631" on="0"/>
      </contour>
    </TTGlyph>
    <TTGlyph name="asciicircum" xMin="66" yMin="306" xMax="473" yMax="670">
      <contour>
        <pt x="195" y="670" on="1"/>
        <pt x="344" y="670" on="1"/>
        <pt x="473" y="306" on="1"/>
        <pt x="355" y="306" on="1"/>
        <pt x="269" y="569" on="1"/>
        <pt x="184" y="306" on="1"/>
        <pt x="66" y="306" on="1"/>
      </contour>
    </TTGlyph>
    <TTGlyph name="asciitilde" xMin="71" yMin="211" xMax="509" yMax="369">
      <contour>
        <pt x="372" y="211" on="1"/>
        <pt x="336" y="211" on="0"/>
        <pt x="278" y="251" on="0"/>
        <pt x="229" y="291" on="0"/>
        <pt x="187" y="291" on="0"/>
        <pt x="175" y="275" on="0"/>
        <pt x="175" y="257" on="1"/>
        <pt x="175" y="211" on="1"/>
        <pt x="71" y="211" on="1"/>
        <pt x="71" y="282" on="1"/>
        <pt x="71" y="326" on="0"/>
        <pt x="115" y="369" on="0"/>
        <pt x="163" y="369" on="1"/>
        <pt x="209" y="369" on="1"/>
        <pt x="245" y="369" on="0"/>
        <pt x="303" y="329" on="0"/>
        <pt x="353" y="289" on="0"/>
        <pt x="394" y="289" on="0"/>
        <pt x="405" y="304" on="0"/>
        <pt x="405" y="323" on="1"/>
        <pt x="405" y="368" on="1"/>
        <pt x="509" y="368" on="1"/>
        <pt x="509" y="297" on="1"/>
        <pt x="509" y="254" on="0"/>
        <pt x="465" y="211" on="0"/>
        <pt x="416" y="211" on="1"/>
      </contour>
    </TTGlyph>
    <TTGlyph name="asterisk" xMin="16" yMin="337" xMax="325" yMax="631">
      <contour>
        <pt x="126" y="601" on="1"/>
        <pt x="126" y="631" on="1"/>
        <pt x="215" y="631" on="1"/>
        <pt x="215" y="600" on="1"/>
        <pt x="215" y="563" on="0"/>
        <pt x="207" y="534" on="1"/>
        <pt x="235" y="552" on="0"/>
        <pt x="269" y="562" on="1"/>
        <pt x="297" y="571" on="1"/>
        <pt x="325" y="486" on="1"/>
        <pt x="258" y="466" on="0"/>
        <pt x="230" y="464" on="1"/>
        <pt x="252" y="448" on="0"/>
        <pt x="276" y="415" on="1"/>
        <pt x="294" y="390" on="1"/>
        <pt x="222" y="337" on="1"/>
        <pt x="185" y="388" on="0"/>
        <pt x="171" y="421" on="1"/>
        <pt x="158" y="388" on="0"/>
        <pt x="120" y="337" on="1"/>
        <pt x="47" y="390" on="1"/>
        <pt x="88" y="444" on="0"/>
        <pt x="111" y="464" on="1"/>
        <pt x="77" y="466" on="0"/>
        <pt x="45" y="477" on="1"/>
        <pt x="16" y="486" on="1"/>
        <pt x="44" y="571" on="1"/>
        <pt x="73" y="562" on="1"/>
        <pt x="106" y="552" on="0"/>
        <pt x="134" y="533" on="1"/>
        <pt x="126" y="569" on="0"/>
      </contour>
    </TTGlyph>
    <TTGlyph name="at" xMin="65" yMin="-80" xMax="698" yMax="588">
      <contour>
        <pt x="340" y="326" on="1"/>
        <pt x="340" y="186" on="1"/>
        <pt x="340" y="170" on="0"/>
        <pt x="351" y="160" on="0"/>
        <pt x="367" y="160" on="1"/>
        <pt x="395" y="160" on="1"/>
        <pt x="424" y="160" on="0"/>
        <pt x="424" y="192" on="1"/>
        <pt x="424" y="320" on="1"/>
        <pt x="424" y="352" on="0"/>
        <pt x="395" y="352" on="1"/>
        <pt x="367" y="352" on="1"/>
        <pt x="351" y="352" on="0"/>
        <pt x="340" y="342" on="0"/>
      </contour>
      <contour>
        <pt x="237" y="337" on="1"/>
        <pt x="237" y="431" on="0"/>
        <pt x="334" y="431" on="1"/>
        <pt x="358" y="431" on="1"/>
        <pt x="412" y="431" on="0"/>
        <pt x="426" y="387" on="1"/>
        <pt x="426" y="431" on="1"/>
        <pt x="523" y="431" on="1"/>
        <pt x="523" y="159" on="1"/>
        <pt x="568" y="159" on="1"/>
        <pt x="584" y="159" on="0"/>
        <pt x="596" y="170" on="0"/>
        <pt x="596" y="186" on="1"/>
        <pt x="596" y="475" on="1"/>
        <pt x="596" y="492" on="0"/>
        <pt x="584" y="503" on="0"/>
        <pt x="568" y="503" on="1"/>
        <pt x="198" y="503" on="1"/>
        <pt x="182" y="503" on="0"/>
        <pt x="170" y="492" on="0"/>
        <pt x="170" y="475" on="1"/>
        <pt x="170" y="32" on="1"/>
        <pt x="170" y="16" on="0"/>
        <pt x="182" y="5" on="0"/>
        <pt x="198" y="5" on="1"/>
        <pt x="524" y="5" on="1"/>
        <pt x="524" y="-80" on="1"/>
        <pt x="168" y="-80" on="1"/>
        <pt x="65" y="-80" on="0"/>
        <pt x="65" y="19" on="1"/>
        <pt x="65" y="489" on="1"/>
        <pt x="65" y="588" on="0"/>
        <pt x="168" y="588" on="1"/>
        <pt x="596" y="588" on="1"/>
        <pt x="698" y="588" on="0"/>
        <pt x="698" y="489" on="1"/>
        <pt x="698" y="179" on="1"/>
        <pt x="698" y="81" on="0"/>
        <pt x="596" y="81" on="1"/>
        <pt x="430" y="81" on="1"/>
        <pt x="430" y="135" on="1"/>
        <pt x="421" y="81" on="0"/>
        <pt x="358" y="81" on="1"/>
        <pt x="334" y="81" on="1"/>
        <pt x="237" y="81" on="0"/>
        <pt x="237" y="175" on="1"/>
      </contour>
    </TTGlyph>
    <TTGlyph name="atilde" xMin="36" yMin="0" xMax="352" yMax="650">
      <contour>
        <pt x="240" y="491" on="1"/>
        <pt x="352" y="491" on="1"/>
        <pt x="352" y="0" on="1"/>
        <pt x="238" y="0" on="1"/>
        <pt x="238" y="42" on="1"/>
        <pt x="223" y="0" on="0"/>
        <pt x="169" y="0" on="1"/>
        <pt x="138" y="0" on="1"/>
        <pt x="36" y="0" on="0"/>
        <pt x="36" y="99" on="1"/>
        <pt x="36" y="392" on="1"/>
        <pt x="36" y="491" on="0"/>
        <pt x="138" y="491" on="1"/>
        <pt x="169" y="491" on="1"/>
        <pt x="228" y="491" on="0"/>
        <pt x="240" y="443" on="1"/>
      </contour>
      <contour>
        <pt x="177" y="88" on="1"/>
        <pt x="207" y="88" on="1"/>
        <pt x="238" y="88" on="0"/>
        <pt x="238" y="121" on="1"/>
        <pt x="238" y="370" on="1"/>
        <pt x="238" y="403" on="0"/>
        <pt x="207" y="403" on="1"/>
        <pt x="177" y="403" on="1"/>
        <pt x="161" y="403" on="0"/>
        <pt x="149" y="392" on="0"/>
        <pt x="149" y="376" on="1"/>
        <pt x="149" y="115" on="1"/>
        <pt x="149" y="99" on="0"/>
        <pt x="161" y="88" on="0"/>
      </contour>
      <contour>
        <pt x="131" y="553" on="1"/>
        <pt x="131" y="533" on="1"/>
        <pt x="37" y="533" on="1"/>
        <pt x="37" y="565" on="1"/>
        <pt x="37" y="607" on="0"/>
        <pt x="75" y="650" on="0"/>
        <pt x="121" y="650" on="1"/>
        <pt x="133" y="650" on="1"/>
        <pt x="161" y="650" on="0"/>
        <pt x="230" y="607" on="0"/>
        <pt x="238" y="607" on="1"/>
        <pt x="256" y="607" on="0"/>
        <pt x="256" y="630" on="1"/>
        <pt x="256" y="650" on="1"/>
        <pt x="350" y="650" on="1"/>
        <pt x="350" y="615" on="1"/>
        <pt x="350" y="574" on="0"/>
        <pt x="312" y="533" on="0"/>
        <pt x="266" y="533" on="1"/>
        <pt x="256" y="533" on="1"/>
        <pt x="228" y="533" on="0"/>
        <pt x="157" y="576" on="0"/>
        <pt x="149" y="576" on="1"/>
        <pt x="131" y="576" on="0"/>
      </contour>
    </TTGlyph>
    <TTGlyph name="b" xMin="43" yMin="0" xMax="359" yMax="669">
      <contour>
        <pt x="226" y="492" on="1"/>
        <pt x="256" y="492" on="1"/>
        <pt x="359" y="492" on="0"/>
        <pt x="359" y="393" on="1"/>
        <pt x="359" y="99" on="1"/>
        <pt x="359" y="0" on="0"/>
        <pt x="256" y="0" on="1"/>
        <pt x="226" y="0" on="1"/>
        <pt x="169" y="0" on="0"/>
        <pt x="155" y="45" on="1"/>
        <pt x="155" y="0" on="1"/>
        <pt x="43" y="0" on="1"/>
        <pt x="43" y="669" on="1"/>
        <pt x="156" y="669" on="1"/>
        <pt x="156" y="450" on="1"/>
        <pt x="171" y="492" on="0"/>
      </contour>
      <contour>
        <pt x="245" y="115" on="1"/>
        <pt x="245" y="377" on="1"/>
        <pt x="245" y="393" on="0"/>
        <pt x="233" y="404" on="0"/>
        <pt x="217" y="404" on="1"/>
        <pt x="187" y="404" on="1"/>
        <pt x="156" y="404" on="0"/>
        <pt x="156" y="370" on="1"/>
        <pt x="156" y="121" on="1"/>
        <pt x="156" y="88" on="0"/>
        <pt x="187" y="88" on="1"/>
        <pt x="217" y="88" on="1"/>
        <pt x="233" y="88" on="0"/>
        <pt x="245" y="99" on="0"/>
      </contour>
    </TTGlyph>
    <TTGlyph name="backslash" xMin="16" yMin="-103" xMax="401" yMax="700">
      <contour>
        <pt x="16" y="700" on="1"/>
        <pt x="118" y="700" on="1"/>
        <pt x="401" y="-103" on="1"/>
        <pt x="299" y="-103" on="1"/>
      </contour>
    </TTGlyph>
    <TTGlyph name="bar" xMin="53" yMin="-140" xMax="160" yMax="769">
      <contour>
        <pt x="53" y="769" on="1"/>
        <pt x="160" y="769" on="1"/>
        <pt x="160" y="-140" on="1"/>
        <pt x="53" y="-140" on="1"/>
      </contour>
    </TTGlyph>
    <TTGlyph name="braceleft" xMin="10" yMin="-162" xMax="287" yMax="785">
      <contour>
        <pt x="217" y="674" on="1"/>
        <pt x="217" y="435" on="1"/>
        <pt x="217" y="325" on="0"/>
        <pt x="141" y="312" on="1"/>
        <pt x="217" y="304" on="0"/>
        <pt x="217" y="196" on="1"/>
        <pt x="217" y="-50" on="1"/>
        <pt x="217" y="-78" on="0"/>
        <pt x="247" y="-78" on="1"/>
        <pt x="287" y="-78" on="1"/>
        <pt x="287" y="-162" on="1"/>
        <pt x="206" y="-162" on="1"/>
        <pt x="102" y="-162" on="0"/>
        <pt x="102" y="-59" on="1"/>
        <pt x="102" y="170" on="1"/>
        <pt x="102" y="222" on="0"/>
        <pt x="65" y="271" on="0"/>
        <pt x="24" y="271" on="1"/>
        <pt x="10" y="271" on="1"/>
        <pt x="10" y="354" on="1"/>
        <pt x="24" y="354" on="1"/>
        <pt x="65" y="354" on="0"/>
        <pt x="102" y="402" on="0"/>
        <pt x="102" y="455" on="1"/>
        <pt x="102" y="683" on="1"/>
        <pt x="102" y="785" on="0"/>
        <pt x="206" y="785" on="1"/>
        <pt x="287" y="785" on="1"/>
        <pt x="287" y="702" on="1"/>
        <pt x="247" y="702" on="1"/>
        <pt x="217" y="702" on="0"/>
      </contour>
    </TTGlyph>
    <TTGlyph name="braceright" xMin="8" yMin="-162" xMax="285" yMax="785">
      <contour>
        <pt x="77" y="435" on="1"/>
        <pt x="77" y="674" on="1"/>
        <pt x="77" y="702" on="0"/>
        <pt x="47" y="702" on="1"/>
        <pt x="8" y="702" on="1"/>
        <pt x="8" y="785" on="1"/>
        <pt x="89" y="785" on="1"/>
        <pt x="192" y="785" on="0"/>
        <pt x="192" y="683" on="1"/>
        <pt x="192" y="455" on="1"/>
        <pt x="192" y="402" on="0"/>
        <pt x="229" y="354" on="0"/>
        <pt x="271" y="354" on="1"/>
        <pt x="285" y="354" on="1"/>
        <pt x="285" y="271" on="1"/>
        <pt x="271" y="271" on="1"/>
        <pt x="229" y="271" on="0"/>
        <pt x="192" y="222" on="0"/>
        <pt x="192" y="170" on="1"/>
        <pt x="192" y="-59" on="1"/>
        <pt x="192" y="-162" on="0"/>
        <pt x="89" y="-162" on="1"/>
        <pt x="8" y="-162" on="1"/>
        <pt x="8" y="-78" on="1"/>
        <pt x="47" y="-78" on="1"/>
        <pt x="77" y="-78" on="0"/>
        <pt x="77" y="-50" on="1"/>
        <pt x="77" y="196" on="1"/>
        <pt x="77" y="248" on="0"/>
        <pt x="117" y="308" on="0"/>
        <pt x="154" y="312" on="1"/>
        <pt x="77" y="325" on="0"/>
      </contour>
    </TTGlyph>
    <TTGlyph name="bracketleft" xMin="53" yMin="-163" xMax="266" yMax="785">
      <contour>
        <pt x="266" y="697" on="1"/>
        <pt x="169" y="697" on="1"/>
        <pt x="169" y="-75" on="1"/>
        <pt x="266" y="-75" on="1"/>
        <pt x="266" y="-163" on="1"/>
        <pt x="53" y="-163" on="1"/>
        <pt x="53" y="785" on="1"/>
        <pt x="266" y="785" on="1"/>
      </contour>
    </TTGlyph>
    <TTGlyph name="bracketright" xMin="34" yMin="-163" xMax="247" yMax="785">
      <contour>
        <pt x="247" y="785" on="1"/>
        <pt x="247" y="-163" on="1"/>
        <pt x="34" y="-163" on="1"/>
        <pt x="34" y="-75" on="1"/>
        <pt x="131" y="-75" on="1"/>
        <pt x="131" y="697" on="1"/>
        <pt x="34" y="697" on="1"/>
        <pt x="34" y="785" on="1"/>
      </contour>
    </TTGlyph>
    <TTGlyph name="breve" xMin="63" yMin="523" xMax="381" yMax="660">
      <contour>
        <pt x="279" y="660" on="1"/>
        <pt x="381" y="660" on="1"/>
        <pt x="381" y="622" on="1"/>
        <pt x="381" y="523" on="0"/>
        <pt x="273" y="523" on="1"/>
        <pt x="171" y="523" on="1"/>
        <pt x="63" y="523" on="0"/>
        <pt x="63" y="622" on="1"/>
        <pt x="63" y="660" on="1"/>
        <pt x="165" y="660" on="1"/>
        <pt x="165" y="623" on="1"/>
        <pt x="165" y="607" on="0"/>
        <pt x="177" y="596" on="0"/>
        <pt x="194" y="596" on="1"/>
        <pt x="250" y="596" on="1"/>
        <pt x="267" y="596" on="0"/>
        <pt x="279" y="607" on="0"/>
        <pt x="279" y="623" on="1"/>
      </contour>
    </TTGlyph>
    <TTGlyph name="brokenbar" xMin="48" yMin="-96" xMax="164" yMax="725">
      <contour>
        <pt x="164" y="376" on="1"/>
        <pt x="48" y="376" on="1"/>
        <pt x="48" y="725" on="1"/>
        <pt x="164" y="725" on="1"/>
      </contour>
      <contour>
        <pt x="48" y="254" on="1"/>
        <pt x="164" y="254" on="1"/>
        <pt x="164" y="-96" on="1"/>
        <pt x="48" y="-96" on="1"/>
      </contour>
    </TTGlyph>
    <TTGlyph name="bullet" xMin="62" yMin="185" xMax="334" yMax="457">
      <contour>
        <pt x="62" y="265" on="0"/>
        <pt x="62" y="377" on="0"/>
        <pt x="142" y="457" on="0"/>
        <pt x="254" y="457" on="0"/>
        <pt x="334" y="377" on="0"/>
        <pt x="334" y="265" on="0"/>
        <pt x="254" y="185" on="0"/>
        <pt x="142" y="185" on="0"/>
      </contour>
    </TTGlyph>
    <TTGlyph name="c" xMin="36" yMin="0" xMax="352" yMax="491">
      <contour>
        <pt x="352" y="326" on="1"/>
        <pt x="241" y="326" on="1"/>
        <pt x="241" y="376" on="1"/>
        <pt x="241" y="392" on="0"/>
        <pt x="229" y="403" on="0"/>
        <pt x="213" y="403" on="1"/>
        <pt x="177" y="403" on="1"/>
        <pt x="161" y="403" on="0"/>
        <pt x="149" y="392" on="0"/>
        <pt x="149" y="376" on="1"/>
        <pt x="149" y="115" on="1"/>
        <pt x="149" y="99" on="0"/>
        <pt x="161" y="88" on="0"/>
        <pt x="177" y="88" on="1"/>
        <pt x="213" y="88" on="1"/>
        <pt x="229" y="88" on="0"/>
        <pt x="241" y="99" on="0"/>
        <pt x="241" y="115" on="1"/>
        <pt x="241" y="166" on="1"/>
        <pt x="352" y="166" on="1"/>
        <pt x="352" y="99" on="1"/>
        <pt x="352" y="0" on="0"/>
        <pt x="243" y="0" on="1"/>
        <pt x="145" y="0" on="1"/>
        <pt x="36" y="0" on="0"/>
        <pt x="36" y="99" on="1"/>
        <pt x="36" y="392" on="1"/>
        <pt x="36" y="491" on="0"/>
        <pt x="145" y="491" on="1"/>
        <pt x="243" y="491" on="1"/>
        <pt x="352" y="491" on="0"/>
        <pt x="352" y="392" on="1"/>
      </contour>
    </TTGlyph>
    <TTGlyph name="cacute" xMin="36" yMin="0" xMax="353" yMax="660">
      <contour>
        <pt x="145" y="491" on="1"/>
        <pt x="243" y="491" on="1"/>
        <pt x="352" y="491" on="0"/>
        <pt x="352" y="392" on="1"/>
        <pt x="352" y="326" on="1"/>
        <pt x="241" y="326" on="1"/>
        <pt x="241" y="376" on="1"/>
        <pt x="241" y="392" on="0"/>
        <pt x="229" y="403" on="0"/>
        <pt x="213" y="403" on="1"/>
        <pt x="177" y="403" on="1"/>
        <pt x="161" y="403" on="0"/>
        <pt x="149" y="392" on="0"/>
        <pt x="149" y="376" on="1"/>
        <pt x="149" y="115" on="1"/>
        <pt x="149" y="99" on="0"/>
        <pt x="161" y="88" on="0"/>
        <pt x="177" y="88" on="1"/>
        <pt x="213" y="88" on="1"/>
        <pt x="229" y="88" on="0"/>
        <pt x="241" y="99" on="0"/>
        <pt x="241" y="115" on="1"/>
        <pt x="241" y="166" on="1"/>
        <pt x="352" y="166" on="1"/>
        <pt x="352" y="99" on="1"/>
        <pt x="352" y="0" on="0"/>
        <pt x="243" y="0" on="1"/>
        <pt x="145" y="0" on="1"/>
        <pt x="36" y="0" on="0"/>
        <pt x="36" y="99" on="1"/>
        <pt x="36" y="392" on="1"/>
        <pt x="36" y="491" on="0"/>
      </contour>
      <contour>
        <pt x="353" y="660" on="1"/>
        <pt x="240" y="523" on="1"/>
        <pt x="146" y="523" on="1"/>
        <pt x="232" y="660" on="1"/>
      </contour>
    </TTGlyph>
    <TTGlyph name="caron" xMin="57" yMin="523" xMax="386" yMax="660">
      <contour>
        <pt x="163" y="523" on="1"/>
        <pt x="57" y="660" on="1"/>
        <pt x="169" y="660" on="1"/>
        <pt x="221" y="583" on="1"/>
        <pt x="274" y="660" on="1"/>
        <pt x="386" y="660" on="1"/>
        <pt x="280" y="523" on="1"/>
      </contour>
    </TTGlyph>
    <TTGlyph name="ccaron" xMin="28" yMin="0" xMax="357" yMax="660">
      <contour>
        <pt x="145" y="491" on="1"/>
        <pt x="243" y="491" on="1"/>
        <pt x="352" y="491" on="0"/>
        <pt x="352" y="392" on="1"/>
        <pt x="352" y="326" on="1"/>
        <pt x="241" y="326" on="1"/>
        <pt x="241" y="376" on="1"/>
        <pt x="241" y="392" on="0"/>
        <pt x="229" y="403" on="0"/>
        <pt x="213" y="403" on="1"/>
        <pt x="177" y="403" on="1"/>
        <pt x="161" y="403" on="0"/>
        <pt x="149" y="392" on="0"/>
        <pt x="149" y="376" on="1"/>
        <pt x="149" y="115" on="1"/>
        <pt x="149" y="99" on="0"/>
        <pt x="161" y="88" on="0"/>
        <pt x="177" y="88" on="1"/>
        <pt x="213" y="88" on="1"/>
        <pt x="229" y="88" on="0"/>
        <pt x="241" y="99" on="0"/>
        <pt x="241" y="115" on="1"/>
        <pt x="241" y="166" on="1"/>
        <pt x="352" y="166" on="1"/>
        <pt x="352" y="99" on="1"/>
        <pt x="352" y="0" on="0"/>
        <pt x="243" y="0" on="1"/>
        <pt x="145" y="0" on="1"/>
        <pt x="36" y="0" on="0"/>
        <pt x="36" y="99" on="1"/>
        <pt x="36" y="392" on="1"/>
        <pt x="36" y="491" on="0"/>
      </contour>
      <contour>
        <pt x="251" y="523" on="1"/>
        <pt x="134" y="523" on="1"/>
        <pt x="28" y="660" on="1"/>
        <pt x="140" y="660" on="1"/>
        <pt x="192" y="583" on="1"/>
        <pt x="245" y="660" on="1"/>
        <pt x="357" y="660" on="1"/>
      </contour>
    </TTGlyph>
    <TTGlyph name="ccedilla" xMin="36" yMin="-208" xMax="352" yMax="491">
      <contour>
        <pt x="352" y="326" on="1"/>
        <pt x="241" y="326" on="1"/>
        <pt x="241" y="376" on="1"/>
        <pt x="241" y="392" on="0"/>
        <pt x="229" y="403" on="0"/>
        <pt x="213" y="403" on="1"/>
        <pt x="177" y="403" on="1"/>
        <pt x="161" y="403" on="0"/>
        <pt x="149" y="392" on="0"/>
        <pt x="149" y="376" on="1"/>
        <pt x="149" y="115" on="1"/>
        <pt x="149" y="99" on="0"/>
        <pt x="161" y="88" on="0"/>
        <pt x="177" y="88" on="1"/>
        <pt x="213" y="88" on="1"/>
        <pt x="229" y="88" on="0"/>
        <pt x="241" y="99" on="0"/>
        <pt x="241" y="115" on="1"/>
        <pt x="241" y="166" on="1"/>
        <pt x="352" y="166" on="1"/>
        <pt x="352" y="99" on="1"/>
        <pt x="352" y="0" on="0"/>
        <pt x="243" y="0" on="1"/>
        <pt x="145" y="0" on="1"/>
        <pt x="36" y="0" on="0"/>
        <pt x="36" y="99" on="1"/>
        <pt x="36" y="392" on="1"/>
        <pt x="36" y="491" on="0"/>
        <pt x="145" y="491" on="1"/>
        <pt x="243" y="491" on="1"/>
        <pt x="352" y="491" on="0"/>
        <pt x="352" y="392" on="1"/>
      </contour>
      <contour>
        <pt x="145" y="-95" on="1"/>
        <pt x="145" y="-49" on="1"/>
        <pt x="252" y="-49" on="1"/>
        <pt x="252" y="-104" on="1"/>
        <pt x="252" y="-208" on="0"/>
        <pt x="137" y="-208" on="1"/>
        <pt x="70" y="-208" on="1"/>
        <pt x="70" y="-125" on="1"/>
        <pt x="114" y="-125" on="1"/>
        <pt x="145" y="-125" on="0"/>
      </contour>
    </TTGlyph>
    <TTGlyph name="cedilla" xMin="129" yMin="-208" xMax="311" yMax="-49">
      <contour>
        <pt x="204" y="-95" on="1"/>
        <pt x="204" y="-49" on="1"/>
        <pt x="311" y="-49" on="1"/>
        <pt x="311" y="-104" on="1"/>
        <pt x="311" y="-208" on="0"/>
        <pt x="196" y="-208" on="1"/>
        <pt x="129" y="-208" on="1"/>
        <pt x="129" y="-125" on="1"/>
        <pt x="173" y="-125" on="1"/>
        <pt x="204" y="-125" on="0"/>
      </contour>
    </TTGlyph>
    <TTGlyph name="cent" xMin="36" yMin="-77" xMax="352" yMax="569">
      <contour>
        <pt x="352" y="326" on="1"/>
        <pt x="241" y="326" on="1"/>
        <pt x="241" y="376" on="1"/>
        <pt x="241" y="392" on="0"/>
        <pt x="229" y="403" on="0"/>
        <pt x="213" y="403" on="1"/>
        <pt x="177" y="403" on="1"/>
        <pt x="161" y="403" on="0"/>
        <pt x="149" y="392" on="0"/>
        <pt x="149" y="376" on="1"/>
        <pt x="149" y="115" on="1"/>
        <pt x="149" y="99" on="0"/>
        <pt x="161" y="88" on="0"/>
        <pt x="177" y="88" on="1"/>
        <pt x="213" y="88" on="1"/>
        <pt x="229" y="88" on="0"/>
        <pt x="241" y="99" on="0"/>
        <pt x="241" y="115" on="1"/>
        <pt x="241" y="166" on="1"/>
        <pt x="352" y="166" on="1"/>
        <pt x="352" y="99" on="1"/>
        <pt x="352" y="4" on="0"/>
        <pt x="251" y="0" on="1"/>
        <pt x="251" y="-77" on="1"/>
        <pt x="142" y="-77" on="1"/>
        <pt x="142" y="0" on="1"/>
        <pt x="36" y="1" on="0"/>
        <pt x="36" y="99" on="1"/>
        <pt x="36" y="392" on="1"/>
        <pt x="36" y="490" on="0"/>
        <pt x="142" y="491" on="1"/>
        <pt x="142" y="569" on="1"/>
        <pt x="251" y="569" on="1"/>
        <pt x="251" y="491" on="1"/>
        <pt x="352" y="487" on="0"/>
        <pt x="352" y="392" on="1"/>
      </contour>
    </TTGlyph>
    <TTGlyph name="circumflex" xMin="57" yMin="523" xMax="386" yMax="660">
      <contour>
        <pt x="57" y="523" on="1"/>
        <pt x="163" y="660" on="1"/>
        <pt x="280" y="660" on="1"/>
        <pt x="386" y="523" on="1"/>
        <pt x="274" y="523" on="1"/>
        <pt x="221" y="600" on="1"/>
        <pt x="169" y="523" on="1"/>
      </contour>
    </TTGlyph>
    <TTGlyph name="colon" xMin="34" yMin="147" xMax="156" yMax="344">
      <contour>
        <pt x="34" y="344" on="1"/>
        <pt x="156" y="344" on="1"/>
        <pt x="156" y="147" on="1"/>
        <pt x="34" y="147" on="1"/>
      </contour>
    </TTGlyph>
    <TTGlyph name="comma" xMin="34" yMin="-142" xMax="156" yMax="135">
      <contour>
        <pt x="34" y="135" on="1"/>
        <pt x="156" y="135" on="1"/>
        <pt x="156" y="63" on="1"/>
        <pt x="72" y="-142" on="1"/>
        <pt x="34" y="-142" on="1"/>
      </contour>
    </TTGlyph>
    <TTGlyph name="commaaccent" xMin="163" yMin="-250" xMax="281" yMax="-49">
      <contour>
        <pt x="163" y="-49" on="1"/>
        <pt x="281" y="-49" on="1"/>
        <pt x="281" y="-109" on="1"/>
        <pt x="201" y="-250" on="1"/>
        <pt x="163" y="-250" on="1"/>
      </contour>
    </TTGlyph>
    <TTGlyph name="copyright" xMin="41" yMin="0" xMax="691" yMax="631">
      <contour>
        <pt x="409" y="249" on="1"/>
        <pt x="409" y="277" on="1"/>
        <pt x="499" y="277" on="1"/>
        <pt x="499" y="234" on="1"/>
        <pt x="499" y="152" on="0"/>
        <pt x="411" y="152" on="1"/>
        <pt x="322" y="152" on="1"/>
        <pt x="233" y="152" on="0"/>
        <pt x="233" y="234" on="1"/>
        <pt x="233" y="405" on="1"/>
        <pt x="233" y="486" on="0"/>
        <pt x="322" y="486" on="1"/>
        <pt x="411" y="486" on="1"/>
        <pt x="499" y="486" on="0"/>
        <pt x="499" y="405" on="1"/>
        <pt x="499" y="362" on="1"/>
        <pt x="409" y="362" on="1"/>
        <pt x="409" y="390" on="1"/>
        <pt x="409" y="404" on="0"/>
        <pt x="399" y="414" on="0"/>
        <pt x="384" y="414" on="1"/>
        <pt x="348" y="414" on="1"/>
        <pt x="333" y="414" on="0"/>
        <pt x="323" y="404" on="0"/>
        <pt x="323" y="390" on="1"/>
        <pt x="323" y="249" on="1"/>
        <pt x="323" y="235" on="0"/>
        <pt x="333" y="225" on="0"/>
        <pt x="348" y="225" on="1"/>
        <pt x="384" y="225" on="1"/>
        <pt x="399" y="225" on="0"/>
        <pt x="409" y="235" on="0"/>
      </contour>
      <contour>
        <pt x="285" y="77" on="1"/>
        <pt x="447" y="77" on="1"/>
        <pt x="528" y="77" on="0"/>
        <pt x="596" y="173" on="0"/>
        <pt x="596" y="277" on="1"/>
        <pt x="596" y="349" on="1"/>
        <pt x="596" y="454" on="0"/>
        <pt x="527" y="555" on="0"/>
        <pt x="447" y="555" on="1"/>
        <pt x="285" y="555" on="1"/>
        <pt x="205" y="555" on="0"/>
        <pt x="135" y="454" on="0"/>
        <pt x="135" y="349" on="1"/>
        <pt x="135" y="277" on="1"/>
        <pt x="135" y="173" on="0"/>
        <pt x="204" y="77" on="0"/>
      </contour>
      <contour>
        <pt x="691" y="340" on="1"/>
        <pt x="691" y="286" on="1"/>
        <pt x="691" y="142" on="0"/>
        <pt x="585" y="0" on="0"/>
        <pt x="462" y="0" on="1"/>
        <pt x="270" y="0" on="1"/>
        <pt x="146" y="0" on="0"/>
        <pt x="41" y="142" on="0"/>
        <pt x="41" y="286" on="1"/>
        <pt x="41" y="340" on="1"/>
        <pt x="41" y="484" on="0"/>
        <pt x="147" y="631" on="0"/>
        <pt x="270" y="631" on="1"/>
        <pt x="462" y="631" on="1"/>
        <pt x="585" y="631" on="0"/>
        <pt x="691" y="484" on="0"/>
      </contour>
    </TTGlyph>
    <TTGlyph name="currency" xMin="50" yMin="52" xMax="463" yMax="556">
      <contour>
        <pt x="430" y="371" on="1"/>
        <pt x="430" y="227" on="1"/>
        <pt x="430" y="191" on="0"/>
        <pt x="421" y="165" on="1"/>
        <pt x="463" y="123" on="1"/>
        <pt x="393" y="52" on="1"/>
        <pt x="341" y="104" on="1"/>
        <pt x="324" y="101" on="0"/>
        <pt x="305" y="101" on="1"/>
        <pt x="215" y="101" on="1"/>
        <pt x="190" y="101" on="0"/>
        <pt x="174" y="105" on="1"/>
        <pt x="121" y="52" on="1"/>
        <pt x="50" y="123" on="1"/>
        <pt x="98" y="171" on="1"/>
        <pt x="91" y="193" on="0"/>
        <pt x="91" y="227" on="1"/>
        <pt x="91" y="371" on="1"/>
        <pt x="91" y="409" on="0"/>
        <pt x="101" y="435" on="1"/>
        <pt x="50" y="486" on="1"/>
        <pt x="121" y="556" on="1"/>
        <pt x="183" y="495" on="1"/>
        <pt x="203" y="497" on="0"/>
        <pt x="215" y="497" on="1"/>
        <pt x="305" y="497" on="1"/>
        <pt x="324" y="497" on="0"/>
        <pt x="332" y="496" on="1"/>
        <pt x="393" y="556" on="1"/>
        <pt x="463" y="486" on="1"/>
        <pt x="418" y="441" on="1"/>
        <pt x="430" y="413" on="0"/>
      </contour>
      <contour>
        <pt x="239" y="182" on="1"/>
        <pt x="280" y="182" on="1"/>
        <pt x="309" y="182" on="0"/>
        <pt x="332" y="201" on="0"/>
        <pt x="332" y="233" on="1"/>
        <pt x="332" y="365" on="1"/>
        <pt x="332" y="397" on="0"/>
        <pt x="309" y="416" on="0"/>
        <pt x="280" y="416" on="1"/>
        <pt x="239" y="416" on="1"/>
        <pt x="210" y="416" on="0"/>
        <pt x="188" y="397" on="0"/>
        <pt x="188" y="365" on="1"/>
        <pt x="188" y="233" on="1"/>
        <pt x="188" y="201" on="0"/>
        <pt x="210" y="182" on="0"/>
      </contour>
    </TTGlyph>
    <TTGlyph name="d" xMin="36" yMin="0" xMax="352" yMax="669">
      <contour>
        <pt x="238" y="669" on="1"/>
        <pt x="352" y="669" on="1"/>
        <pt x="352" y="0" on="1"/>
        <pt x="240" y="0" on="1"/>
        <pt x="240" y="49" on="1"/>
        <pt x="228" y="0" on="0"/>
        <pt x="169" y="0" on="1"/>
        <pt x="138" y="0" on="1"/>
        <pt x="36" y="0" on="0"/>
        <pt x="36" y="99" on="1"/>
        <pt x="36" y="393" on="1"/>
        <pt x="36" y="492" on="0"/>
        <pt x="138" y="492" on="1"/>
        <pt x="169" y="492" on="1"/>
        <pt x="223" y="492" on="0"/>
        <pt x="238" y="450" on="1"/>
      </contour>
      <contour>
        <pt x="177" y="88" on="1"/>
        <pt x="207" y="88" on="1"/>
        <pt x="238" y="88" on="0"/>
        <pt x="238" y="121" on="1"/>
        <pt x="238" y="370" on="1"/>
        <pt x="238" y="389" on="0"/>
        <pt x="224" y="404" on="0"/>
        <pt x="207" y="404" on="1"/>
        <pt x="177" y="404" on="1"/>
        <pt x="161" y="404" on="0"/>
        <pt x="149" y="393" on="0"/>
        <pt x="149" y="377" on="1"/>
        <pt x="149" y="115" on="1"/>
        <pt x="149" y="99" on="0"/>
        <pt x="161" y="88" on="0"/>
      </contour>
    </TTGlyph>
    <TTGlyph name="dagger" xMin="7" yMin="-110" xMax="382" yMax="631">
      <contour>
        <pt x="382" y="472" on="1"/>
        <pt x="382" y="388" on="1"/>
        <pt x="252" y="388" on="1"/>
        <pt x="252" y="-110" on="1"/>
        <pt x="137" y="-110" on="1"/>
        <pt x="137" y="388" on="1"/>
        <pt x="7" y="388" on="1"/>
        <pt x="7" y="472" on="1"/>
        <pt x="137" y="472" on="1"/>
        <pt x="137" y="631" on="1"/>
        <pt x="252" y="631" on="1"/>
        <pt x="252" y="472" on="1"/>
      </contour>
    </TTGlyph>
    <TTGlyph name="daggerdbl" xMin="19" yMin="-148" xMax="394" yMax="631">
      <contour>
        <pt x="394" y="388" on="1"/>
        <pt x="264" y="388" on="1"/>
        <pt x="264" y="94" on="1"/>
        <pt x="394" y="94" on="1"/>
        <pt x="394" y="11" on="1"/>
        <pt x="264" y="11" on="1"/>
        <pt x="264" y="-148" on="1"/>
        <pt x="149" y="-148" on="1"/>
        <pt x="149" y="11" on="1"/>
        <pt x="19" y="11" on="1"/>
        <pt x="19" y="94" on="1"/>
        <pt x="149" y="94" on="1"/>
        <pt x="149" y="388" on="1"/>
        <pt x="19" y="388" on="1"/>
        <pt x="19" y="472" on="1"/>
        <pt x="149" y="472" on="1"/>
        <pt x="149" y="631" on="1"/>
        <pt x="264" y="631" on="1"/>
        <pt x="264" y="472" on="1"/>
        <pt x="394" y="472" on="1"/>
      </contour>
    </TTGlyph>
    <TTGlyph name="dcaron" xMin="36" yMin="0" xMax="480" yMax="669">
      <contour>
        <pt x="394" y="669" on="1"/>
        <pt x="480" y="669" on="1"/>
        <pt x="480" y="613" on="1"/>
        <pt x="427" y="486" on="1"/>
        <pt x="394" y="486" on="1"/>
      </contour>
      <contour>
        <pt x="238" y="669" on="1"/>
        <pt x="352" y="669" on="1"/>
        <pt x="352" y="0" on="1"/>
        <pt x="240" y="0" on="1"/>
        <pt x="240" y="49" on="1"/>
        <pt x="228" y="0" on="0"/>
        <pt x="169" y="0" on="1"/>
        <pt x="138" y="0" on="1"/>
        <pt x="36" y="0" on="0"/>
        <pt x="36" y="99" on="1"/>
        <pt x="36" y="393" on="1"/>
        <pt x="36" y="492" on="0"/>
        <pt x="138" y="492" on="1"/>
        <pt x="169" y="492" on="1"/>
        <pt x="223" y="492" on="0"/>
        <pt x="238" y="450" on="1"/>
      </contour>
      <contour>
        <pt x="177" y="88" on="1"/>
        <pt x="207" y="88" on="1"/>
        <pt x="238" y="88" on="0"/>
        <pt x="238" y="121" on="1"/>
        <pt x="238" y="370" on="1"/>
        <pt x="238" y="389" on="0"/>
        <pt x="224" y="404" on="0"/>
        <pt x="207" y="404" on="1"/>
        <pt x="177" y="404" on="1"/>
        <pt x="161" y="404" on="0"/>
        <pt x="149" y="393" on="0"/>
        <pt x="149" y="377" on="1"/>
        <pt x="149" y="115" on="1"/>
        <pt x="149" y="99" on="0"/>
        <pt x="161" y="88" on="0"/>
      </contour>
    </TTGlyph>
    <TTGlyph name="dcroat" xMin="41" yMin="0" xMax="404" yMax="669">
      <contour>
        <pt x="404" y="611" on="1"/>
        <pt x="404" y="545" on="1"/>
        <pt x="357" y="545" on="1"/>
        <pt x="357" y="0" on="1"/>
        <pt x="245" y="0" on="1"/>
        <pt x="245" y="49" on="1"/>
        <pt x="233" y="0" on="0"/>
        <pt x="174" y="0" on="1"/>
        <pt x="143" y="0" on="1"/>
        <pt x="41" y="0" on="0"/>
        <pt x="41" y="99" on="1"/>
        <pt x="41" y="392" on="1"/>
        <pt x="41" y="491" on="0"/>
        <pt x="143" y="491" on="1"/>
        <pt x="174" y="491" on="1"/>
        <pt x="228" y="491" on="0"/>
        <pt x="243" y="449" on="1"/>
        <pt x="243" y="545" on="1"/>
        <pt x="169" y="545" on="1"/>
        <pt x="169" y="611" on="1"/>
        <pt x="243" y="611" on="1"/>
        <pt x="243" y="669" on="1"/>
        <pt x="357" y="669" on="1"/>
        <pt x="357" y="611" on="1"/>
      </contour>
      <contour>
        <pt x="182" y="88" on="1"/>
        <pt x="212" y="88" on="1"/>
        <pt x="243" y="88" on="0"/>
        <pt x="243" y="121" on="1"/>
        <pt x="243" y="370" on="1"/>
        <pt x="243" y="403" on="0"/>
        <pt x="212" y="403" on="1"/>
        <pt x="182" y="403" on="1"/>
        <pt x="166" y="403" on="0"/>
        <pt x="154" y="392" on="0"/>
        <pt x="154" y="376" on="1"/>
        <pt x="154" y="115" on="1"/>
        <pt x="154" y="99" on="0"/>
        <pt x="166" y="88" on="0"/>
      </contour>
    </TTGlyph>
    <TTGlyph name="degree" xMin="50" yMin="331" xMax="359" yMax="631">
      <contour>
        <pt x="254" y="435" on="1"/>
        <pt x="254" y="527" on="1"/>
        <pt x="254" y="542" on="0"/>
        <pt x="242" y="553" on="0"/>
        <pt x="225" y="553" on="1"/>
        <pt x="184" y="553" on="1"/>
        <pt x="167" y="553" on="0"/>
        <pt x="155" y="542" on="0"/>
        <pt x="155" y="527" on="1"/>
        <pt x="155" y="435" on="1"/>
        <pt x="155" y="420" on="0"/>
        <pt x="167" y="409" on="0"/>
        <pt x="184" y="409" on="1"/>
        <pt x="225" y="409" on="1"/>
        <pt x="242" y="409" on="0"/>
        <pt x="254" y="420" on="0"/>
      </contour>
      <contour>
        <pt x="359" y="533" on="1"/>
        <pt x="359" y="429" on="1"/>
        <pt x="359" y="331" on="0"/>
        <pt x="253" y="331" on="1"/>
        <pt x="156" y="331" on="1"/>
        <pt x="50" y="331" on="0"/>
        <pt x="50" y="429" on="1"/>
        <pt x="50" y="533" on="1"/>
        <pt x="50" y="631" on="0"/>
        <pt x="156" y="631" on="1"/>
        <pt x="253" y="631" on="1"/>
        <pt x="359" y="631" on="0"/>
      </contour>
    </TTGlyph>
    <TTGlyph name="dieresis" xMin="62" yMin="541" xMax="382" yMax="646">
      <contour>
        <pt x="266" y="541" on="1"/>
        <pt x="266" y="646" on="1"/>
        <pt x="382" y="646" on="1"/>
        <pt x="382" y="541" on="1"/>
      </contour>
      <contour>
        <pt x="62" y="541" on="1"/>
        <pt x="62" y="646" on="1"/>
        <pt x="178" y="646" on="1"/>
        <pt x="178" y="541" on="1"/>
      </contour>
    </TTGlyph>
    <TTGlyph name="divide" xMin="25" yMin="118" xMax="422" yMax="511">
      <contour>
        <pt x="168" y="214" on="1"/>
        <pt x="279" y="214" on="1"/>
        <pt x="279" y="118" on="1"/>
        <pt x="168" y="118" on="1"/>
      </contour>
      <contour>
        <pt x="168" y="511" on="1"/>
        <pt x="279" y="511" on="1"/>
        <pt x="279" y="416" on="1"/>
        <pt x="168" y="416" on="1"/>
      </contour>
      <contour>
        <pt x="25" y="270" on="1"/>
        <pt x="25" y="359" on="1"/>
        <pt x="422" y="359" on="1"/>
        <pt x="422" y="270" on="1"/>
      </contour>
    </TTGlyph>
    <TTGlyph name="dollar" xMin="36" yMin="-79" xMax="364" yMax="710">
      <contour>
        <pt x="180" y="362" on="1"/>
        <pt x="259" y="362" on="1"/>
        <pt x="364" y="362" on="0"/>
        <pt x="364" y="264" on="1"/>
        <pt x="364" y="99" on="1"/>
        <pt x="364" y="0" on="0"/>
        <pt x="255" y="0" on="1"/>
        <pt x="254" y="0" on="1"/>
        <pt x="254" y="-79" on="1"/>
        <pt x="145" y="-79" on="1"/>
        <pt x="145" y="0" on="1"/>
        <pt x="38" y="1" on="0"/>
        <pt x="38" y="99" on="1"/>
        <pt x="38" y="186" on="1"/>
        <pt x="153" y="186" on="1"/>
        <pt x="153" y="115" on="1"/>
        <pt x="153" y="99" on="0"/>
        <pt x="165" y="88" on="0"/>
        <pt x="182" y="88" on="1"/>
        <pt x="220" y="88" on="1"/>
        <pt x="236" y="88" on="0"/>
        <pt x="248" y="99" on="0"/>
        <pt x="248" y="115" on="1"/>
        <pt x="248" y="250" on="1"/>
        <pt x="248" y="266" on="0"/>
        <pt x="236" y="277" on="0"/>
        <pt x="220" y="277" on="1"/>
        <pt x="139" y="277" on="1"/>
        <pt x="36" y="277" on="0"/>
        <pt x="36" y="377" on="1"/>
        <pt x="36" y="532" on="1"/>
        <pt x="36" y="631" on="0"/>
        <pt x="144" y="631" on="1"/>
        <pt x="145" y="631" on="1"/>
        <pt x="145" y="710" on="1"/>
        <pt x="254" y="710" on="1"/>
        <pt x="254" y="631" on="1"/>
        <pt x="362" y="631" on="0"/>
        <pt x="362" y="532" on="1"/>
        <pt x="362" y="444" on="1"/>
        <pt x="246" y="444" on="1"/>
        <pt x="246" y="516" on="1"/>
        <pt x="246" y="532" on="0"/>
        <pt x="234" y="543" on="0"/>
        <pt x="218" y="543" on="1"/>
        <pt x="180" y="543" on="1"/>
        <pt x="163" y="543" on="0"/>
        <pt x="151" y="532" on="0"/>
        <pt x="151" y="516" on="1"/>
        <pt x="151" y="389" on="1"/>
        <pt x="151" y="373" on="0"/>
        <pt x="163" y="362" on="0"/>
      </contour>
    </TTGlyph>
    <TTGlyph name="dotaccent" xMin="161" yMin="539" xMax="283" yMax="644">
      <contour>
        <pt x="161" y="539" on="1"/>
        <pt x="161" y="644" on="1"/>
        <pt x="283" y="644" on="1"/>
        <pt x="283" y="539" on="1"/>
      </contour>
    </TTGlyph>
    <TTGlyph name="dotlessi" xMin="43" yMin="0" xMax="156" yMax="491">
      <contour>
        <pt x="156" y="0" on="1"/>
        <pt x="43" y="0" on="1"/>
        <pt x="43" y="491" on="1"/>
        <pt x="156" y="491" on="1"/>
      </contour>
    </TTGlyph>
    <TTGlyph name="dvBH_N" xMin="43" yMin="78" xMax="843" yMax="633">
      <contour>
        <pt x="440" y="631" on="1"/>
        <pt x="843" y="631" on="1"/>
        <pt x="843" y="548" on="1"/>
        <pt x="440" y="548" on="1"/>
      </contour>
      <contour>
        <pt x="361" y="409" on="1"/>
        <pt x="441" y="409" on="1"/>
        <pt x="446" y="445" on="0"/>
        <pt x="495" y="479" on="0"/>
        <pt x="546" y="479" on="1"/>
        <pt x="843" y="479" on="1"/>
        <pt x="843" y="397" on="1"/>
        <pt x="748" y="397" on="1"/>
        <pt x="748" y="178" on="1"/>
        <pt x="748" y="125" on="0"/>
        <pt x="694" y="78" on="0"/>
        <pt x="633" y="78" on="1"/>
        <pt x="555" y="78" on="1"/>
        <pt x="493" y="78" on="0"/>
        <pt x="440" y="125" on="0"/>
        <pt x="440" y="178" on="1"/>
        <pt x="440" y="327" on="1"/>
        <pt x="361" y="327" on="1"/>
        <pt x="361" y="178" on="1"/>
        <pt x="361" y="125" on="0"/>
        <pt x="307" y="78" on="0"/>
        <pt x="246" y="78" on="1"/>
        <pt x="158" y="78" on="1"/>
        <pt x="96" y="78" on="0"/>
        <pt x="43" y="125" on="0"/>
        <pt x="43" y="178" on="1"/>
        <pt x="43" y="318" on="1"/>
        <pt x="43" y="365" on="0"/>
        <pt x="92" y="409" on="0"/>
        <pt x="149" y="409" on="1"/>
        <pt x="247" y="409" on="1"/>
        <pt x="247" y="524" on="1"/>
        <pt x="247" y="540" on="0"/>
        <pt x="236" y="550" on="0"/>
        <pt x="220" y="550" on="1"/>
        <pt x="192" y="550" on="1"/>
        <pt x="176" y="550" on="0"/>
        <pt x="165" y="540" on="0"/>
        <pt x="165" y="524" on="1"/>
        <pt x="165" y="481" on="1"/>
        <pt x="51" y="481" on="1"/>
        <pt x="51" y="537" on="1"/>
        <pt x="51" y="585" on="0"/>
        <pt x="100" y="633" on="0"/>
        <pt x="157" y="633" on="1"/>
        <pt x="255" y="633" on="1"/>
        <pt x="311" y="633" on="0"/>
        <pt x="361" y="585" on="0"/>
        <pt x="361" y="537" on="1"/>
      </contour>
      <contour>
        <pt x="247" y="189" on="1"/>
        <pt x="247" y="327" on="1"/>
        <pt x="184" y="327" on="1"/>
        <pt x="168" y="327" on="0"/>
        <pt x="156" y="316" on="0"/>
        <pt x="156" y="300" on="1"/>
        <pt x="156" y="189" on="1"/>
        <pt x="156" y="172" on="0"/>
        <pt x="168" y="161" on="0"/>
        <pt x="185" y="161" on="1"/>
        <pt x="219" y="161" on="1"/>
        <pt x="235" y="161" on="0"/>
        <pt x="247" y="172" on="0"/>
      </contour>
      <contour>
        <pt x="553" y="370" on="1"/>
        <pt x="553" y="189" on="1"/>
        <pt x="553" y="172" on="0"/>
        <pt x="565" y="161" on="0"/>
        <pt x="582" y="161" on="1"/>
        <pt x="606" y="161" on="1"/>
        <pt x="622" y="161" on="0"/>
        <pt x="634" y="172" on="0"/>
        <pt x="634" y="189" on="1"/>
        <pt x="634" y="397" on="1"/>
        <pt x="581" y="397" on="1"/>
        <pt x="565" y="397" on="0"/>
        <pt x="553" y="386" on="0"/>
      </contour>
    </TTGlyph>
    <TTGlyph name="dvB_N" xMin="-20" yMin="78" xMax="713" yMax="631">
      <contour>
        <pt x="-20" y="631" on="1"/>
        <pt x="713" y="631" on="1"/>
        <pt x="713" y="548" on="1"/>
        <pt x="-20" y="548" on="1"/>
      </contour>
      <contour>
        <pt x="310" y="272" on="1"/>
        <pt x="310" y="388" on="1"/>
        <pt x="310" y="435" on="0"/>
        <pt x="359" y="479" on="0"/>
        <pt x="416" y="479" on="1"/>
        <pt x="713" y="479" on="1"/>
        <pt x="713" y="397" on="1"/>
        <pt x="618" y="397" on="1"/>
        <pt x="618" y="178" on="1"/>
        <pt x="618" y="125" on="0"/>
        <pt x="564" y="78" on="0"/>
        <pt x="503" y="78" on="1"/>
        <pt x="425" y="78" on="1"/>
        <pt x="364" y="78" on="0"/>
        <pt x="337" y="101" on="1"/>
        <pt x="321" y="78" on="0"/>
        <pt x="278" y="78" on="1"/>
        <pt x="146" y="78" on="1"/>
        <pt x="44" y="78" on="0"/>
        <pt x="44" y="178" on="1"/>
        <pt x="44" y="388" on="1"/>
        <pt x="44" y="435" on="0"/>
        <pt x="93" y="479" on="0"/>
        <pt x="150" y="479" on="1"/>
        <pt x="269" y="479" on="1"/>
        <pt x="269" y="401" on="1"/>
        <pt x="195" y="401" on="1"/>
        <pt x="255" y="300" on="1"/>
        <pt x="316" y="204" on="1"/>
        <pt x="310" y="231" on="0"/>
      </contour>
      <contour>
        <pt x="185" y="161" on="1"/>
        <pt x="286" y="161" on="1"/>
        <pt x="213" y="273" on="1"/>
        <pt x="169" y="351" on="0"/>
        <pt x="157" y="367" on="1"/>
        <pt x="157" y="189" on="1"/>
        <pt x="157" y="172" on="0"/>
        <pt x="169" y="161" on="0"/>
      </contour>
      <contour>
        <pt x="423" y="370" on="1"/>
        <pt x="423" y="189" on="1"/>
        <pt x="423" y="172" on="0"/>
        <pt x="436" y="161" on="0"/>
        <pt x="452" y="161" on="1"/>
        <pt x="476" y="161" on="1"/>
        <pt x="492" y="161" on="0"/>
        <pt x="504" y="172" on="0"/>
        <pt x="504" y="189" on="1"/>
        <pt x="504" y="397" on="1"/>
        <pt x="451" y="397" on="1"/>
        <pt x="435" y="397" on="0"/>
        <pt x="423" y="386" on="0"/>
      </contour>
    </TTGlyph>
    <TTGlyph name="dvCH_N" xMin="-20" yMin="-412" xMax="609" yMax="631">
      <contour>
        <pt x="-20" y="631" on="1"/>
        <pt x="609" y="631" on="1"/>
        <pt x="609" y="548" on="1"/>
        <pt x="460" y="548" on="1"/>
        <pt x="460" y="478" on="1"/>
        <pt x="503" y="474" on="0"/>
        <pt x="545" y="431" on="0"/>
        <pt x="545" y="388" on="1"/>
        <pt x="545" y="100" on="1"/>
        <pt x="545" y="49" on="0"/>
        <pt x="490" y="1" on="0"/>
        <pt x="433" y="0" on="1"/>
        <pt x="433" y="-248" on="1"/>
        <pt x="341" y="-248" on="1"/>
        <pt x="341" y="-140" on="1"/>
        <pt x="265" y="-140" on="1"/>
        <pt x="249" y="-140" on="0"/>
        <pt x="238" y="-151" on="0"/>
        <pt x="238" y="-168" on="1"/>
        <pt x="238" y="-201" on="1"/>
        <pt x="146" y="-200" on="1"/>
        <pt x="146" y="-154" on="1"/>
        <pt x="146" y="-63" on="0"/>
        <pt x="241" y="-63" on="1"/>
        <pt x="341" y="-63" on="1"/>
        <pt x="341" y="0" on="1"/>
        <pt x="161" y="0" on="1"/>
        <pt x="102" y="0" on="0"/>
        <pt x="46" y="48" on="0"/>
        <pt x="46" y="100" on="1"/>
        <pt x="46" y="259" on="1"/>
        <pt x="46" y="305" on="0"/>
        <pt x="87" y="310" on="1"/>
        <pt x="87" y="313" on="1"/>
        <pt x="46" y="318" on="0"/>
        <pt x="46" y="364" on="1"/>
        <pt x="46" y="522" on="1"/>
        <pt x="46" y="540" on="0"/>
        <pt x="53" y="548" on="1"/>
        <pt x="-20" y="548" on="1"/>
      </contour>
      <contour>
        <pt x="354" y="548" on="1"/>
        <pt x="203" y="548" on="1"/>
        <pt x="208" y="547" on="1"/>
        <pt x="177" y="549" on="0"/>
        <pt x="159" y="538" on="0"/>
        <pt x="159" y="516" on="1"/>
        <pt x="159" y="381" on="1"/>
        <pt x="159" y="364" on="0"/>
        <pt x="171" y="353" on="0"/>
        <pt x="187" y="353" on="1"/>
        <pt x="222" y="353" on="1"/>
        <pt x="222" y="271" on="1"/>
        <pt x="187" y="271" on="1"/>
        <pt x="171" y="271" on="0"/>
        <pt x="159" y="260" on="0"/>
        <pt x="159" y="243" on="1"/>
        <pt x="159" y="112" on="1"/>
        <pt x="159" y="95" on="0"/>
        <pt x="171" y="84" on="0"/>
        <pt x="187" y="84" on="1"/>
        <pt x="406" y="84" on="1"/>
        <pt x="423" y="84" on="0"/>
        <pt x="434" y="95" on="0"/>
        <pt x="434" y="112" on="1"/>
        <pt x="434" y="379" on="1"/>
        <pt x="434" y="395" on="0"/>
        <pt x="423" y="405" on="0"/>
        <pt x="406" y="405" on="1"/>
        <pt x="388" y="405" on="1"/>
        <pt x="372" y="405" on="0"/>
        <pt x="361" y="395" on="0"/>
        <pt x="361" y="379" on="1"/>
        <pt x="361" y="287" on="1"/>
        <pt x="361" y="271" on="0"/>
        <pt x="372" y="261" on="0"/>
        <pt x="388" y="261" on="1"/>
        <pt x="404" y="261" on="1"/>
        <pt x="404" y="187" on="1"/>
        <pt x="366" y="187" on="1"/>
        <pt x="268" y="187" on="0"/>
        <pt x="268" y="278" on="1"/>
        <pt x="268" y="388" on="1"/>
        <pt x="268" y="432" on="0"/>
        <pt x="310" y="475" on="0"/>
        <pt x="354" y="478" on="1"/>
      </contour>
      <contour>
        <pt x="330" y="-273" on="1"/>
        <pt x="445" y="-273" on="1"/>
        <pt x="559" y="-412" on="1"/>
        <pt x="443" y="-412" on="1"/>
      </contour>
    </TTGlyph>
    <TTGlyph name="dvC_N" xMin="-21" yMin="78" xMax="695" yMax="631">
      <contour>
        <pt x="-21" y="631" on="1"/>
        <pt x="695" y="631" on="1"/>
        <pt x="695" y="548" on="1"/>
        <pt x="-21" y="548" on="1"/>
      </contour>
      <contour>
        <pt x="287" y="195" on="1"/>
        <pt x="287" y="388" on="1"/>
        <pt x="287" y="435" on="0"/>
        <pt x="336" y="479" on="0"/>
        <pt x="393" y="479" on="1"/>
        <pt x="695" y="479" on="1"/>
        <pt x="695" y="397" on="1"/>
        <pt x="594" y="397" on="1"/>
        <pt x="594" y="178" on="1"/>
        <pt x="594" y="125" on="0"/>
        <pt x="541" y="78" on="0"/>
        <pt x="479" y="78" on="1"/>
        <pt x="402" y="78" on="1"/>
        <pt x="341" y="78" on="0"/>
        <pt x="315" y="101" on="1"/>
        <pt x="305" y="78" on="0"/>
        <pt x="268" y="78" on="1"/>
        <pt x="159" y="78" on="1"/>
        <pt x="57" y="78" on="0"/>
        <pt x="57" y="178" on="1"/>
        <pt x="57" y="358" on="1"/>
        <pt x="57" y="385" on="0"/>
        <pt x="71" y="397" on="1"/>
        <pt x="-2" y="397" on="1"/>
        <pt x="-2" y="479" on="1"/>
        <pt x="231" y="479" on="1"/>
        <pt x="231" y="397" on="1"/>
        <pt x="199" y="397" on="1"/>
        <pt x="182" y="396" on="0"/>
        <pt x="171" y="386" on="0"/>
        <pt x="171" y="369" on="1"/>
        <pt x="171" y="189" on="1"/>
        <pt x="171" y="172" on="0"/>
        <pt x="182" y="161" on="0"/>
        <pt x="198" y="161" on="1"/>
        <pt x="253" y="161" on="1"/>
        <pt x="272" y="161" on="0"/>
        <pt x="287" y="176" on="0"/>
      </contour>
      <contour>
        <pt x="400" y="370" on="1"/>
        <pt x="400" y="189" on="1"/>
        <pt x="400" y="172" on="0"/>
        <pt x="412" y="161" on="0"/>
        <pt x="429" y="161" on="1"/>
        <pt x="453" y="161" on="1"/>
        <pt x="469" y="161" on="0"/>
        <pt x="481" y="172" on="0"/>
        <pt x="481" y="189" on="1"/>
        <pt x="481" y="397" on="1"/>
        <pt x="428" y="397" on="1"/>
        <pt x="411" y="397" on="0"/>
        <pt x="400" y="386" on="0"/>
      </contour>
    </TTGlyph>
    <TTGlyph name="dvDDH_DDHA" xMin="-20" yMin="-208" xMax="459" yMax="631">
      <contour>
        <pt x="355" y="397" on="1"/>
        <pt x="190" y="397" on="1"/>
        <pt x="174" y="397" on="0"/>
        <pt x="162" y="386" on="0"/>
        <pt x="162" y="369" on="1"/>
        <pt x="162" y="209" on="1"/>
        <pt x="162" y="192" on="0"/>
        <pt x="174" y="181" on="0"/>
        <pt x="190" y="181" on="1"/>
        <pt x="263" y="181" on="1"/>
        <pt x="280" y="181" on="0"/>
        <pt x="292" y="192" on="0"/>
        <pt x="292" y="209" on="1"/>
        <pt x="292" y="227" on="1"/>
        <pt x="292" y="244" on="0"/>
        <pt x="280" y="255" on="0"/>
        <pt x="263" y="255" on="1"/>
        <pt x="207" y="255" on="1"/>
        <pt x="207" y="338" on="1"/>
        <pt x="290" y="338" on="1"/>
        <pt x="352" y="338" on="0"/>
        <pt x="405" y="291" on="0"/>
        <pt x="405" y="238" on="1"/>
        <pt x="405" y="198" on="1"/>
        <pt x="405" y="145" on="0"/>
        <pt x="352" y="98" on="0"/>
        <pt x="290" y="98" on="1"/>
        <pt x="189" y="98" on="1"/>
        <pt x="173" y="98" on="0"/>
        <pt x="162" y="88" on="0"/>
        <pt x="162" y="72" on="1"/>
        <pt x="162" y="-97" on="1"/>
        <pt x="162" y="-114" on="0"/>
        <pt x="174" y="-125" on="0"/>
        <pt x="190" y="-125" on="1"/>
        <pt x="263" y="-125" on="1"/>
        <pt x="280" y="-125" on="0"/>
        <pt x="292" y="-114" on="0"/>
        <pt x="292" y="-97" on="1"/>
        <pt x="292" y="-81" on="1"/>
        <pt x="292" y="-64" on="0"/>
        <pt x="280" y="-53" on="0"/>
        <pt x="263" y="-53" on="1"/>
        <pt x="207" y="-53" on="1"/>
        <pt x="207" y="30" on="1"/>
        <pt x="290" y="30" on="1"/>
        <pt x="352" y="30" on="0"/>
        <pt x="405" y="-17" on="0"/>
        <pt x="405" y="-71" on="1"/>
        <pt x="405" y="-108" on="1"/>
        <pt x="405" y="-161" on="0"/>
        <pt x="352" y="-208" on="0"/>
        <pt x="290" y="-208" on="1"/>
        <pt x="163" y="-208" on="1"/>
        <pt x="102" y="-208" on="0"/>
        <pt x="48" y="-161" on="0"/>
        <pt x="48" y="-108" on="1"/>
        <pt x="48" y="62" on="1"/>
        <pt x="48" y="109" on="0"/>
        <pt x="90" y="114" on="1"/>
        <pt x="90" y="118" on="1"/>
        <pt x="48" y="123" on="0"/>
        <pt x="48" y="173" on="1"/>
        <pt x="48" y="388" on="1"/>
        <pt x="48" y="435" on="0"/>
        <pt x="97" y="479" on="0"/>
        <pt x="154" y="479" on="1"/>
        <pt x="242" y="479" on="1"/>
        <pt x="242" y="548" on="1"/>
        <pt x="-20" y="548" on="1"/>
        <pt x="-20" y="631" on="1"/>
        <pt x="459" y="631" on="1"/>
        <pt x="459" y="548" on="1"/>
        <pt x="355" y="548" on="1"/>
      </contour>
    </TTGlyph>
    <TTGlyph name="dvDD_GA" xMin="-20" yMin="-181" xMax="423" yMax="631">
      <contour>
        <pt x="336" y="401" on="1"/>
        <pt x="189" y="401" on="1"/>
        <pt x="173" y="401" on="0"/>
        <pt x="162" y="391" on="0"/>
        <pt x="162" y="375" on="1"/>
        <pt x="162" y="325" on="1"/>
        <pt x="162" y="309" on="0"/>
        <pt x="173" y="299" on="0"/>
        <pt x="189" y="299" on="1"/>
        <pt x="246" y="299" on="1"/>
        <pt x="303" y="299" on="0"/>
        <pt x="352" y="255" on="0"/>
        <pt x="352" y="208" on="1"/>
        <pt x="352" y="91" on="1"/>
        <pt x="352" y="34" on="0"/>
        <pt x="315" y="13" on="1"/>
        <pt x="315" y="-181" on="1"/>
        <pt x="224" y="-181" on="1"/>
        <pt x="224" y="0" on="1"/>
        <pt x="172" y="0" on="1"/>
        <pt x="172" y="-68" on="1"/>
        <pt x="172" y="-104" on="0"/>
        <pt x="135" y="-139" on="0"/>
        <pt x="92" y="-139" on="1"/>
        <pt x="40" y="-139" on="1"/>
        <pt x="40" y="-76" on="1"/>
        <pt x="59" y="-76" on="1"/>
        <pt x="72" y="-76" on="0"/>
        <pt x="81" y="-68" on="0"/>
        <pt x="81" y="-55" on="1"/>
        <pt x="81" y="11" on="1"/>
        <pt x="39" y="31" on="0"/>
        <pt x="39" y="91" on="1"/>
        <pt x="39" y="162" on="1"/>
        <pt x="153" y="162" on="1"/>
        <pt x="153" y="105" on="1"/>
        <pt x="153" y="89" on="0"/>
        <pt x="163" y="78" on="0"/>
        <pt x="177" y="78" on="1"/>
        <pt x="211" y="78" on="1"/>
        <pt x="227" y="78" on="0"/>
        <pt x="239" y="89" on="0"/>
        <pt x="239" y="105" on="1"/>
        <pt x="239" y="195" on="1"/>
        <pt x="239" y="210" on="0"/>
        <pt x="227" y="221" on="0"/>
        <pt x="211" y="221" on="1"/>
        <pt x="154" y="221" on="1"/>
        <pt x="97" y="221" on="0"/>
        <pt x="49" y="265" on="0"/>
        <pt x="49" y="312" on="1"/>
        <pt x="49" y="388" on="1"/>
        <pt x="49" y="435" on="0"/>
        <pt x="97" y="479" on="0"/>
        <pt x="154" y="479" on="1"/>
        <pt x="223" y="479" on="1"/>
        <pt x="223" y="548" on="1"/>
        <pt x="-20" y="548" on="1"/>
        <pt x="-20" y="631" on="1"/>
        <pt x="423" y="631" on="1"/>
        <pt x="423" y="548" on="1"/>
        <pt x="336" y="548" on="1"/>
      </contour>
    </TTGlyph>
    <TTGlyph name="dvDD_N" xMin="-20" yMin="-412" xMax="448" yMax="631">
      <contour>
        <pt x="334" y="-273" on="1"/>
        <pt x="448" y="-412" on="1"/>
        <pt x="332" y="-412" on="1"/>
        <pt x="219" y="-273" on="1"/>
      </contour>
      <contour>
        <pt x="230" y="-248" on="1"/>
        <pt x="230" y="-140" on="1"/>
        <pt x="181" y="-140" on="1"/>
        <pt x="164" y="-140" on="0"/>
        <pt x="153" y="-151" on="0"/>
        <pt x="153" y="-168" on="1"/>
        <pt x="153" y="-201" on="1"/>
        <pt x="62" y="-200" on="1"/>
        <pt x="62" y="-154" on="1"/>
        <pt x="62" y="-106" on="0"/>
        <pt x="109" y="-63" on="0"/>
        <pt x="157" y="-63" on="1"/>
        <pt x="230" y="-63" on="1"/>
        <pt x="230" y="0" on="1"/>
        <pt x="145" y="0" on="1"/>
        <pt x="88" y="0" on="0"/>
        <pt x="39" y="44" on="0"/>
        <pt x="39" y="91" on="1"/>
        <pt x="39" y="162" on="1"/>
        <pt x="153" y="162" on="1"/>
        <pt x="153" y="105" on="1"/>
        <pt x="153" y="89" on="0"/>
        <pt x="163" y="78" on="0"/>
        <pt x="177" y="78" on="1"/>
        <pt x="211" y="78" on="1"/>
        <pt x="227" y="78" on="0"/>
        <pt x="239" y="89" on="0"/>
        <pt x="239" y="105" on="1"/>
        <pt x="239" y="195" on="1"/>
        <pt x="239" y="210" on="0"/>
        <pt x="227" y="221" on="0"/>
        <pt x="211" y="221" on="1"/>
        <pt x="154" y="221" on="1"/>
        <pt x="97" y="221" on="0"/>
        <pt x="49" y="265" on="0"/>
        <pt x="49" y="312" on="1"/>
        <pt x="49" y="388" on="1"/>
        <pt x="49" y="435" on="0"/>
        <pt x="97" y="479" on="0"/>
        <pt x="154" y="479" on="1"/>
        <pt x="223" y="479" on="1"/>
        <pt x="223" y="548" on="1"/>
        <pt x="-20" y="548" on="1"/>
        <pt x="-20" y="631" on="1"/>
        <pt x="423" y="631" on="1"/>
        <pt x="423" y="548" on="1"/>
        <pt x="336" y="548" on="1"/>
        <pt x="336" y="401" on="1"/>
        <pt x="189" y="401" on="1"/>
        <pt x="173" y="401" on="0"/>
        <pt x="162" y="391" on="0"/>
        <pt x="162" y="375" on="1"/>
        <pt x="162" y="325" on="1"/>
        <pt x="162" y="309" on="0"/>
        <pt x="173" y="299" on="0"/>
        <pt x="189" y="299" on="1"/>
        <pt x="246" y="299" on="1"/>
        <pt x="303" y="299" on="0"/>
        <pt x="352" y="255" on="0"/>
        <pt x="352" y="208" on="1"/>
        <pt x="352" y="91" on="1"/>
        <pt x="352" y="39" on="0"/>
        <pt x="322" y="18" on="1"/>
        <pt x="322" y="-248" on="1"/>
      </contour>
    </TTGlyph>
    <TTGlyph name="dvDH_N" xMin="62" yMin="78" xMax="799" yMax="636">
      <contour>
        <pt x="799" y="631" on="1"/>
        <pt x="799" y="548" on="1"/>
        <pt x="357" y="548" on="1"/>
        <pt x="356" y="631" on="1"/>
      </contour>
      <contour>
        <pt x="357" y="195" on="1"/>
        <pt x="357" y="388" on="1"/>
        <pt x="357" y="435" on="0"/>
        <pt x="405" y="479" on="0"/>
        <pt x="462" y="479" on="1"/>
        <pt x="799" y="479" on="1"/>
        <pt x="799" y="397" on="1"/>
        <pt x="664" y="397" on="1"/>
        <pt x="664" y="178" on="1"/>
        <pt x="664" y="125" on="0"/>
        <pt x="611" y="78" on="0"/>
        <pt x="549" y="78" on="1"/>
        <pt x="472" y="78" on="1"/>
        <pt x="411" y="78" on="0"/>
        <pt x="385" y="101" on="1"/>
        <pt x="375" y="78" on="0"/>
        <pt x="338" y="78" on="1"/>
        <pt x="164" y="78" on="1"/>
        <pt x="62" y="78" on="0"/>
        <pt x="62" y="169" on="1"/>
        <pt x="62" y="292" on="1"/>
        <pt x="62" y="337" on="0"/>
        <pt x="104" y="342" on="1"/>
        <pt x="104" y="346" on="1"/>
        <pt x="62" y="351" on="0"/>
        <pt x="62" y="397" on="1"/>
        <pt x="62" y="545" on="1"/>
        <pt x="62" y="636" on="0"/>
        <pt x="164" y="636" on="1"/>
        <pt x="207" y="636" on="1"/>
        <pt x="308" y="636" on="0"/>
        <pt x="308" y="545" on="1"/>
        <pt x="308" y="486" on="1"/>
        <pt x="239" y="486" on="1"/>
        <pt x="239" y="527" on="1"/>
        <pt x="239" y="543" on="0"/>
        <pt x="228" y="553" on="0"/>
        <pt x="212" y="553" on="1"/>
        <pt x="203" y="553" on="1"/>
        <pt x="187" y="553" on="0"/>
        <pt x="176" y="543" on="0"/>
        <pt x="176" y="527" on="1"/>
        <pt x="176" y="414" on="1"/>
        <pt x="176" y="397" on="0"/>
        <pt x="187" y="386" on="0"/>
        <pt x="203" y="386" on="1"/>
        <pt x="272" y="386" on="1"/>
        <pt x="272" y="303" on="1"/>
        <pt x="203" y="303" on="1"/>
        <pt x="187" y="303" on="0"/>
        <pt x="176" y="292" on="0"/>
        <pt x="176" y="276" on="1"/>
        <pt x="176" y="189" on="1"/>
        <pt x="176" y="172" on="0"/>
        <pt x="187" y="161" on="0"/>
        <pt x="203" y="161" on="1"/>
        <pt x="323" y="161" on="1"/>
        <pt x="342" y="161" on="0"/>
        <pt x="357" y="176" on="0"/>
      </contour>
      <contour>
        <pt x="470" y="370" on="1"/>
        <pt x="470" y="189" on="1"/>
        <pt x="470" y="172" on="0"/>
        <pt x="482" y="161" on="0"/>
        <pt x="498" y="161" on="1"/>
        <pt x="522" y="161" on="1"/>
        <pt x="539" y="161" on="0"/>
        <pt x="551" y="172" on="0"/>
        <pt x="551" y="189" on="1"/>
        <pt x="551" y="397" on="1"/>
        <pt x="497" y="397" on="1"/>
        <pt x="481" y="397" on="0"/>
        <pt x="470" y="386" on="0"/>
      </contour>
    </TTGlyph>
    <TTGlyph name="dvD_N" xMin="-26" yMin="-337" xMax="478" yMax="631">
      <contour>
        <pt x="364" y="-198" on="1"/>
        <pt x="478" y="-337" on="1"/>
        <pt x="362" y="-337" on="1"/>
        <pt x="249" y="-198" on="1"/>
      </contour>
      <contour>
        <pt x="254" y="-171" on="1"/>
        <pt x="254" y="-63" on="1"/>
        <pt x="199" y="-63" on="1"/>
        <pt x="183" y="-63" on="0"/>
        <pt x="171" y="-74" on="0"/>
        <pt x="171" y="-91" on="1"/>
        <pt x="171" y="-123" on="1"/>
        <pt x="80" y="-123" on="1"/>
        <pt x="80" y="-77" on="1"/>
        <pt x="80" y="14" on="0"/>
        <pt x="175" y="14" on="1"/>
        <pt x="254" y="14" on="1"/>
        <pt x="254" y="91" on="1"/>
        <pt x="242" y="78" on="0"/>
        <pt x="213" y="78" on="1"/>
        <pt x="157" y="78" on="1"/>
        <pt x="96" y="78" on="0"/>
        <pt x="42" y="125" on="0"/>
        <pt x="42" y="178" on="1"/>
        <pt x="42" y="388" on="1"/>
        <pt x="42" y="435" on="0"/>
        <pt x="91" y="479" on="0"/>
        <pt x="148" y="479" on="1"/>
        <pt x="241" y="479" on="1"/>
        <pt x="241" y="548" on="1"/>
        <pt x="-26" y="548" on="1"/>
        <pt x="-26" y="631" on="1"/>
        <pt x="423" y="631" on="1"/>
        <pt x="423" y="548" on="1"/>
        <pt x="354" y="548" on="1"/>
        <pt x="354" y="397" on="1"/>
        <pt x="184" y="397" on="1"/>
        <pt x="168" y="397" on="0"/>
        <pt x="156" y="386" on="0"/>
        <pt x="156" y="369" on="1"/>
        <pt x="156" y="189" on="1"/>
        <pt x="156" y="172" on="0"/>
        <pt x="167" y="161" on="0"/>
        <pt x="183" y="161" on="1"/>
        <pt x="225" y="161" on="1"/>
        <pt x="241" y="161" on="0"/>
        <pt x="254" y="173" on="0"/>
        <pt x="254" y="190" on="1"/>
        <pt x="254" y="277" on="1"/>
        <pt x="358" y="277" on="1"/>
        <pt x="358" y="-171" on="1"/>
      </contour>
    </TTGlyph>
    <TTGlyph name="dvGH_N" xMin="-20" yMin="78" xMax="709" yMax="631">
      <contour>
        <pt x="709" y="548" on="1"/>
        <pt x="207" y="548" on="1"/>
        <pt x="175" y="548" on="0"/>
        <pt x="158" y="538" on="0"/>
        <pt x="158" y="516" on="1"/>
        <pt x="158" y="423" on="1"/>
        <pt x="158" y="406" on="0"/>
        <pt x="169" y="395" on="0"/>
        <pt x="185" y="395" on="1"/>
        <pt x="238" y="395" on="1"/>
        <pt x="238" y="313" on="1"/>
        <pt x="185" y="313" on="1"/>
        <pt x="169" y="313" on="0"/>
        <pt x="158" y="302" on="0"/>
        <pt x="158" y="285" on="1"/>
        <pt x="158" y="189" on="1"/>
        <pt x="158" y="172" on="0"/>
        <pt x="169" y="161" on="0"/>
        <pt x="185" y="161" on="1"/>
        <pt x="271" y="161" on="1"/>
        <pt x="290" y="161" on="0"/>
        <pt x="305" y="176" on="0"/>
        <pt x="305" y="195" on="1"/>
        <pt x="305" y="388" on="1"/>
        <pt x="305" y="435" on="0"/>
        <pt x="354" y="479" on="0"/>
        <pt x="411" y="479" on="1"/>
        <pt x="709" y="479" on="1"/>
        <pt x="709" y="397" on="1"/>
        <pt x="613" y="397" on="1"/>
        <pt x="613" y="178" on="1"/>
        <pt x="613" y="125" on="0"/>
        <pt x="559" y="78" on="0"/>
        <pt x="498" y="78" on="1"/>
        <pt x="420" y="78" on="1"/>
        <pt x="361" y="78" on="0"/>
        <pt x="333" y="100" on="1"/>
        <pt x="323" y="78" on="0"/>
        <pt x="287" y="78" on="1"/>
        <pt x="160" y="78" on="1"/>
        <pt x="100" y="78" on="0"/>
        <pt x="44" y="126" on="0"/>
        <pt x="44" y="178" on="1"/>
        <pt x="44" y="301" on="1"/>
        <pt x="44" y="348" on="0"/>
        <pt x="86" y="351" on="1"/>
        <pt x="86" y="355" on="1"/>
        <pt x="44" y="360" on="0"/>
        <pt x="44" y="406" on="1"/>
        <pt x="44" y="520" on="1"/>
        <pt x="44" y="539" on="0"/>
        <pt x="53" y="548" on="1"/>
        <pt x="-20" y="548" on="1"/>
        <pt x="-20" y="631" on="1"/>
        <pt x="709" y="631" on="1"/>
      </contour>
      <contour>
        <pt x="419" y="370" on="1"/>
        <pt x="419" y="189" on="1"/>
        <pt x="419" y="172" on="0"/>
        <pt x="431" y="161" on="0"/>
        <pt x="447" y="161" on="1"/>
        <pt x="471" y="161" on="1"/>
        <pt x="487" y="161" on="0"/>
        <pt x="500" y="172" on="0"/>
        <pt x="500" y="189" on="1"/>
        <pt x="500" y="397" on="1"/>
        <pt x="446" y="397" on="1"/>
        <pt x="430" y="397" on="0"/>
        <pt x="419" y="386" on="0"/>
      </contour>
    </TTGlyph>
    <TTGlyph name="dvG_N" xMin="-20" yMin="78" xMax="870" yMax="631">
      <contour>
        <pt x="870" y="631" on="1"/>
        <pt x="870" y="548" on="1"/>
        <pt x="351" y="548" on="1"/>
        <pt x="351" y="178" on="1"/>
        <pt x="351" y="125" on="0"/>
        <pt x="297" y="78" on="0"/>
        <pt x="236" y="78" on="1"/>
        <pt x="147" y="78" on="1"/>
        <pt x="86" y="78" on="0"/>
        <pt x="32" y="125" on="0"/>
        <pt x="32" y="178" on="1"/>
        <pt x="32" y="351" on="1"/>
        <pt x="32" y="401" on="0"/>
        <pt x="91" y="446" on="0"/>
        <pt x="155" y="446" on="1"/>
        <pt x="237" y="446" on="1"/>
        <pt x="237" y="548" on="1"/>
        <pt x="-20" y="548" on="1"/>
        <pt x="-20" y="631" on="1"/>
      </contour>
      <contour>
        <pt x="174" y="161" on="1"/>
        <pt x="209" y="161" on="1"/>
        <pt x="225" y="161" on="0"/>
        <pt x="237" y="172" on="0"/>
        <pt x="237" y="189" on="1"/>
        <pt x="237" y="363" on="1"/>
        <pt x="176" y="363" on="1"/>
        <pt x="156" y="363" on="0"/>
        <pt x="145" y="352" on="0"/>
        <pt x="145" y="332" on="1"/>
        <pt x="145" y="189" on="1"/>
        <pt x="145" y="172" on="0"/>
        <pt x="158" y="161" on="0"/>
      </contour>
      <contour>
        <pt x="434" y="178" on="1"/>
        <pt x="434" y="388" on="1"/>
        <pt x="434" y="435" on="0"/>
        <pt x="483" y="479" on="0"/>
        <pt x="540" y="479" on="1"/>
        <pt x="870" y="479" on="1"/>
        <pt x="870" y="397" on="1"/>
        <pt x="742" y="397" on="1"/>
        <pt x="742" y="178" on="1"/>
        <pt x="742" y="125" on="0"/>
        <pt x="688" y="78" on="0"/>
        <pt x="626" y="78" on="1"/>
        <pt x="549" y="78" on="1"/>
        <pt x="487" y="78" on="0"/>
        <pt x="434" y="125" on="0"/>
      </contour>
      <contour>
        <pt x="547" y="370" on="1"/>
        <pt x="547" y="189" on="1"/>
        <pt x="547" y="172" on="0"/>
        <pt x="559" y="161" on="0"/>
        <pt x="576" y="161" on="1"/>
        <pt x="600" y="161" on="1"/>
        <pt x="616" y="161" on="0"/>
        <pt x="628" y="172" on="0"/>
        <pt x="628" y="189" on="1"/>
        <pt x="628" y="397" on="1"/>
        <pt x="575" y="397" on="1"/>
        <pt x="559" y="397" on="0"/>
        <pt x="547" y="386" on="0"/>
      </contour>
    </TTGlyph>
    <TTGlyph name="dvJH_N" xMin="-29" yMin="-27" xMax="861" yMax="631">
      <contour>
        <pt x="337" y="401" on="1"/>
        <pt x="171" y="401" on="1"/>
        <pt x="155" y="401" on="0"/>
        <pt x="143" y="390" on="0"/>
        <pt x="143" y="375" on="1"/>
        <pt x="143" y="342" on="1"/>
        <pt x="143" y="327" on="0"/>
        <pt x="155" y="316" on="0"/>
        <pt x="171" y="316" on="1"/>
        <pt x="425" y="316" on="1"/>
        <pt x="425" y="388" on="1"/>
        <pt x="425" y="435" on="0"/>
        <pt x="474" y="479" on="0"/>
        <pt x="531" y="479" on="1"/>
        <pt x="861" y="479" on="1"/>
        <pt x="861" y="397" on="1"/>
        <pt x="733" y="397" on="1"/>
        <pt x="733" y="178" on="1"/>
        <pt x="733" y="125" on="0"/>
        <pt x="679" y="78" on="0"/>
        <pt x="617" y="78" on="1"/>
        <pt x="540" y="78" on="1"/>
        <pt x="478" y="78" on="0"/>
        <pt x="425" y="125" on="0"/>
        <pt x="425" y="178" on="1"/>
        <pt x="425" y="237" on="1"/>
        <pt x="347" y="237" on="1"/>
        <pt x="349" y="223" on="0"/>
        <pt x="349" y="216" on="1"/>
        <pt x="349" y="135" on="1"/>
        <pt x="349" y="88" on="0"/>
        <pt x="300" y="44" on="0"/>
        <pt x="243" y="44" on="1"/>
        <pt x="145" y="44" on="1"/>
        <pt x="145" y="-27" on="1"/>
        <pt x="31" y="-27" on="1"/>
        <pt x="31" y="179" on="1"/>
        <pt x="145" y="179" on="1"/>
        <pt x="145" y="122" on="1"/>
        <pt x="208" y="122" on="1"/>
        <pt x="224" y="122" on="0"/>
        <pt x="236" y="133" on="0"/>
        <pt x="236" y="148" on="1"/>
        <pt x="236" y="211" on="1"/>
        <pt x="236" y="226" on="0"/>
        <pt x="224" y="237" on="0"/>
        <pt x="208" y="237" on="1"/>
        <pt x="136" y="237" on="1"/>
        <pt x="79" y="237" on="0"/>
        <pt x="30" y="281" on="0"/>
        <pt x="30" y="329" on="1"/>
        <pt x="30" y="388" on="1"/>
        <pt x="30" y="435" on="0"/>
        <pt x="79" y="479" on="0"/>
        <pt x="136" y="479" on="1"/>
        <pt x="223" y="479" on="1"/>
        <pt x="223" y="548" on="1"/>
        <pt x="-29" y="548" on="1"/>
        <pt x="-29" y="631" on="1"/>
        <pt x="861" y="631" on="1"/>
        <pt x="861" y="548" on="1"/>
        <pt x="337" y="548" on="1"/>
      </contour>
      <contour>
        <pt x="538" y="370" on="1"/>
        <pt x="538" y="189" on="1"/>
        <pt x="538" y="172" on="0"/>
        <pt x="550" y="161" on="0"/>
        <pt x="567" y="161" on="1"/>
        <pt x="591" y="161" on="1"/>
        <pt x="607" y="161" on="0"/>
        <pt x="619" y="172" on="0"/>
        <pt x="619" y="189" on="1"/>
        <pt x="619" y="397" on="1"/>
        <pt x="566" y="397" on="1"/>
        <pt x="550" y="397" on="0"/>
        <pt x="538" y="386" on="0"/>
      </contour>
    </TTGlyph>
    <TTGlyph name="dvJ_N" xMin="-20" yMin="78" xMax="871" yMax="631">
      <contour>
        <pt x="-20" y="631" on="1"/>
        <pt x="871" y="631" on="1"/>
        <pt x="871" y="548" on="1"/>
        <pt x="-20" y="548" on="1"/>
      </contour>
      <contour>
        <pt x="871" y="479" on="1"/>
        <pt x="871" y="397" on="1"/>
        <pt x="745" y="397" on="1"/>
        <pt x="745" y="178" on="1"/>
        <pt x="745" y="125" on="0"/>
        <pt x="691" y="78" on="0"/>
        <pt x="630" y="78" on="1"/>
        <pt x="552" y="78" on="1"/>
        <pt x="491" y="78" on="0"/>
        <pt x="437" y="125" on="0"/>
        <pt x="437" y="178" on="1"/>
        <pt x="437" y="397" on="1"/>
        <pt x="353" y="397" on="1"/>
        <pt x="353" y="178" on="1"/>
        <pt x="353" y="125" on="0"/>
        <pt x="300" y="78" on="0"/>
        <pt x="238" y="78" on="1"/>
        <pt x="158" y="78" on="1"/>
        <pt x="96" y="78" on="0"/>
        <pt x="43" y="125" on="0"/>
        <pt x="43" y="178" on="1"/>
        <pt x="43" y="479" on="1"/>
        <pt x="156" y="479" on="1"/>
        <pt x="156" y="189" on="1"/>
        <pt x="156" y="172" on="0"/>
        <pt x="168" y="161" on="0"/>
        <pt x="185" y="161" on="1"/>
        <pt x="212" y="161" on="1"/>
        <pt x="228" y="161" on="0"/>
        <pt x="240" y="172" on="0"/>
        <pt x="240" y="189" on="1"/>
        <pt x="240" y="479" on="1"/>
      </contour>
      <contour>
        <pt x="631" y="397" on="1"/>
        <pt x="578" y="397" on="1"/>
        <pt x="562" y="397" on="0"/>
        <pt x="550" y="386" on="0"/>
        <pt x="550" y="370" on="1"/>
        <pt x="550" y="189" on="1"/>
        <pt x="550" y="172" on="0"/>
        <pt x="563" y="161" on="0"/>
        <pt x="579" y="161" on="1"/>
        <pt x="603" y="161" on="1"/>
        <pt x="619" y="161" on="0"/>
        <pt x="631" y="172" on="0"/>
        <pt x="631" y="189" on="1"/>
      </contour>
    </TTGlyph>
    <TTGlyph name="dvKH_N" xMin="-20" yMin="0" xMax="1031" yMax="631">
      <contour>
        <pt x="-20" y="631" on="1"/>
        <pt x="1031" y="631" on="1"/>
        <pt x="1031" y="548" on="1"/>
        <pt x="325" y="548" on="1"/>
        <pt x="332" y="537" on="0"/>
        <pt x="332" y="522" on="1"/>
        <pt x="332" y="334" on="1"/>
        <pt x="332" y="284" on="0"/>
        <pt x="281" y="239" on="0"/>
        <pt x="224" y="239" on="1"/>
        <pt x="158" y="239" on="1"/>
        <pt x="158" y="117" on="1"/>
        <pt x="158" y="98" on="0"/>
        <pt x="171" y="84" on="0"/>
        <pt x="190" y="84" on="1"/>
        <pt x="419" y="84" on="1"/>
        <pt x="419" y="0" on="1"/>
        <pt x="168" y="0" on="1"/>
        <pt x="104" y="0" on="0"/>
        <pt x="44" y="46" on="0"/>
        <pt x="44" y="95" on="1"/>
        <pt x="44" y="471" on="1"/>
        <pt x="158" y="471" on="1"/>
        <pt x="158" y="322" on="1"/>
        <pt x="186" y="322" on="1"/>
        <pt x="205" y="322" on="0"/>
        <pt x="218" y="335" on="0"/>
        <pt x="218" y="354" on="1"/>
        <pt x="218" y="516" on="1"/>
        <pt x="218" y="536" on="0"/>
        <pt x="206" y="548" on="0"/>
        <pt x="186" y="548" on="1"/>
        <pt x="-20" y="548" on="1"/>
      </contour>
      <contour>
        <pt x="577" y="216" on="1"/>
        <pt x="577" y="388" on="1"/>
        <pt x="577" y="435" on="0"/>
        <pt x="626" y="479" on="0"/>
        <pt x="683" y="479" on="1"/>
        <pt x="1031" y="479" on="1"/>
        <pt x="1031" y="397" on="1"/>
        <pt x="885" y="397" on="1"/>
        <pt x="885" y="178" on="1"/>
        <pt x="885" y="125" on="0"/>
        <pt x="831" y="78" on="0"/>
        <pt x="770" y="78" on="1"/>
        <pt x="692" y="78" on="1"/>
        <pt x="614" y="78" on="0"/>
        <pt x="591" y="117" on="1"/>
        <pt x="576" y="101" on="0"/>
        <pt x="542" y="101" on="1"/>
        <pt x="477" y="101" on="1"/>
        <pt x="375" y="101" on="0"/>
        <pt x="375" y="201" on="1"/>
        <pt x="375" y="388" on="1"/>
        <pt x="375" y="435" on="0"/>
        <pt x="424" y="479" on="0"/>
        <pt x="481" y="479" on="1"/>
        <pt x="542" y="479" on="1"/>
        <pt x="542" y="401" on="1"/>
        <pt x="514" y="401" on="1"/>
        <pt x="498" y="401" on="0"/>
        <pt x="486" y="390" on="0"/>
        <pt x="486" y="375" on="1"/>
        <pt x="486" y="212" on="1"/>
        <pt x="486" y="195" on="0"/>
        <pt x="498" y="184" on="0"/>
        <pt x="514" y="184" on="1"/>
        <pt x="544" y="184" on="1"/>
        <pt x="562" y="184" on="0"/>
        <pt x="577" y="198" on="0"/>
      </contour>
      <contour>
        <pt x="691" y="370" on="1"/>
        <pt x="691" y="189" on="1"/>
        <pt x="691" y="172" on="0"/>
        <pt x="703" y="161" on="0"/>
        <pt x="719" y="161" on="1"/>
        <pt x="743" y="161" on="1"/>
        <pt x="759" y="161" on="0"/>
        <pt x="771" y="172" on="0"/>
        <pt x="771" y="189" on="1"/>
        <pt x="771" y="397" on="1"/>
        <pt x="718" y="397" on="1"/>
        <pt x="702" y="397" on="0"/>
        <pt x="691" y="386" on="0"/>
      </contour>
    </TTGlyph>
    <TTGlyph name="dvK_N" xMin="-20" yMin="0" xMax="883" yMax="631">
      <contour>
        <pt x="883" y="548" on="1"/>
        <pt x="353" y="548" on="1"/>
        <pt x="353" y="438" on="1"/>
        <pt x="364" y="449" on="0"/>
        <pt x="394" y="449" on="1"/>
        <pt x="883" y="449" on="1"/>
        <pt x="883" y="367" on="1"/>
        <pt x="752" y="367" on="1"/>
        <pt x="752" y="178" on="1"/>
        <pt x="752" y="125" on="0"/>
        <pt x="699" y="78" on="0"/>
        <pt x="637" y="78" on="1"/>
        <pt x="560" y="78" on="1"/>
        <pt x="498" y="78" on="0"/>
        <pt x="444" y="125" on="0"/>
        <pt x="444" y="178" on="1"/>
        <pt x="444" y="367" on="1"/>
        <pt x="382" y="367" on="1"/>
        <pt x="366" y="367" on="0"/>
        <pt x="353" y="354" on="0"/>
        <pt x="353" y="337" on="1"/>
        <pt x="353" y="0" on="1"/>
        <pt x="239" y="0" on="1"/>
        <pt x="239" y="90" on="1"/>
        <pt x="227" y="78" on="0"/>
        <pt x="198" y="78" on="1"/>
        <pt x="136" y="78" on="1"/>
        <pt x="34" y="78" on="0"/>
        <pt x="34" y="178" on="1"/>
        <pt x="34" y="388" on="1"/>
        <pt x="34" y="435" on="0"/>
        <pt x="83" y="479" on="0"/>
        <pt x="140" y="479" on="1"/>
        <pt x="199" y="479" on="1"/>
        <pt x="199" y="401" on="1"/>
        <pt x="175" y="401" on="1"/>
        <pt x="159" y="401" on="0"/>
        <pt x="147" y="390" on="0"/>
        <pt x="147" y="375" on="1"/>
        <pt x="147" y="189" on="1"/>
        <pt x="147" y="172" on="0"/>
        <pt x="159" y="161" on="0"/>
        <pt x="175" y="161" on="1"/>
        <pt x="210" y="161" on="1"/>
        <pt x="226" y="161" on="0"/>
        <pt x="239" y="173" on="0"/>
        <pt x="239" y="190" on="1"/>
        <pt x="239" y="548" on="1"/>
        <pt x="-20" y="548" on="1"/>
        <pt x="-20" y="631" on="1"/>
        <pt x="883" y="631" on="1"/>
      </contour>
      <contour>
        <pt x="639" y="367" on="1"/>
        <pt x="585" y="367" on="1"/>
        <pt x="569" y="367" on="0"/>
        <pt x="558" y="356" on="0"/>
        <pt x="558" y="340" on="1"/>
        <pt x="558" y="189" on="1"/>
        <pt x="558" y="172" on="0"/>
        <pt x="570" y="161" on="0"/>
        <pt x="586" y="161" on="1"/>
        <pt x="610" y="161" on="1"/>
        <pt x="627" y="161" on="0"/>
        <pt x="639" y="172" on="0"/>
        <pt x="639" y="189" on="1"/>
      </contour>
    </TTGlyph>
    <TTGlyph name="dvM_N" xMin="-20" yMin="78" xMax="856" yMax="631">
      <contour>
        <pt x="856" y="548" on="1"/>
        <pt x="739" y="548" on="1"/>
        <pt x="739" y="432" on="1"/>
        <pt x="856" y="432" on="1"/>
        <pt x="856" y="349" on="1"/>
        <pt x="739" y="349" on="1"/>
        <pt x="739" y="178" on="1"/>
        <pt x="739" y="125" on="0"/>
        <pt x="686" y="78" on="0"/>
        <pt x="624" y="78" on="1"/>
        <pt x="537" y="78" on="1"/>
        <pt x="475" y="78" on="0"/>
        <pt x="421" y="125" on="0"/>
        <pt x="421" y="178" on="1"/>
        <pt x="421" y="349" on="1"/>
        <pt x="341" y="349" on="1"/>
        <pt x="341" y="178" on="1"/>
        <pt x="341" y="125" on="0"/>
        <pt x="287" y="78" on="0"/>
        <pt x="225" y="78" on="1"/>
        <pt x="148" y="78" on="1"/>
        <pt x="86" y="78" on="0"/>
        <pt x="33" y="125" on="0"/>
        <pt x="33" y="178" on="1"/>
        <pt x="33" y="341" on="1"/>
        <pt x="33" y="388" on="0"/>
        <pt x="82" y="432" on="0"/>
        <pt x="139" y="432" on="1"/>
        <pt x="626" y="432" on="1"/>
        <pt x="626" y="548" on="1"/>
        <pt x="-20" y="548" on="1"/>
        <pt x="-20" y="631" on="1"/>
        <pt x="856" y="631" on="1"/>
      </contour>
      <contour>
        <pt x="227" y="189" on="1"/>
        <pt x="227" y="349" on="1"/>
        <pt x="174" y="349" on="1"/>
        <pt x="158" y="349" on="0"/>
        <pt x="146" y="338" on="0"/>
        <pt x="146" y="323" on="1"/>
        <pt x="146" y="189" on="1"/>
        <pt x="146" y="172" on="0"/>
        <pt x="158" y="161" on="0"/>
        <pt x="175" y="161" on="1"/>
        <pt x="199" y="161" on="1"/>
        <pt x="215" y="161" on="0"/>
        <pt x="227" y="172" on="0"/>
      </contour>
      <contour>
        <pt x="626" y="189" on="1"/>
        <pt x="626" y="349" on="1"/>
        <pt x="554" y="349" on="1"/>
        <pt x="538" y="349" on="0"/>
        <pt x="527" y="339" on="0"/>
        <pt x="527" y="323" on="1"/>
        <pt x="527" y="189" on="1"/>
        <pt x="527" y="172" on="0"/>
        <pt x="539" y="161" on="0"/>
        <pt x="555" y="161" on="1"/>
        <pt x="597" y="161" on="1"/>
        <pt x="614" y="161" on="0"/>
        <pt x="626" y="172" on="0"/>
      </contour>
    </TTGlyph>
    <TTGlyph name="dvMatraI.a33" xMin="-20" yMin="0" xMax="1389" yMax="833">
      <contour>
        <pt x="1291" y="833" on="1"/>
        <pt x="1389" y="833" on="0"/>
        <pt x="1389" y="739" on="1"/>
        <pt x="1389" y="671" on="1"/>
        <pt x="1275" y="671" on="1"/>
        <pt x="1275" y="717" on="1"/>
        <pt x="1275" y="738" on="0"/>
        <pt x="1263" y="750" on="0"/>
        <pt x="1242" y="750" on="1"/>
        <pt x="195" y="750" on="1"/>
        <pt x="174" y="750" on="0"/>
        <pt x="162" y="738" on="0"/>
        <pt x="162" y="717" on="1"/>
        <pt x="162" y="631" on="1"/>
        <pt x="230" y="631" on="1"/>
        <pt x="230" y="548" on="1"/>
        <pt x="162" y="548" on="1"/>
        <pt x="162" y="0" on="1"/>
        <pt x="48" y="0" on="1"/>
        <pt x="48" y="548" on="1"/>
        <pt x="-20" y="548" on="1"/>
        <pt x="-20" y="631" on="1"/>
        <pt x="48" y="631" on="1"/>
        <pt x="48" y="739" on="1"/>
        <pt x="48" y="833" on="0"/>
        <pt x="146" y="833" on="1"/>
      </contour>
    </TTGlyph>
    <TTGlyph name="dvMatraI.a34" xMin="-20" yMin="0" xMax="1415" yMax="833">
      <contour>
        <pt x="1317" y="833" on="1"/>
        <pt x="1415" y="833" on="0"/>
        <pt x="1415" y="739" on="1"/>
        <pt x="1415" y="671" on="1"/>
        <pt x="1302" y="671" on="1"/>
        <pt x="1302" y="717" on="1"/>
        <pt x="1302" y="738" on="0"/>
        <pt x="1289" y="750" on="0"/>
        <pt x="1268" y="750" on="1"/>
        <pt x="195" y="750" on="1"/>
        <pt x="174" y="750" on="0"/>
        <pt x="162" y="738" on="0"/>
        <pt x="162" y="717" on="1"/>
        <pt x="162" y="631" on="1"/>
        <pt x="230" y="631" on="1"/>
        <pt x="230" y="548" on="1"/>
        <pt x="162" y="548" on="1"/>
        <pt x="162" y="0" on="1"/>
        <pt x="48" y="0" on="1"/>
        <pt x="48" y="548" on="1"/>
        <pt x="-20" y="548" on="1"/>
        <pt x="-20" y="631" on="1"/>
        <pt x="48" y="631" on="1"/>
        <pt x="48" y="739" on="1"/>
        <pt x="48" y="833" on="0"/>
        <pt x="146" y="833" on="1"/>
      </contour>
    </TTGlyph>
    <TTGlyph name="dvMatraI.a35" xMin="-20" yMin="0" xMax="1441" yMax="833">
      <contour>
        <pt x="1343" y="833" on="1"/>
        <pt x="1441" y="833" on="0"/>
        <pt x="1441" y="739" on="1"/>
        <pt x="1441" y="671" on="1"/>
        <pt x="1328" y="671" on="1"/>
        <pt x="1328" y="717" on="1"/>
        <pt x="1328" y="738" on="0"/>
        <pt x="1315" y="750" on="0"/>
        <pt x="1295" y="750" on="1"/>
        <pt x="195" y="750" on="1"/>
        <pt x="174" y="750" on="0"/>
        <pt x="162" y="738" on="0"/>
        <pt x="162" y="717" on="1"/>
        <pt x="162" y="631" on="1"/>
        <pt x="230" y="631" on="1"/>
        <pt x="230" y="548" on="1"/>
        <pt x="162" y="548" on="1"/>
        <pt x="162" y="0" on="1"/>
        <pt x="48" y="0" on="1"/>
        <pt x="48" y="548" on="1"/>
        <pt x="-20" y="548" on="1"/>
        <pt x="-20" y="631" on="1"/>
        <pt x="48" y="631" on="1"/>
        <pt x="48" y="739" on="1"/>
        <pt x="48" y="833" on="0"/>
        <pt x="146" y="833" on="1"/>
      </contour>
    </TTGlyph>
</ttFont>
